<?xml version="1.0" encoding="utf-8"?>
<!-- Generator: Adobe Illustrator 25.0.1, SVG Export Plug-In . SVG Version: 6.00 Build 0)  -->
<svg version="1.1" id="Calque_1" xmlns="http://www.w3.org/2000/svg" xmlns:xlink="http://www.w3.org/1999/xlink" x="0px" y="0px"
	 viewBox="0 0 100 100" style="enable-background:new 0 0 100 100;" xml:space="preserve">
<style type="text/css">
	.st0{fill:none;stroke:#000000;stroke-width:5;stroke-miterlimit:10;}
</style>
<path class="st0" d="M-7.1,15.1c65.5,1,117.1,2.8,117.2,6.4C110.3,27.1-12.5,34-12.3,37.3c0.2,3.3,118-1.6,118.3,2.6
	c0.3,4.2-120.5,13.7-120.2,18.2c0.3,4.4,117.8,0.1,117.9,2.8c0.1,2.6-113.4,8.8-113.3,11.8c0.1,2.8,115.9-0.2,116.1,3.7
	c0.2,2.8-74.9,7.9-118.7,11.7"/>
<path class="st0" d="M102.9,5.2C16.4,11.8-14.6,18.2-14.6,24c-0.1,11.3,115,29.6,121.9,10c1.8-5.2-4.5-11.5-5.6-12.7
	C75.4-5.2-9.8,32.5-7.8,45c2.3,13.9,112.9,3.8,113.4,10.7C106,62.9-9.8,72.4-9.5,79.9c0.1,3.3,23,6.9,119,8.1"/>
<path class="st0" d="M-5.8,6.4c68-1.4,109.9,0.2,110.4,6.1c1,10-118.2,27.8-117.3,34.9c1,7.2,123.8-5.3,124.6,1.2
	c0.8,6.6-125.4,23.6-124.6,34.7c0.6,7.6,60.6,9.6,120.9,9.8"/>
</svg>
