<?xml version="1.0" encoding="UTF-8"?>
<svg width="700pt" height="700pt" version="1.1" viewBox="0 0 700 700" xmlns="http://www.w3.org/2000/svg" xmlns:xlink="http://www.w3.org/1999/xlink">
 <defs>
  <symbol id="u" overflow="visible">
   <path d="m5.1719-0.3125c-0.27344 0.13672-0.55469 0.24219-0.84375 0.3125-0.28125 0.070312-0.57812 0.10938-0.89062 0.10938-0.9375 0-1.6836-0.25781-2.2344-0.78125-0.54297-0.53125-0.8125-1.2422-0.8125-2.1406 0-0.89453 0.26953-1.6016 0.8125-2.125 0.55078-0.53125 1.2969-0.79688 2.2344-0.79688 0.3125 0 0.60938 0.039063 0.89062 0.10938 0.28906 0.074219 0.57031 0.17969 0.84375 0.3125v1.1719c-0.27344-0.1875-0.53906-0.32031-0.79688-0.40625-0.26172-0.082031-0.53906-0.125-0.82812-0.125-0.51172 0-0.91797 0.16797-1.2188 0.5-0.29297 0.32422-0.4375 0.77734-0.4375 1.3594 0 0.58594 0.14453 1.043 0.4375 1.375 0.30078 0.33594 0.70703 0.5 1.2188 0.5 0.28906 0 0.56641-0.039062 0.82812-0.125 0.25781-0.09375 0.52344-0.22656 0.79688-0.40625z"/>
  </symbol>
  <symbol id="e" overflow="visible">
   <path d="m3.7812-3.0781c-0.11719-0.050781-0.23438-0.085937-0.35938-0.10938-0.11719-0.03125-0.23047-0.046875-0.34375-0.046875-0.34375 0-0.60938 0.11719-0.79688 0.34375-0.1875 0.21875-0.28125 0.53906-0.28125 0.95312v1.9375h-1.3594v-4.2188h1.3594v0.6875c0.16406-0.26953 0.36328-0.46875 0.59375-0.59375 0.22656-0.13281 0.5-0.20312 0.8125-0.20312 0.039062 0 0.085938 0.007813 0.14062 0.015625 0.050781 0 0.12891 0.007812 0.23438 0.015625z"/>
  </symbol>
  <symbol id="b" overflow="visible">
   <path d="m4.8594-2.125v0.39062h-3.1562c0.03125 0.3125 0.14453 0.55469 0.34375 0.71875 0.19531 0.15625 0.47266 0.23438 0.82812 0.23438 0.28125 0 0.56641-0.039062 0.85938-0.125 0.30078-0.09375 0.60938-0.22266 0.92188-0.39062v1.0469c-0.3125 0.11719-0.63281 0.20312-0.95312 0.26562-0.32422 0.0625-0.64062 0.09375-0.95312 0.09375-0.76172 0-1.3555-0.19141-1.7812-0.57812-0.42969-0.39453-0.64062-0.94141-0.64062-1.6406 0-0.6875 0.20703-1.2266 0.625-1.625 0.41406-0.39453 0.98828-0.59375 1.7188-0.59375 0.66406 0 1.1953 0.20312 1.5938 0.60938 0.39453 0.39844 0.59375 0.92969 0.59375 1.5938zm-1.3906-0.45312c0-0.25-0.074219-0.45312-0.21875-0.60938-0.14844-0.15625-0.33984-0.23438-0.57812-0.23438-0.27344 0-0.49219 0.074219-0.65625 0.21875-0.15625 0.14844-0.25781 0.35547-0.29688 0.625z"/>
  </symbol>
  <symbol id="d" overflow="visible">
   <path d="m2.5469-1.9062c-0.28125 0-0.49609 0.054688-0.64062 0.15625-0.14844 0.09375-0.21875 0.23438-0.21875 0.42188 0 0.16797 0.054688 0.30469 0.17188 0.40625 0.11328 0.09375 0.27344 0.14062 0.48438 0.14062 0.25 0 0.45703-0.085938 0.625-0.26562 0.17578-0.1875 0.26562-0.42188 0.26562-0.70312v-0.15625zm2.0625-0.5v2.4062h-1.375v-0.625c-0.17969 0.26172-0.38281 0.44922-0.60938 0.5625-0.21875 0.11328-0.49219 0.17188-0.8125 0.17188-0.4375 0-0.79688-0.125-1.0781-0.375-0.27344-0.25781-0.40625-0.59375-0.40625-1 0-0.5 0.17188-0.86328 0.51562-1.0938 0.34375-0.22656 0.87891-0.34375 1.6094-0.34375h0.78125v-0.10938c0-0.20703-0.085937-0.35938-0.25-0.45312-0.16797-0.10156-0.42969-0.15625-0.78125-0.15625-0.29297 0-0.5625 0.03125-0.8125 0.09375-0.25 0.054687-0.48047 0.13672-0.6875 0.25v-1.0312c0.28906-0.070313 0.58203-0.125 0.875-0.15625 0.28906-0.039063 0.58203-0.0625 0.875-0.0625 0.75781 0 1.3047 0.15234 1.6406 0.45312 0.34375 0.30469 0.51562 0.79297 0.51562 1.4688z"/>
  </symbol>
  <symbol id="c" overflow="visible">
   <path d="m2.125-5.4219v1.2031h1.3906v0.96875h-1.3906v1.7812c0 0.19922 0.035156 0.33594 0.10938 0.40625 0.082031 0.0625 0.23828 0.09375 0.46875 0.09375h0.6875v0.96875h-1.1562c-0.53125 0-0.91406-0.10938-1.1406-0.32812-0.21875-0.22656-0.32812-0.60938-0.32812-1.1406v-1.7812h-0.65625v-0.96875h0.65625v-1.2031z"/>
  </symbol>
  <symbol id="k" overflow="visible">
   <path d="m3.5156-3.6094v-2.25h1.3594v5.8594h-1.3594v-0.60938c-0.1875 0.25-0.39062 0.43359-0.60938 0.54688-0.21875 0.11328-0.48047 0.17188-0.78125 0.17188-0.52344 0-0.94922-0.20312-1.2812-0.60938-0.33594-0.41406-0.5-0.95312-0.5-1.6094 0-0.64453 0.16406-1.1758 0.5-1.5938 0.33203-0.41406 0.75781-0.625 1.2812-0.625 0.28906 0 0.54688 0.0625 0.76562 0.1875 0.22656 0.11719 0.4375 0.29297 0.625 0.53125zm-0.89062 2.7344c0.28906 0 0.50781-0.10156 0.65625-0.3125 0.15625-0.20703 0.23438-0.51562 0.23438-0.92188 0-0.39453-0.078125-0.69531-0.23438-0.90625-0.14844-0.21875-0.36719-0.32812-0.65625-0.32812-0.28125 0-0.5 0.10938-0.65625 0.32812-0.14844 0.21094-0.21875 0.51172-0.21875 0.90625 0 0.40625 0.070312 0.71484 0.21875 0.92188 0.15625 0.21094 0.375 0.3125 0.65625 0.3125z"/>
  </symbol>
  <symbol id="j" overflow="visible">
   <path d="m2.8906-0.875c0.28906 0 0.50781-0.10156 0.65625-0.3125 0.15625-0.20703 0.23438-0.51562 0.23438-0.92188 0-0.39453-0.078125-0.69531-0.23438-0.90625-0.14844-0.21875-0.36719-0.32812-0.65625-0.32812-0.28125 0-0.5 0.10938-0.65625 0.32812-0.15625 0.21094-0.23438 0.51172-0.23438 0.90625 0 0.40625 0.078125 0.71484 0.23438 0.92188 0.15625 0.21094 0.375 0.3125 0.65625 0.3125zm-0.89062-2.7344c0.1875-0.23828 0.39062-0.41406 0.60938-0.53125 0.22656-0.125 0.48828-0.1875 0.78125-0.1875 0.51953 0 0.94531 0.21094 1.2812 0.625 0.33203 0.41797 0.5 0.94922 0.5 1.5938 0 0.65625-0.16797 1.1953-0.5 1.6094-0.33594 0.40625-0.76172 0.60938-1.2812 0.60938-0.29297 0-0.55469-0.058594-0.78125-0.17188-0.21875-0.11328-0.42188-0.29688-0.60938-0.54688v0.60938h-1.3594v-5.8594h1.3594z"/>
  </symbol>
  <symbol id="g" overflow="visible">
   <path d="m0.09375-4.2188h1.3438l1.1406 2.8594 0.96875-2.8594h1.3438l-1.7812 4.625c-0.17969 0.46875-0.38672 0.79688-0.625 0.98438-0.23047 0.1875-0.54297 0.28125-0.9375 0.28125h-0.78125v-0.89062h0.42188c0.22656 0 0.39453-0.039062 0.5-0.10938 0.10156-0.074219 0.1875-0.20312 0.25-0.39062l0.03125-0.125z"/>
  </symbol>
  <symbol id="i" overflow="visible">
   <path d="m5.7656-0.42188c-0.36719 0.17969-0.74219 0.3125-1.125 0.40625-0.38672 0.082031-0.78906 0.125-1.2031 0.125-0.9375 0-1.6836-0.25781-2.2344-0.78125-0.54297-0.53125-0.8125-1.2422-0.8125-2.1406 0-0.90625 0.27344-1.6172 0.82812-2.1406 0.5625-0.51953 1.3281-0.78125 2.2969-0.78125 0.375 0 0.73438 0.039063 1.0781 0.10938 0.34375 0.074219 0.66406 0.17969 0.96875 0.3125v1.1719c-0.3125-0.17578-0.625-0.30469-0.9375-0.39062-0.3125-0.09375-0.625-0.14062-0.9375-0.14062-0.57422 0-1.0156 0.16406-1.3281 0.48438-0.3125 0.32422-0.46875 0.78125-0.46875 1.375s0.14453 1.0586 0.4375 1.3906c0.30078 0.32422 0.73438 0.48438 1.2969 0.48438 0.14453 0 0.28125-0.007812 0.40625-0.03125 0.13281-0.019531 0.25391-0.050781 0.35938-0.09375v-1.0938h-0.89062v-0.96875h2.2656z"/>
  </symbol>
  <symbol id="f" overflow="visible">
   <path d="m4.8906-2.5781v2.5781h-1.3594v-1.9688c0-0.36328-0.011719-0.61328-0.03125-0.75-0.011719-0.13281-0.039062-0.23828-0.078125-0.3125-0.054687-0.082031-0.125-0.14844-0.21875-0.20312-0.085937-0.050781-0.18359-0.078125-0.29688-0.078125-0.28125 0-0.50781 0.10938-0.67188 0.32812-0.15625 0.21875-0.23438 0.52344-0.23438 0.90625v2.0781h-1.3594v-4.2188h1.3594v0.60938c0.19531-0.23828 0.41016-0.41406 0.64062-0.53125 0.22656-0.125 0.48438-0.1875 0.76562-0.1875 0.48828 0 0.85938 0.15234 1.1094 0.45312 0.25 0.30469 0.375 0.73438 0.375 1.2969z"/>
  </symbol>
  <symbol id="t" overflow="visible">
   <path d="m0.70312-5.625h1.4531v2.0469l2.0938-2.0469h1.6875l-2.7188 2.6562 3 2.9688h-1.8281l-2.2344-2.2188v2.2188h-1.4531z"/>
  </symbol>
  <symbol id="h" overflow="visible">
   <path d="m4.8906-2.5781v2.5781h-1.3594v-1.9531c0-0.375-0.011719-0.62891-0.03125-0.76562-0.011719-0.13281-0.039062-0.23828-0.078125-0.3125-0.054687-0.082031-0.125-0.14844-0.21875-0.20312-0.085937-0.050781-0.18359-0.078125-0.29688-0.078125-0.28125 0-0.50781 0.10938-0.67188 0.32812-0.15625 0.21875-0.23438 0.52344-0.23438 0.90625v2.0781h-1.3594v-5.8594h1.3594v2.25c0.19531-0.23828 0.41016-0.41406 0.64062-0.53125 0.22656-0.125 0.48438-0.1875 0.76562-0.1875 0.48828 0 0.85938 0.15234 1.1094 0.45312 0.25 0.30469 0.375 0.73438 0.375 1.2969z"/>
  </symbol>
  <symbol id="a" overflow="visible">
   <path d="m2.6562-3.3594c-0.30469 0-0.53125 0.10938-0.6875 0.32812-0.15625 0.21094-0.23438 0.51562-0.23438 0.92188s0.078125 0.71875 0.23438 0.9375c0.15625 0.21094 0.38281 0.3125 0.6875 0.3125 0.28906 0 0.51562-0.10156 0.67188-0.3125 0.15625-0.21875 0.23438-0.53125 0.23438-0.9375s-0.078125-0.71094-0.23438-0.92188c-0.15625-0.21875-0.38281-0.32812-0.67188-0.32812zm0-0.96875c0.72656 0 1.2969 0.19922 1.7031 0.59375 0.40625 0.39844 0.60938 0.9375 0.60938 1.625 0 0.69922-0.20312 1.2461-0.60938 1.6406-0.40625 0.38672-0.97656 0.57812-1.7031 0.57812-0.73047 0-1.3047-0.19141-1.7188-0.57812-0.40625-0.39453-0.60938-0.94141-0.60938-1.6406 0-0.6875 0.20312-1.2266 0.60938-1.625 0.41406-0.39453 0.98828-0.59375 1.7188-0.59375z"/>
  </symbol>
  <symbol id="s" overflow="visible">
   <path d="m0.70312-5.625h1.4531v4.5312h2.5469v1.0938h-4z"/>
  </symbol>
  <symbol id="r" overflow="visible">
   <path d="m3.4219-5.8594v0.875h-0.73438c-0.19922 0-0.33594 0.039063-0.40625 0.10938-0.074219 0.074219-0.10938 0.19531-0.10938 0.35938v0.29688h1.1562v0.96875h-1.1562v3.25h-1.3594v-3.25h-0.67188v-0.96875h0.67188v-0.29688c0-0.45703 0.12891-0.79688 0.39062-1.0156 0.25781-0.21875 0.65625-0.32812 1.1875-0.32812z"/>
  </symbol>
  <symbol id="q" overflow="visible">
   <path d="m4.5625-3.5156c0.16406-0.25781 0.36328-0.45703 0.59375-0.59375 0.23828-0.14453 0.5-0.21875 0.78125-0.21875 0.48828 0 0.85938 0.15234 1.1094 0.45312 0.25781 0.30469 0.39062 0.73438 0.39062 1.2969v2.5781h-1.3594v-2.2031-0.09375-0.15625c0-0.30078-0.046875-0.51953-0.14062-0.65625-0.085938-0.13281-0.21875-0.20312-0.40625-0.20312-0.26172 0-0.46484 0.10938-0.60938 0.32812-0.13672 0.21094-0.20312 0.51172-0.20312 0.90625v2.0781h-1.3594v-2.2031c0-0.46875-0.042969-0.76953-0.125-0.90625-0.085937-0.13281-0.22656-0.20312-0.42188-0.20312-0.26172 0-0.46484 0.10938-0.60938 0.32812-0.13672 0.21094-0.20312 0.51172-0.20312 0.90625v2.0781h-1.3594v-4.2188h1.3594v0.60938c0.16406-0.23828 0.35156-0.41406 0.5625-0.53125 0.21875-0.125 0.45703-0.1875 0.71875-0.1875 0.28906 0 0.54688 0.074219 0.76562 0.21875 0.22656 0.13672 0.39844 0.33594 0.51562 0.59375z"/>
  </symbol>
  <symbol id="p" overflow="visible">
   <path d="m0.70312-5.625h1.625l2.0469 3.8594v-3.8594h1.375v5.625h-1.625l-2.0469-3.8594v3.8594h-1.375z"/>
  </symbol>
  <symbol id="o" overflow="visible">
   <path d="m0.60938-1.6406v-2.5781h1.3438v0.42188 0.85938 0.6875c0 0.34375 0.003906 0.59375 0.015625 0.75 0.019531 0.14844 0.050781 0.25 0.09375 0.3125 0.0625 0.085938 0.13281 0.15234 0.21875 0.20312 0.09375 0.054687 0.19531 0.078125 0.3125 0.078125 0.28125 0 0.5-0.10938 0.65625-0.32812 0.16406-0.21875 0.25-0.51953 0.25-0.90625v-2.0781h1.3438v4.2188h-1.3438v-0.60938c-0.21094 0.25-0.42969 0.43359-0.65625 0.54688-0.21875 0.11328-0.46875 0.17188-0.75 0.17188-0.48047 0-0.85156-0.14453-1.1094-0.4375-0.25-0.30078-0.375-0.73828-0.375-1.3125z"/>
  </symbol>
  <symbol id="n" overflow="visible">
   <path d="m0.70312-5.625h2.4062c0.71875 0 1.2695 0.16406 1.6562 0.48438 0.38281 0.3125 0.57812 0.76172 0.57812 1.3438 0 0.59375-0.19531 1.0547-0.57812 1.375-0.38672 0.3125-0.9375 0.46875-1.6562 0.46875h-0.95312v1.9531h-1.4531zm1.4531 1.0469v1.5781h0.8125c0.28125 0 0.49219-0.066406 0.64062-0.20312 0.15625-0.14453 0.23438-0.34375 0.23438-0.59375s-0.078125-0.44141-0.23438-0.57812c-0.14844-0.13281-0.35938-0.20312-0.64062-0.20312z"/>
  </symbol>
  <symbol id="m" overflow="visible">
   <path d="m0.64062-4.2188h1.3594v4.1406c0 0.5625-0.13672 0.99219-0.40625 1.2969-0.27344 0.30078-0.66797 0.45312-1.1875 0.45312h-0.65625v-0.89062h0.23438c0.25 0 0.42188-0.058594 0.51562-0.17188 0.09375-0.11719 0.14062-0.34375 0.14062-0.6875zm0-1.6406h1.3594v1.0938h-1.3594z"/>
  </symbol>
  <symbol id="l" overflow="visible">
   <path d="m4.0625-4.0938v1.1094c-0.1875-0.125-0.375-0.21875-0.5625-0.28125-0.17969-0.0625-0.36719-0.09375-0.5625-0.09375-0.38672 0-0.68359 0.10938-0.89062 0.32812-0.21094 0.21875-0.3125 0.52734-0.3125 0.92188 0 0.39844 0.10156 0.70312 0.3125 0.92188 0.20703 0.21875 0.50391 0.32812 0.89062 0.32812 0.20703 0 0.40625-0.03125 0.59375-0.09375s0.36328-0.15625 0.53125-0.28125v1.1094c-0.21094 0.085938-0.42188 0.14062-0.64062 0.17188-0.21875 0.039062-0.4375 0.0625-0.65625 0.0625-0.76172 0-1.3594-0.19141-1.7969-0.57812-0.42969-0.39453-0.64062-0.94141-0.64062-1.6406 0-0.69531 0.21094-1.2383 0.64062-1.625 0.4375-0.39453 1.0352-0.59375 1.7969-0.59375 0.21875 0 0.42969 0.023437 0.64062 0.0625 0.21875 0.042969 0.4375 0.10156 0.65625 0.17188z"/>
  </symbol>
 </defs>
 <g>
  <path d="m604.27 421.95c-65.371 11.414-155.12 18.418-254.27 18.422-122.04-0.023438-229.71-10.574-295.45-27.012-13.062-3.2852-24.453-6.7734-34.105-10.547-3.6016 1.582-6.7734 3.1758-9.4492 4.7578-5.6523 3.2773-9.0117 6.5508-10.191 8.6836-0.65234 1.1484-0.79297 1.8672-0.80078 2.5156 0.0078125 0.64453 0.14844 1.3633 0.80078 2.5117 0.65234 1.125 1.8672 2.6016 3.7578 4.2148 3.7773 3.25 10.191 6.9336 18.781 10.465 17.207 7.125 43.02 13.812 75.043 19.398 64.098 11.203 153.21 18.195 251.62 18.188 121.06 0.019531 228.16-10.609 291.7-26.551 21.137-5.2695 37.449-11.219 47.305-17.039 5.6523-3.2812 9.0117-6.5508 10.191-8.6836 0.65625-1.1484 0.79297-1.8672 0.80078-2.5117-0.007812-0.64844-0.14844-1.3633-0.80078-2.5156-0.65234-1.125-1.8672-2.6055-3.7617-4.2148-3.3359-2.8711-8.7383-6.082-15.879-9.2305-18.754 7.332-44.25 13.715-75.285 19.148z"/>
  <path d="m10.992 358.96c-5.6523 3.2773-9.0117 6.5508-10.191 8.6836-0.65234 1.1484-0.79297 1.8672-0.80078 2.5156 0.0078125 0.64453 0.14844 1.3633 0.80078 2.5117 0.65234 1.125 1.8672 2.6016 3.7578 4.2148 3.7773 3.25 10.191 6.9336 18.781 10.465 17.207 7.125 43.02 13.812 75.043 19.398 64.098 11.203 153.21 18.195 251.62 18.188 121.06 0.019531 228.16-10.609 291.7-26.551 21.137-5.2695 37.449-11.219 47.305-17.039 5.6523-3.2812 9.0117-6.5508 10.191-8.6836 0.65625-1.1484 0.79297-1.8672 0.80078-2.5117-0.007812-0.64844-0.14844-1.3633-0.80078-2.5156-0.65234-1.125-1.8672-2.6055-3.7617-4.2148-3.3359-2.8711-8.7383-6.082-15.879-9.2305-18.754 7.3281-44.254 13.707-75.289 19.141-65.371 11.418-155.12 18.422-254.27 18.422-122.04-0.023437-229.71-10.578-295.45-27.016-13.059-3.2812-24.453-6.7695-34.105-10.547-3.5938 1.5977-6.7695 3.1875-9.4453 4.7695z"/>
  <path d="m246.12 269.46c-0.77344 2.1523-1.8086 4.0391-4.0234 4.0391h-1.3906l-1.0195-1.0977c-0.55859-0.63281-0.84766-1.3711-0.91797-2.5352-9.5078 0.54688-18.852 1.1562-27.984 1.8359 7.9375 6.3633 18.258 12.305 30.598 17.555 0.49609 0.21484 0.97266 0.46094 1.4336 0.72656 0.074219-0.003907 0.14844-0.007813 0.21875-0.007813 4.7461-7.2461 9.6328-14.281 14.652-21.094-3.8867 0.17969-7.7383 0.375-11.566 0.57812z"/>
  <path d="m195.2 292.85c-3.2266-2.5391-6.1914-5.1641-8.9023-7.8711-1.168 2.9141-2.2539 5.8672-3.2305 8.8359 3.9609-0.33203 8.0117-0.65234 12.133-0.96484z"/>
  <path d="m154.44 327.67c12.379 2.5 18.176 2.4844 21.211-14.594 0.94531-10.141 4.2578-20.594 8.3086-30.508-2.3594-2.543-4.5078-5.1484-6.4219-7.8281-9.9766-13.934-10.984-26.125-10.957-30.719 0-2.0508 0.17969-3.4531 0.28516-4.1055 1.043-6.3711 6.4805-11 12.934-11 0.70703 0 1.4219 0.058594 2.1289 0.17188 6.9336 1.1328 11.797 7.6797 10.895 14.629-0.003907 0.074218-0.007813 0.17969-0.007813 0.32422 0.054688 3.4844 1.3555 7.5469 3.6992 11.703 0.51172-1.0352 1.0117-2.0469 1.4922-3.0352 6.8203-11.188 5.3047-26.652-5.5625-31.68-10.871-5.0273-28.918-2.9961-40.047 13.23-15.16 22.395-21.035 37.828-24.148 65.395-0.56641 20.336 13.809 25.516 26.191 28.016z"/>
  <path d="m235.83 176.79c0 18.062-14.645 32.707-32.711 32.707s-32.711-14.645-32.711-32.707c0-18.066 14.645-32.711 32.711-32.711s32.711 14.645 32.711 32.711"/>
  <path d="m305.4 262.56c-9.4727 8.2969-8.1289 9.7461 2.4727 3.5977 33.262-19.805 70.25-19.984 106.46-12.617 11.855 2.1797 22.457-2.5664 23.422-11.031 0.95703-8.3984-8.5352-15.539-21.328-15.387-19.547 0.35938-39.828 1.5664-59.305 7.2617-19.555 5.4141-37.012 15.793-51.727 28.176z"/>
  <path d="m406.84 185.49c1.6992-8.2617-16.746-16.621-36.895-9.1055-29.91 11.121-52.863 30.652-73.301 51.145-19.391 19.867-36.289 41.574-51.227 64.426 1.1914 1.168 2.1562 2.5586 2.8398 4.1289 17.828-20.938 37.449-40.332 58.703-57.074 21.719-16.945 45.809-31.75 70.477-37.207 15.461-3.625 27.914-7.7148 29.402-16.312z"/>
  <path d="m259.3 307.43c-6.8789 8.1914-5.0039 8.5273 2.2266 2.6914 25.902-14.438 58.074-16.84 86.168-13.977 9.0156 1.125 16.77-2.1328 18.305-8.8359 1.5273-6.5547-6.8047-13.105-17.777-12.359-32.527 3.1133-64.207 11.887-88.922 32.48z"/>
  <path d="m242.06 266.37c-0.66797 5.3164 0.13672 5.3086 1.6953 0.42578 5.4219-14.988 15.477-27.75 27.812-36.387 3.9141-2.8359 5.9492-6.9141 4.0312-9.8398-1.7891-2.7656-7.0469-2.2812-10.961 1.8164-12.02 12.277-19.918 27.867-22.578 43.984z"/>
  <path d="m240.17 292.09c-25.094-10.676-37.535-22.055-43.781-30.809-6.2266-8.7773-6.6172-15.16-6.6523-17.25 0-0.32031 0.015625-0.52734 0.019531-0.61719v-0.011719c0.75-5.3789-2.9336-10.398-8.3242-11.281-5.4688-0.89453-10.621 2.8164-11.516 8.2852v-0.003906c-0.078124 0.47656-0.24609 1.7266-0.24609 3.625-0.035157 5.457 1.5078 16.52 10.383 28.902 8.8477 12.406 24.68 25.898 52.262 37.617 1.2812 0.54297 2.6094 0.80078 3.918 0.80078 3.9023 0 7.6133-2.2891 9.2383-6.1094 2.1719-5.0898-0.20312-10.977-5.3008-13.148z"/>
  <path d="m501.8 240.95c0.83984-6.4688 6.4219-11.387 12.992-11.387 0.48438 0 0.97266 0.027344 1.4648 0.082031 3.4805 0.38281 6.6016 2.1055 8.793 4.8398 2.1875 2.7344 3.1836 6.1641 2.793 9.6445-0.44531 3.4453-2.293 12.254-10.059 21.23-5.9336 6.9258-20.121 18.57-48.371 18.57h-0.30469l-0.24219-0.003907c-5.4727-0.003906-11.363-0.41797-17.516-1.2305-3.4727-0.46094-6.5625-2.2461-8.6914-5.0312-1.9648-2.5703-2.8828-5.7031-2.6562-8.8984-28.742-1.3086-58.91-2.0078-90.004-2.0039h-0.34766c-12.578 0-24.996 0.12109-37.238 0.34375-0.99219 0.55078-1.9805 1.1133-2.9609 1.6953-6.4102 3.7148-8.582 4.2148-9.8711 4.2148-1.8906 0-3-1.1602-3.4062-2.2422-0.39062-1.043-0.32812-2.0625 0.35156-3.3164-6.0117 0.16016-11.973 0.34375-17.879 0.55469-6.918 6.7422-13.715 13.863-20.379 21.301 8.1758-0.32031 16.52-0.59766 25.02-0.83203 18.043-8.707 39.418-14.195 64.645-16.605 0.73438-0.050781 1.375-0.070312 2.0078-0.070312 6.9102 0 13.336 2.6836 16.77 7.0117 2.1289 2.6836 2.9492 5.8047 2.3594 8.832 54.461 0.41406 104.62 2.5859 146.03 6.0117 2.0781 6.4492 3.6328 12.988 4.2305 19.406 3.0352 17.082 8.832 17.094 21.211 14.594 12.383-2.5 26.758-7.6797 26.191-28.016-0.015625-0.15234-0.035157-0.29297-0.054688-0.44141 38.617 5.3633 61.754 12.191 61.754 19.625 0 17.258-124.66 31.25-278.42 31.25-153.77 0-278.42-13.992-278.42-31.25 0-6.8945 19.902-13.266 53.586-18.434 0.003906-0.28125-0.007813-0.54688 0-0.83203l0.003906-0.12891 0.011719-0.12891c0.78906-6.9609 1.7617-13.195 3.0195-19-26.824 3.7344-50.422 8.1211-69.906 13.012-21.137 5.2695-37.453 11.219-47.305 17.035-5.6523 3.2812-9.0117 6.5547-10.191 8.6875-0.65625 1.1484-0.79297 1.8633-0.80078 2.5156 0.0078126 0.64453 0.14844 1.3633 0.80078 2.5078 0.65234 1.1289 1.8672 2.6055 3.7578 4.2148 3.7773 3.25 10.191 6.9375 18.781 10.469 17.207 7.1211 43.02 13.812 75.043 19.395 64.098 11.207 153.21 18.199 251.62 18.191 121.05 0.019531 228.16-10.609 291.7-26.551 21.137-5.2734 37.449-11.223 47.305-17.039 5.6523-3.2812 9.0117-6.5547 10.191-8.6875 0.65625-1.1484 0.79297-1.8633 0.80078-2.5078-0.007812-0.65234-0.14844-1.3672-0.80078-2.5156-0.64844-1.1289-1.8633-2.6016-3.7578-4.2148-3.7773-3.25-10.188-6.9375-18.777-10.469-17.203-7.125-43.02-13.812-75.043-19.395-11.922-2.0859-24.715-4.0234-38.266-5.7969-1.3242-5.7383-2.9492-11.031-4.9883-16.188-3.6914-9.3477-8.7227-18.277-15.785-28.711-11.129-16.227-29.176-18.258-40.047-13.23-10.121 4.6836-12.121 18.41-6.8438 29.312 0.5625-0.46484 1.1133-0.94922 1.625-1.457 3.75-3.8242 4.4766-7.8906 4.4805-7.9336z"/>
  <path d="m524.56 176.79c0 18.062-14.645 32.707-32.711 32.707-18.066 0-32.711-14.645-32.711-32.707 0-18.066 14.645-32.711 32.711-32.711 18.066 0 32.711 14.645 32.711 32.711"/>
  <path d="m454.39 259.75c-5.4922-0.73047-10.539 3.1328-11.262 8.625-0.73047 5.4922 3.1328 10.539 8.625 11.266 6.1719 0.81641 11.859 1.1992 17.109 1.207h0.54687c23.219 0 38.082-8.2148 46.035-17.504 8.0469-9.2969 9.1719-18.359 9.3242-19.551 0.61328-5.5039-3.3555-10.465-8.8594-11.078-5.4492-0.60547-10.359 3.2656-11.055 8.6797-0.035156 0.30078-0.94922 5.1758-5.3672 9.6719-4.4453 4.4453-12.551 9.6133-30.625 9.7109-4.2695 0.003906-9.0781-0.3125-14.473-1.0273z"/>
 
 </g>
</svg>
