<?xml version="1.0" encoding="UTF-8"?>
<svg width="700pt" height="700pt" version="1.1" viewBox="0 0 700 700" xmlns="http://www.w3.org/2000/svg" xmlns:xlink="http://www.w3.org/1999/xlink">
 <defs>
  <symbol id="m" overflow="visible">
   <path d="m29.312-1.75c-1.5117 0.78125-3.0898 1.3711-4.7344 1.7656-1.6367 0.40625-3.3398 0.60938-5.1094 0.60938-5.3125 0-9.5273-1.4844-12.641-4.4531-3.1055-2.9688-4.6562-7-4.6562-12.094s1.5508-9.125 4.6562-12.094c3.1133-2.9688 7.3281-4.4531 12.641-4.4531 1.7695 0 3.4727 0.19922 5.1094 0.59375 1.6445 0.39844 3.2227 0.99219 4.7344 1.7812v6.5938c-1.5312-1.0391-3.0391-1.8008-4.5156-2.2812-1.4805-0.48828-3.0391-0.73438-4.6719-0.73438-2.9375 0-5.2461 0.94531-6.9219 2.8281-1.6797 1.875-2.5156 4.4648-2.5156 7.7656 0 3.293 0.83594 5.8828 2.5156 7.7656 1.6758 1.875 3.9844 2.8125 6.9219 2.8125 1.6328 0 3.1914-0.23828 4.6719-0.71875 1.4766-0.48828 2.9844-1.2539 4.5156-2.2969z"/>
  </symbol>
  <symbol id="h" overflow="visible">
   <path d="m21.453-17.406c-0.67969-0.3125-1.3516-0.53906-2.0156-0.6875-0.65625-0.15625-1.3203-0.23438-1.9844-0.23438-1.9688 0-3.4844 0.63281-4.5469 1.8906-1.0547 1.2617-1.5781 3.0703-1.5781 5.4219v11.016h-7.6562v-23.922h7.6562v3.9219c0.97656-1.5625 2.1016-2.7031 3.375-3.4219 1.2812-0.71875 2.8125-1.0781 4.5938-1.0781 0.25 0 0.52344 0.011719 0.82812 0.03125 0.30078 0.023438 0.73438 0.070312 1.2969 0.14062z"/>
  </symbol>
  <symbol id="e" overflow="visible">
   <path d="m27.562-12.031v2.1875h-17.891c0.1875 1.793 0.83203 3.1367 1.9375 4.0312 1.1133 0.89844 2.6719 1.3438 4.6719 1.3438 1.6016 0 3.25-0.23438 4.9375-0.70312 1.6875-0.47656 3.4219-1.2031 5.2031-2.1719v5.8906c-1.8047 0.6875-3.6094 1.2031-5.4219 1.5469-1.8125 0.35156-3.6211 0.53125-5.4219 0.53125-4.3359 0-7.7031-1.0977-10.109-3.2969-2.3984-2.207-3.5938-5.2969-3.5938-9.2656 0-3.9062 1.1758-6.9727 3.5312-9.2031 2.3633-2.2383 5.6094-3.3594 9.7344-3.3594 3.7578 0 6.7695 1.1367 9.0312 3.4062 2.2578 2.2617 3.3906 5.2812 3.3906 9.0625zm-7.8594-2.5312c0-1.457-0.42969-2.6289-1.2812-3.5156-0.84375-0.89453-1.9492-1.3438-3.3125-1.3438-1.4922 0-2.6992 0.41797-3.625 1.25-0.91797 0.83594-1.4922 2.0391-1.7188 3.6094z"/>
  </symbol>
  <symbol id="d" overflow="visible">
   <path d="m14.391-10.766c-1.5938 0-2.793 0.27344-3.5938 0.8125-0.80469 0.54297-1.2031 1.3398-1.2031 2.3906 0 0.96875 0.32031 1.7305 0.96875 2.2812 0.64453 0.54297 1.5469 0.8125 2.7031 0.8125 1.4375 0 2.6445-0.51562 3.625-1.5469 0.98828-1.0312 1.4844-2.3203 1.4844-3.875v-0.875zm11.688-2.8906v13.656h-7.7031v-3.5469c-1.0312 1.4492-2.1875 2.5078-3.4688 3.1719s-2.8398 1-4.6719 1c-2.4805 0-4.4961-0.72266-6.0469-2.1719-1.543-1.4453-2.3125-3.3203-2.3125-5.625 0-2.8125 0.96094-4.8672 2.8906-6.1719 1.9375-1.3125 4.9688-1.9688 9.0938-1.9688h4.5156v-0.60938c0-1.207-0.48047-2.0938-1.4375-2.6562-0.94922-0.5625-2.4375-0.84375-4.4688-0.84375-1.6367 0-3.1562 0.16797-4.5625 0.5-1.4062 0.32422-2.7188 0.8125-3.9375 1.4688v-5.8281c1.6445-0.40625 3.2891-0.70703 4.9375-0.90625 1.6562-0.20703 3.3047-0.3125 4.9531-0.3125 4.3203 0 7.4375 0.85547 9.3438 2.5625 1.9141 1.6992 2.875 4.4609 2.875 8.2812z"/>
  </symbol>
  <symbol id="c" overflow="visible">
   <path d="m12.031-30.719v6.7969h7.875v5.4688h-7.875v10.141c0 1.1172 0.21875 1.8711 0.65625 2.2656 0.4375 0.38672 1.3125 0.57812 2.625 0.57812h3.9375v5.4688h-6.5625c-3.0234 0-5.1641-0.62891-6.4219-1.8906-1.2617-1.2578-1.8906-3.3984-1.8906-6.4219v-10.141h-3.7969v-5.4688h3.7969v-6.7969z"/>
  </symbol>
  <symbol id="b" overflow="visible">
   <path d="m19.953-20.422v-12.812h7.6875v33.234h-7.6875v-3.4531c-1.0547 1.4062-2.2148 2.4375-3.4844 3.0938-1.2734 0.65625-2.7422 0.98438-4.4062 0.98438-2.9492 0-5.3711-1.1719-7.2656-3.5156-1.8867-2.3438-2.8281-5.3594-2.8281-9.0469s0.94141-6.7031 2.8281-9.0469c1.8945-2.3438 4.3164-3.5156 7.2656-3.5156 1.6562 0 3.1172 0.33594 4.3906 1 1.2812 0.65625 2.4453 1.6836 3.5 3.0781zm-5.0469 15.484c1.6445 0 2.8945-0.59766 3.75-1.7969 0.86328-1.1953 1.2969-2.9297 1.2969-5.2031 0-2.2812-0.43359-4.0195-1.2969-5.2188-0.85547-1.1953-2.1055-1.7969-3.75-1.7969-1.625 0-2.8711 0.60156-3.7344 1.7969-0.85547 1.1992-1.2812 2.9375-1.2812 5.2188 0 2.2734 0.42578 4.0078 1.2812 5.2031 0.86328 1.1992 2.1094 1.7969 3.7344 1.7969z"/>
  </symbol>
  <symbol id="g" overflow="visible">
   <path d="m16.406-4.9375c1.6328 0 2.8828-0.59766 3.75-1.7969 0.86328-1.1953 1.2969-2.9297 1.2969-5.2031 0-2.2812-0.43359-4.0195-1.2969-5.2188-0.86719-1.1953-2.1172-1.7969-3.75-1.7969-1.6367 0-2.8906 0.60547-3.7656 1.8125-0.875 1.1992-1.3125 2.9336-1.3125 5.2031 0 2.2617 0.4375 3.9961 1.3125 5.2031 0.875 1.1992 2.1289 1.7969 3.7656 1.7969zm-5.0781-15.484c1.0508-1.3945 2.2188-2.4219 3.5-3.0781 1.2812-0.66406 2.7539-1 4.4219-1 2.9453 0 5.3672 1.1719 7.2656 3.5156 1.8945 2.3438 2.8438 5.3594 2.8438 9.0469s-0.94922 6.7031-2.8438 9.0469c-1.8984 2.3438-4.3203 3.5156-7.2656 3.5156-1.668 0-3.1406-0.33594-4.4219-1s-2.4492-1.6914-3.5-3.0781v3.4531h-7.6562v-33.234h7.6562z"/>
  </symbol>
  <symbol id="a" overflow="visible">
   <path d="m0.53125-23.922h7.6562l6.4219 16.234 5.4688-16.234h7.6562l-10.062 26.188c-1.0117 2.6641-2.1953 4.5234-3.5469 5.5781-1.3438 1.0625-3.1211 1.5938-5.3281 1.5938h-4.4219v-5.0156h2.3906c1.3008 0 2.2422-0.21094 2.8281-0.625 0.59375-0.40625 1.0547-1.1484 1.3906-2.2188l0.20312-0.65625z"/>
  </symbol>
  <symbol id="f" overflow="visible">
   <path d="m16.797-19.547c1.2891 0 2.2695-0.28125 2.9375-0.84375 0.67578-0.57031 1.0156-1.4141 1.0156-2.5312 0-1.0938-0.33984-1.9258-1.0156-2.5-0.66797-0.58203-1.6484-0.875-2.9375-0.875h-4.5625v6.75zm0.26562 13.953c1.6562 0 2.8984-0.34766 3.7344-1.0469 0.83203-0.69531 1.25-1.7539 1.25-3.1719 0-1.375-0.41797-2.4062-1.25-3.0938-0.82422-0.69531-2.0703-1.0469-3.7344-1.0469h-4.8281v8.3594zm7.6562-11.469c1.7578 0.51172 3.125 1.4609 4.0938 2.8438 0.96875 1.375 1.4531 3.0703 1.4531 5.0781 0 3.0742-1.043 5.3672-3.125 6.875-2.0742 1.5117-5.2305 2.2656-9.4688 2.2656h-13.656v-31.891h12.344c4.4258 0 7.6328 0.67188 9.625 2.0156 1.9883 1.3359 2.9844 3.4766 2.9844 6.4219 0 1.5547-0.36719 2.875-1.0938 3.9688-0.73047 1.0859-1.7812 1.8906-3.1562 2.4219z"/>
  </symbol>
  <symbol id="l" overflow="visible">
   <path d="m3.4219-9.3125v-14.609h7.6875v2.3906c0 1.293-0.011719 2.918-0.03125 4.875-0.011719 1.9609-0.015625 3.2656-0.015625 3.9219 0 1.9297 0.046875 3.3125 0.14062 4.1562 0.10156 0.84375 0.28125 1.4609 0.53125 1.8438 0.3125 0.5 0.71875 0.88672 1.2188 1.1562 0.50781 0.27344 1.0938 0.40625 1.75 0.40625 1.5938 0 2.8438-0.60938 3.75-1.8281 0.91406-1.2266 1.375-2.9297 1.375-5.1094v-11.812h7.6406v23.922h-7.6406v-3.4531c-1.1562 1.3867-2.3828 2.4141-3.6719 3.0781-1.2812 0.66406-2.6992 1-4.25 1-2.7734 0-4.8828-0.84766-6.3281-2.5469-1.4375-1.6953-2.1562-4.1602-2.1562-7.3906z"/>
  </symbol>
  <symbol id="k" overflow="visible">
   <path d="m3.6719-23.922h7.6562v23.922h-7.6562zm0-9.3125h7.6562v6.2344h-7.6562z"/>
  </symbol>
  <symbol id="j" overflow="visible">
   <path d="m27.734-14.562v14.562h-7.7031v-11.156c0-2.0625-0.046875-3.4844-0.14062-4.2656-0.085937-0.78125-0.24219-1.3594-0.46875-1.7344-0.30469-0.5-0.71094-0.88281-1.2188-1.1562-0.51172-0.28125-1.0938-0.42188-1.75-0.42188-1.5938 0-2.8516 0.61719-3.7656 1.8438-0.90625 1.2305-1.3594 2.9375-1.3594 5.125v11.766h-7.6562v-23.922h7.6562v3.5c1.1445-1.3945 2.3633-2.4219 3.6562-3.0781 1.3008-0.66406 2.7383-1 4.3125-1 2.7578 0 4.8516 0.85156 6.2812 2.5469 1.4375 1.6875 2.1562 4.1523 2.1562 7.3906z"/>
  </symbol>
  <symbol id="i" overflow="visible">
   <path d="m15.062-19.031c-1.6992 0-2.9961 0.60938-3.8906 1.8281-0.88672 1.2188-1.3281 2.9766-1.3281 5.2656 0 2.293 0.44141 4.0469 1.3281 5.2656 0.89453 1.2188 2.1914 1.8281 3.8906 1.8281 1.6641 0 2.9375-0.60938 3.8125-1.8281 0.88281-1.2188 1.3281-2.9727 1.3281-5.2656 0-2.2891-0.44531-4.0469-1.3281-5.2656-0.875-1.2188-2.1484-1.8281-3.8125-1.8281zm0-5.4688c4.1133 0 7.3281 1.1094 9.6406 3.3281s3.4688 5.2969 3.4688 9.2344c0 3.9297-1.1562 7.0078-3.4688 9.2344-2.3125 2.2188-5.5273 3.3281-9.6406 3.3281-4.1367 0-7.3711-1.1094-9.7031-3.3281-2.3242-2.2266-3.4844-5.3047-3.4844-9.2344 0-3.9375 1.1602-7.0156 3.4844-9.2344 2.332-2.2188 5.5664-3.3281 9.7031-3.3281z"/>
  </symbol>
 </defs>
 <g>
  <path d="m377.39 190.41h1.3047l0.74219-63.34h-55.668l0.015624 63.352c3.0469 0.015625 5.8984 1.4961 7.6484 3.9883 1.7773 2.5117 2.2148 5.7227 1.1797 8.6172-0.70703 1.9766-1.0664 4.0586-1.0664 6.1875 0 1.4102 0.12109 2.5625 0.35156 3.4492 1.9062 9.3438 9.6953 15.742 18.645 15.742 8.9961 0 16.828-6.3945 18.609-15.199 0.35938-1.418 0.47266-2.5742 0.47266-3.9805 0-2.1445-0.35156-4.0859-1.0664-5.9414-1.1289-2.9062-0.74219-6.1875 1.0156-8.75 1.7891-2.5938 4.7031-4.125 7.8164-4.125z"/>
  <path d="m301.81 190.41h3.0977l-0.015625-63.34h-51.266l-6.0898 63.34h0.42969c3.1133 0 6.0391 1.5312 7.7969 4.1133 1.7578 2.5625 2.1445 5.8438 1.0156 8.75-0.72656 1.8477-1.0664 3.7969-1.0664 5.9414 0 1.418 0.12109 2.5742 0.35156 3.4648 1.9961 9.4414 9.6875 15.715 18.82 15.715 8.9961 0 16.859-6.4141 18.727-15.27 0.35156-1.3555 0.46484-2.5117 0.46484-3.9219 0-2.1445-0.35156-4.0859-1.0664-5.9414-1.1289-2.9062-0.74219-6.1875 1.0156-8.75 1.75-2.5703 4.6641-4.1016 7.7852-4.1016z"/>
  <path d="m594.48 202.42-34.098-75.355h-27.336l13.695 63.34h2.5273c3.1133 0 6.0273 1.5312 7.7969 4.1055 1.7578 2.5625 2.1445 5.8359 1.0234 8.75-0.71875 1.8555-1.0664 3.8047-1.0664 5.9492 0 1.418 0.12109 2.5742 0.35156 3.4648 2.4922 11.805 14.594 18.734 25.707 14.316 7.2422-2.8867 11.914-9.8594 11.914-17.789 0-1.9492-0.31641-5.0117-0.51562-6.7812z"/>
  <path d="m143.13 69.887h413.98v37.844h-413.98z"/>
  <path d="m526.4 190.41h1.0078l-13.695-63.34h-45.598l4.5664 63.34h0.23437c3.1133 0 6.0273 1.5312 7.7969 4.1055 1.7578 2.5625 2.1445 5.8359 1.0234 8.75-0.71875 1.8555-1.0664 3.8047-1.0664 5.9492 0 1.418 0.12109 2.5742 0.35156 3.4648 2.0039 9.4414 9.6172 15.715 18.637 15.715 8.8828 0 16.676-6.4141 18.531-15.27 0.35156-1.3555 0.46484-2.5117 0.46484-3.9219 0-2.1445-0.35156-4.0859-1.0664-5.9414-1.1289-2.9062-0.74219-6.1875 1.0156-8.75 1.7695-2.5703 4.6836-4.1016 7.7969-4.1016z"/>
  <path d="m225.94 190.41h2.5977l6.0898-63.34h-45.852l-15.305 63.508c2.5625 0.38672 4.8984 1.7578 6.3945 3.9375 1.7578 2.5625 2.1445 5.8438 1.0156 8.75-0.64844 1.6797-0.97266 3.6211-0.97266 5.9414 0 1.418 0.12109 2.5742 0.35156 3.4648 1.918 9.3203 9.7383 15.715 18.742 15.715 9.0469 0 16.922-6.3945 18.707-15.199 0.35156-1.4102 0.47266-2.5625 0.47266-3.9805 0-2.1523-0.35156-4.0938-1.0586-5.9414-1.1211-2.9062-0.74219-6.1875 1.0156-8.75 1.7656-2.5742 4.6875-4.1055 7.8008-4.1055z"/>
  <path d="m451.95 190.41h1.7852l-4.5664-63.34h-50.82l-0.73438 63.34h0.76953c3.1133 0 6.0273 1.5312 7.7969 4.1133 1.7578 2.5625 2.1445 5.8438 1.0156 8.75-0.71875 1.8477-1.0664 3.7969-1.0664 5.9414 0 1.418 0.12109 2.5742 0.35156 3.4648 1.9688 9.3008 9.7656 15.715 18.645 15.715 8.9336 0 16.766-6.4219 18.621-15.27 0.35156-1.3555 0.46484-2.5117 0.46484-3.9219 0-2.1445-0.35156-4.0859-1.0664-5.9414-1.1211-2.9062-0.73438-6.1875 1.0156-8.75 1.7617-2.5703 4.6758-4.1016 7.7891-4.1016z"/>
  <path d="m570.02 246.75c-1.3633-0.21875-2.6602-0.60547-3.9727-0.97266-0.74219-0.21094-1.4961-0.35156-2.2227-0.60547-1.6289-0.55859-3.1758-1.2969-4.707-2.0742-0.35938-0.18359-0.73438-0.31641-1.0938-0.50781-1.8008-0.98828-3.5078-2.1367-5.1289-3.4023-0.0625-0.050781-0.13281-0.085938-0.19141-0.14062-3.3789-2.6875-6.3164-5.9219-8.6523-9.625-0.007812-0.015625-0.027343-0.042969-0.042969-0.0625-1.0664-1.6992-1.9766-3.5078-2.7656-5.3828-0.085938-0.18359-0.20313-0.35156-0.26953-0.53516-0.83203-2.0664-1.5039-4.207-1.9766-6.4492-0.54297-2.0117-0.85938-4.6719-0.86719-7.6992h-0.57031c0 3.0352-0.33203 5.7227-0.98047 8.1797-3.5703 17.07-19.145 29.801-36.918 29.801-17.762 0-33.336-12.73-37.02-30.273-0.070313-0.26953-0.14844-0.55078-0.20312-0.83984-0.097656 0.44531-0.19141 0.88281-0.31641 1.3125-3.5781 17.07-19.188 29.801-37.004 29.801-17.77 0-33.348-12.73-37.031-30.273-0.070313-0.26953-0.14063-0.55078-0.20313-0.83984-0.097656 0.44531-0.20312 0.88281-0.31641 1.3125-3.4375 17.047-19.059 29.801-37.004 29.801-17.895 0-33.469-12.758-37.039-30.344-0.32422-1.1914-0.57031-2.6523-0.71875-4.3125-0.15625 1.7227-0.42969 3.332-0.83203 4.8555-3.5703 17.07-19.215 29.801-37.102 29.801-17.875 0-33.531-12.73-37.215-30.273-0.33203-1.2422-0.57812-2.7305-0.72656-4.4023-0.15625 1.7227-0.42188 3.332-0.82422 4.8555-3.4492 17.062-19.102 29.828-37.109 29.828-17.945 0-33.566-12.758-37.137-30.336-0.085937-0.31641-0.16797-0.65625-0.23438-1.0078-0.10547 0.51562-0.21875 1.0234-0.35156 1.5156-0.45313 2.1797-1.1094 4.2773-1.9414 6.3008-0.14062 0.33984-0.35156 0.64062-0.5 0.97266-0.74219 1.6719-1.5469 3.2969-2.5273 4.8281-0.14844 0.23437-0.35156 0.4375-0.50781 0.67187-1.0508 1.5742-2.1875 3.0898-3.457 4.4883-0.18359 0.20312-0.40234 0.36719-0.59375 0.55859-1.2969 1.3633-2.668 2.6602-4.1562 3.8242-0.29688 0.23438-0.64062 0.41016-0.9375 0.64062-1.4258 1.0508-2.8789 2.0391-4.4258 2.8789-0.52344 0.28906-1.0859 0.48828-1.6172 0.74219-1.3906 0.67188-2.7812 1.3281-4.2539 1.8281-0.78906 0.26953-1.6172 0.42969-2.4219 0.64844-1.2773 0.33984-2.5391 0.69922-3.8516 0.91016-0.98828 0.15625-2.0039 0.18359-3.0117 0.26172-0.97266 0.078126-1.9258 0.25391-2.9141 0.25391-0.22656 0-0.44531-0.0625-0.68359-0.0625-0.24609-0.007813-0.48828 0.042969-0.73438 0.035156v242.86h264.62v-185.85c-0.31641-3.5273 2.0547-6.6328 3.8672-8.5938 8.0234-8.6797 37.434-27.711 72.582-27.711 32.621 0 60.961 18.359 71.156 29.926 2.4062 2.7383 5.082 6.3945 4.875 10.922v181.31h37.273l0.015625-242.82c-0.19141 0-3.125-0.16797-4.1289-0.25391-0.99219-0.078125-1.9961-0.09375-2.9766-0.26172zm-243.58 64.898v90.301h-153.14v-92.137l-0.64844-3.5078 2.9922-3.7109c4.7344-5.6797 37.188-24.387 74.438-24.387 38.211 0 69.52 19.977 74.242 26.32l2.8359 3.8047z"/>
  <path d="m192.2 313.5v69.555h115.34v-68.434c-7.4453-5.3711-30.766-17.508-57.453-17.508-27.137-0.011719-50.156 11.59-57.891 16.387z"/>
  <path d="m139.37 220.72c0.007812-0.007812 0.015625-0.027344 0.027344-0.035156 0.74219-0.96094 1.375-2.0312 1.9258-3.1406 0.10547-0.20312 0.21875-0.41016 0.32422-0.62109 0.54297-1.1992 0.98828-2.457 1.2695-3.7969 0.33984-1.3398 0.45312-2.5039 0.45312-3.9219 0-2.1523-0.35156-4.0938-1.0664-5.9492-1.1211-2.9062-0.73438-6.1758 1.0234-8.75 1.7656-2.5625 4.6797-4.1055 7.7969-4.1055h2.9766l15.262-63.34h-29.555l-34.16 75.477c-0.30859 2.2422-0.64844 5.207-0.64844 6.668 0 7.832 4.6641 14.777 11.863 17.703 1.3555 0.55859 2.7383 0.94531 4.1211 1.1719 0.085937 0.015625 0.19141 0.015625 0.28906 0.027344 6.9492 1.0234 13.906-2.0039 18.098-7.3867z"/>
  <path d="m463.84 286.85c-28.043 0-51.434 15.008-57.594 20.527l0.027343 182.23h114.69v-179.09c-4.7773-5.6602-27.762-23.66-57.121-23.66zm50.98 127.95c0 5.2227-4.2344 9.4492-9.4492 9.4492-5.2148 0-9.4492-4.2266-9.4492-9.4492v-16.914c0-5.2227 4.2266-9.4492 9.4492-9.4492 5.2227 0 9.4492 4.2266 9.4492 9.4492z"/>

 </g>
</svg>
