<?xml version="1.0" encoding="UTF-8"?>
<svg width="700pt" height="700pt" version="1.1" viewBox="0 0 700 700" xmlns="http://www.w3.org/2000/svg" xmlns:xlink="http://www.w3.org/1999/xlink">
 <defs>
  <symbol id="u" overflow="visible">
   <path d="m18.766-1.125c-0.96875 0.5-1.9805 0.875-3.0312 1.125-1.043 0.25781-2.1367 0.39062-3.2812 0.39062-3.3984 0-6.0898-0.94531-8.0781-2.8438-1.9922-1.9062-2.9844-4.4844-2.9844-7.7344 0-3.2578 0.99219-5.8359 2.9844-7.7344 1.9883-1.9062 4.6797-2.8594 8.0781-2.8594 1.1445 0 2.2383 0.13281 3.2812 0.39062 1.0508 0.25 2.0625 0.625 3.0312 1.125v4.2188c-0.98047-0.65625-1.9453-1.1406-2.8906-1.4531-0.94922-0.3125-1.9492-0.46875-3-0.46875-1.875 0-3.3516 0.60547-4.4219 1.8125-1.0742 1.1992-1.6094 2.8555-1.6094 4.9688 0 2.1055 0.53516 3.7617 1.6094 4.9688 1.0703 1.1992 2.5469 1.7969 4.4219 1.7969 1.0508 0 2.0508-0.14844 3-0.45312 0.94531-0.3125 1.9102-0.80078 2.8906-1.4688z"/>
  </symbol>
  <symbol id="c" overflow="visible">
   <path d="m13.734-11.141c-0.4375-0.19531-0.87109-0.34375-1.2969-0.4375-0.41797-0.10156-0.83984-0.15625-1.2656-0.15625-1.2617 0-2.2305 0.40625-2.9062 1.2188-0.67969 0.80469-1.0156 1.9531-1.0156 3.4531v7.0625h-4.8906v-15.312h4.8906v2.5156c0.625-1 1.3438-1.7266 2.1562-2.1875 0.82031-0.46875 1.8008-0.70312 2.9375-0.70312 0.16406 0 0.34375 0.011719 0.53125 0.03125 0.19531 0.011719 0.47656 0.039062 0.84375 0.078125z"/>
  </symbol>
  <symbol id="a" overflow="visible">
   <path d="m17.641-7.7031v1.4062h-11.453c0.125 1.1484 0.53906 2.0078 1.25 2.5781 0.70703 0.57422 1.7031 0.85938 2.9844 0.85938 1.0312 0 2.082-0.14844 3.1562-0.45312 1.082-0.3125 2.1914-0.77344 3.3281-1.3906v3.7656c-1.1562 0.4375-2.3125 0.76562-3.4688 0.98438-1.1562 0.22656-2.3125 0.34375-3.4688 0.34375-2.7734 0-4.9297-0.70312-6.4688-2.1094-1.5312-1.4062-2.2969-3.3789-2.2969-5.9219 0-2.5 0.75391-4.4609 2.2656-5.8906 1.5078-1.4375 3.582-2.1562 6.2188-2.1562 2.4062 0 4.332 0.73047 5.7812 2.1875 1.4453 1.4492 2.1719 3.3828 2.1719 5.7969zm-5.0312-1.625c0-0.92578-0.27344-1.6719-0.8125-2.2344-0.54297-0.57031-1.25-0.85938-2.125-0.85938-0.94922 0-1.7188 0.26562-2.3125 0.79688s-0.96484 1.2969-1.1094 2.2969z"/>
  </symbol>
  <symbol id="j" overflow="visible">
   <path d="m9.2188-6.8906c-1.0234 0-1.793 0.17188-2.3125 0.51562-0.51172 0.34375-0.76562 0.85547-0.76562 1.5312 0 0.625 0.20703 1.1172 0.625 1.4688 0.41406 0.34375 0.98828 0.51562 1.7188 0.51562 0.92578 0 1.7031-0.32812 2.3281-0.98438 0.63281-0.66406 0.95312-1.4922 0.95312-2.4844v-0.5625zm7.4688-1.8438v8.7344h-4.9219v-2.2656c-0.65625 0.92969-1.3984 1.6055-2.2188 2.0312-0.82422 0.41406-1.8242 0.625-3 0.625-1.5859 0-2.8711-0.45703-3.8594-1.375-0.99219-0.92578-1.4844-2.1289-1.4844-3.6094 0-1.7891 0.61328-3.1016 1.8438-3.9375 1.2383-0.84375 3.1797-1.2656 5.8281-1.2656h2.8906v-0.39062c0-0.76953-0.30859-1.332-0.92188-1.6875-0.61719-0.36328-1.5703-0.54688-2.8594-0.54688-1.0547 0-2.0312 0.10547-2.9375 0.3125-0.89844 0.21094-1.7305 0.52344-2.5 0.9375v-3.7344c1.0391-0.25 2.0859-0.44141 3.1406-0.57812 1.0625-0.13281 2.125-0.20312 3.1875-0.20312 2.7578 0 4.75 0.54688 5.9688 1.6406 1.2266 1.0859 1.8438 2.8555 1.8438 5.3125z"/>
  </symbol>
  <symbol id="b" overflow="visible">
   <path d="m7.7031-19.656v4.3438h5.0469v3.5h-5.0469v6.5c0 0.71094 0.14062 1.1875 0.42188 1.4375s0.83594 0.375 1.6719 0.375h2.5156v3.5h-4.1875c-1.9375 0-3.3125-0.39844-4.125-1.2031-0.80469-0.8125-1.2031-2.1797-1.2031-4.1094v-6.5h-2.4219v-3.5h2.4219v-4.3438z"/>
  </symbol>
  <symbol id="i" overflow="visible">
   <path d="m12.766-13.078v-8.2031h4.9219v21.281h-4.9219v-2.2188c-0.66797 0.90625-1.4062 1.5703-2.2188 1.9844s-1.7578 0.625-2.8281 0.625c-1.8867 0-3.4336-0.75-4.6406-2.25-1.2109-1.5-1.8125-3.4258-1.8125-5.7812 0-2.3633 0.60156-4.2969 1.8125-5.7969 1.207-1.5 2.7539-2.25 4.6406-2.25 1.0625 0 2 0.21484 2.8125 0.64062 0.82031 0.42969 1.5664 1.0859 2.2344 1.9688zm-3.2188 9.9219c1.0391 0 1.8359-0.37891 2.3906-1.1406 0.55078-0.76953 0.82812-1.8828 0.82812-3.3438 0-1.457-0.27734-2.5664-0.82812-3.3281-0.55469-0.76953-1.3516-1.1562-2.3906-1.1562-1.043 0-1.8398 0.38672-2.3906 1.1562-0.55469 0.76172-0.82812 1.8711-0.82812 3.3281 0 1.4609 0.27344 2.5742 0.82812 3.3438 0.55078 0.76172 1.3477 1.1406 2.3906 1.1406z"/>
  </symbol>
  <symbol id="h" overflow="visible">
   <path d="m10.5-3.1562c1.0508 0 1.8516-0.37891 2.4062-1.1406 0.55078-0.76953 0.82812-1.8828 0.82812-3.3438 0-1.457-0.27734-2.5664-0.82812-3.3281-0.55469-0.76953-1.3555-1.1562-2.4062-1.1562-1.0547 0-1.8594 0.38672-2.4219 1.1562-0.55469 0.77344-0.82812 1.8828-0.82812 3.3281 0 1.4492 0.27344 2.5586 0.82812 3.3281 0.5625 0.77344 1.3672 1.1562 2.4219 1.1562zm-3.25-9.9219c0.67578-0.88281 1.4219-1.5391 2.2344-1.9688 0.82031-0.42578 1.7656-0.64062 2.8281-0.64062 1.8945 0 3.4453 0.75 4.6562 2.25 1.207 1.5 1.8125 3.4336 1.8125 5.7969 0 2.3555-0.60547 4.2812-1.8125 5.7812-1.2109 1.5-2.7617 2.25-4.6562 2.25-1.0625 0-2.0078-0.21094-2.8281-0.625-0.8125-0.42578-1.5586-1.0859-2.2344-1.9844v2.2188h-4.8906v-21.281h4.8906z"/>
  </symbol>
  <symbol id="g" overflow="visible">
   <path d="m0.34375-15.312h4.8906l4.125 10.391 3.5-10.391h4.8906l-6.4375 16.766c-0.64844 1.6953-1.4023 2.8828-2.2656 3.5625-0.86719 0.6875-2 1.0312-3.4062 1.0312h-2.8438v-3.2188h1.5312c0.83203 0 1.4375-0.13672 1.8125-0.40625 0.38281-0.26172 0.67969-0.73047 0.89062-1.4062l0.14062-0.42188z"/>
  </symbol>
  <symbol id="f" overflow="visible">
   <path d="m2.5781-20.406h14.203v3.9688h-8.9531v3.7969h8.4219v3.9844h-8.4219v8.6562h-5.25z"/>
  </symbol>
  <symbol id="t" overflow="visible">
   <path d="m2.3594-21.281h4.8906v21.281h-4.8906z"/>
  </symbol>
  <symbol id="d" overflow="visible">
   <path d="m9.6406-12.188c-1.0859 0-1.9141 0.39062-2.4844 1.1719-0.57422 0.78125-0.85938 1.9062-0.85938 3.375s0.28516 2.5938 0.85938 3.375c0.57031 0.77344 1.3984 1.1562 2.4844 1.1562 1.0625 0 1.875-0.38281 2.4375-1.1562 0.57031-0.78125 0.85938-1.9062 0.85938-3.375s-0.28906-2.5938-0.85938-3.375c-0.5625-0.78125-1.375-1.1719-2.4375-1.1719zm0-3.5c2.6328 0 4.6914 0.71484 6.1719 2.1406 1.4766 1.418 2.2188 3.3867 2.2188 5.9062 0 2.5117-0.74219 4.4805-2.2188 5.9062-1.4805 1.418-3.5391 2.125-6.1719 2.125-2.6484 0-4.7148-0.70703-6.2031-2.125-1.4922-1.4258-2.2344-3.3945-2.2344-5.9062 0-2.5195 0.74219-4.4883 2.2344-5.9062 1.4883-1.4258 3.5547-2.1406 6.2031-2.1406z"/>
  </symbol>
  <symbol id="e" overflow="visible">
   <path d="m17.75-9.3281v9.3281h-4.9219v-7.1406c0-1.3203-0.03125-2.2344-0.09375-2.7344s-0.16797-0.86719-0.3125-1.1094c-0.1875-0.3125-0.44922-0.55469-0.78125-0.73438-0.32422-0.17578-0.69531-0.26562-1.1094-0.26562-1.0234 0-1.8242 0.39844-2.4062 1.1875-0.58594 0.78125-0.875 1.8711-0.875 3.2656v7.5312h-4.8906v-15.312h4.8906v2.2344c0.73828-0.88281 1.5195-1.5391 2.3438-1.9688 0.83203-0.42578 1.75-0.64062 2.75-0.64062 1.7695 0 3.1133 0.54688 4.0312 1.6406 0.91406 1.0859 1.375 2.6562 1.375 4.7188z"/>
  </symbol>
  <symbol id="s" overflow="visible">
   <path d="m10.75-12.516c0.82031 0 1.4453-0.17969 1.875-0.54688 0.4375-0.36328 0.65625-0.89844 0.65625-1.6094 0-0.69531-0.21875-1.2266-0.65625-1.5938-0.42969-0.375-1.0547-0.5625-1.875-0.5625h-2.9219v4.3125zm0.17188 8.9375c1.0625 0 1.8594-0.22266 2.3906-0.67188 0.53125-0.44531 0.79688-1.125 0.79688-2.0312 0-0.88281-0.26562-1.5469-0.79688-1.9844-0.52344-0.4375-1.3203-0.65625-2.3906-0.65625h-3.0938v5.3438zm4.8906-7.3438c1.1328 0.32422 2.0078 0.92969 2.625 1.8125 0.625 0.88672 0.9375 1.9688 0.9375 3.25 0 1.9688-0.66797 3.4375-2 4.4062-1.3359 0.96875-3.3555 1.4531-6.0625 1.4531h-8.7344v-20.406h7.8906c2.832 0 4.8828 0.42969 6.1562 1.2812 1.2812 0.85547 1.9219 2.2266 1.9219 4.1094 0 1-0.23438 1.8516-0.70312 2.5469-0.46875 0.6875-1.1484 1.2031-2.0312 1.5469z"/>
  </symbol>
  <symbol id="r" overflow="visible">
   <path d="m12.422-21.281v3.2188h-2.7031c-0.6875 0-1.1719 0.125-1.4531 0.375-0.27344 0.25-0.40625 0.6875-0.40625 1.3125v1.0625h4.1875v3.5h-4.1875v11.812h-4.8906v-11.812h-2.4375v-3.5h2.4375v-1.0625c0-1.6641 0.46094-2.8984 1.3906-3.7031 0.92578-0.80078 2.3672-1.2031 4.3281-1.2031z"/>
  </symbol>
  <symbol id="q" overflow="visible">
   <path d="m16.547-12.766c0.61328-0.94531 1.3477-1.6719 2.2031-2.1719 0.85156-0.5 1.7891-0.75 2.8125-0.75 1.7578 0 3.0977 0.54688 4.0156 1.6406 0.92578 1.0859 1.3906 2.6562 1.3906 4.7188v9.3281h-4.9219v-7.9844-0.35938c0.007813-0.13281 0.015625-0.32031 0.015625-0.5625 0-1.082-0.16406-1.8633-0.48438-2.3438-0.3125-0.48828-0.82422-0.73438-1.5312-0.73438-0.92969 0-1.6484 0.38672-2.1562 1.1562-0.51172 0.76172-0.77344 1.8672-0.78125 3.3125v7.5156h-4.9219v-7.9844c0-1.6953-0.14844-2.7852-0.4375-3.2656-0.29297-0.48828-0.8125-0.73438-1.5625-0.73438-0.9375 0-1.6641 0.38672-2.1719 1.1562-0.51172 0.76172-0.76562 1.8594-0.76562 3.2969v7.5312h-4.9219v-15.312h4.9219v2.2344c0.60156-0.86328 1.2891-1.5156 2.0625-1.9531 0.78125-0.4375 1.6406-0.65625 2.5781-0.65625 1.0625 0 2 0.25781 2.8125 0.76562 0.8125 0.51172 1.4258 1.2305 1.8438 2.1562z"/>
  </symbol>
  <symbol id="p" overflow="visible">
   <path d="m17.75-9.3281v9.3281h-4.9219v-7.1094c0-1.3438-0.03125-2.2656-0.09375-2.7656s-0.16797-0.86719-0.3125-1.1094c-0.1875-0.3125-0.44922-0.55469-0.78125-0.73438-0.32422-0.17578-0.69531-0.26562-1.1094-0.26562-1.0234 0-1.8242 0.39844-2.4062 1.1875-0.58594 0.78125-0.875 1.8711-0.875 3.2656v7.5312h-4.8906v-21.281h4.8906v8.2031c0.73828-0.88281 1.5195-1.5391 2.3438-1.9688 0.83203-0.42578 1.75-0.64062 2.75-0.64062 1.7695 0 3.1133 0.54688 4.0312 1.6406 0.91406 1.0859 1.375 2.6562 1.375 4.7188z"/>
  </symbol>
  <symbol id="o" overflow="visible">
   <path d="m2.5781-20.406h5.875l7.4219 14v-14h4.9844v20.406h-5.875l-7.4219-14v14h-4.9844z"/>
  </symbol>
  <symbol id="n" overflow="visible">
   <path d="m2.1875-5.9688v-9.3438h4.9219v1.5312c0 0.83594-0.007813 1.875-0.015625 3.125-0.011719 1.25-0.015625 2.0859-0.015625 2.5 0 1.2422 0.03125 2.1328 0.09375 2.6719 0.070313 0.54297 0.17969 0.93359 0.32812 1.1719 0.20703 0.32422 0.47266 0.57422 0.79688 0.75 0.32031 0.16797 0.69141 0.25 1.1094 0.25 1.0195 0 1.8203-0.39062 2.4062-1.1719 0.58203-0.78125 0.875-1.8672 0.875-3.2656v-7.5625h4.8906v15.312h-4.8906v-2.2188c-0.74219 0.89844-1.5234 1.5586-2.3438 1.9844-0.82422 0.41406-1.7344 0.625-2.7344 0.625-1.7617 0-3.1055-0.53906-4.0312-1.625-0.92969-1.082-1.3906-2.6602-1.3906-4.7344z"/>
  </symbol>
  <symbol id="m" overflow="visible">
   <path d="m2.5781-20.406h8.7344c2.5938 0 4.582 0.57812 5.9688 1.7344 1.3945 1.1484 2.0938 2.7891 2.0938 4.9219 0 2.1367-0.69922 3.7812-2.0938 4.9375-1.3867 1.1562-3.375 1.7344-5.9688 1.7344h-3.4844v7.0781h-5.25zm5.25 3.8125v5.7031h2.9219c1.0195 0 1.8047-0.25 2.3594-0.75 0.5625-0.5 0.84375-1.2031 0.84375-2.1094 0-0.91406-0.28125-1.6172-0.84375-2.1094-0.55469-0.48828-1.3398-0.73438-2.3594-0.73438z"/>
  </symbol>
  <symbol id="l" overflow="visible">
   <path d="m2.3594-15.312h4.8906v15.031c0 2.0508-0.49609 3.6172-1.4844 4.7031-0.98047 1.082-2.4062 1.625-4.2812 1.625h-2.4219v-3.2188h0.85938c0.92578 0 1.5625-0.21094 1.9062-0.625 0.35156-0.41797 0.53125-1.2461 0.53125-2.4844zm0-5.9688h4.8906v4h-4.8906z"/>
  </symbol>
  <symbol id="k" overflow="visible">
   <path d="m14.719-14.828v3.9844c-0.65625-0.45703-1.3242-0.79688-2-1.0156-0.66797-0.21875-1.3594-0.32812-2.0781-0.32812-1.3672 0-2.4336 0.40234-3.2031 1.2031-0.76172 0.79297-1.1406 1.9062-1.1406 3.3438 0 1.4297 0.37891 2.543 1.1406 3.3438 0.76953 0.79297 1.8359 1.1875 3.2031 1.1875 0.75781 0 1.4844-0.10938 2.1719-0.32812 0.6875-0.22656 1.3203-0.56641 1.9062-1.0156v4c-0.76172 0.28125-1.5391 0.48828-2.3281 0.625-0.78125 0.14453-1.5742 0.21875-2.375 0.21875-2.7617 0-4.9219-0.70703-6.4844-2.125-1.5547-1.4141-2.3281-3.3828-2.3281-5.9062 0-2.5312 0.77344-4.5039 2.3281-5.9219 1.5625-1.4141 3.7227-2.125 6.4844-2.125 0.80078 0 1.5938 0.074219 2.375 0.21875 0.78125 0.13672 1.5547 0.35156 2.3281 0.64062z"/>
  </symbol>
 </defs>
 <g>
  <path d="m624.68 87.191c-4.8672-2.0742-9.2969-5.0586-13.047-8.793l-3.9219-3.6953c-2.0156-1.9609-4.1445-3.9766-6.3828-5.6016v0.003907c0.26953-0.23438 0.51562-0.49609 0.72656-0.78516 8.7344-14.336 23.465-45.246 24.078-46.535h0.003907c0.5-0.86719 0.5-1.9336 0-2.8008-0.55859-0.83203-1.5273-1.2812-2.5195-1.1758-4.4883 0.27734-8.9102 1.2422-13.105 2.8555-2.9883 1.3672-5.8398 3.0156-8.5117 4.9297-3.3594 2.2969-8.3438 5.9922-10.473 5.6016-2.1289-0.39062-5.0391-3.0781-7.3906-6.1602v-0.003906c-1.7305-2.4023-3.8281-4.5195-6.2148-6.2695h-0.33594c-0.60547-0.41016-1.2422-0.76562-1.9062-1.0664-5.6016-2.3516-12.434 3.3594-18.199 8.3438-1.2891 1.1758-2.5742 2.2383-3.7539 3.1914l-6.2148 4.3711c-4.0859 3.3594-8.3438 6.6055-12.711 10.078-10.473 7-16.801 8.2891-26.938 5.6016-3.1836-0.71094-6.4258-1.1016-9.6875-1.1758h-7-8.9023c-10.305-0.67188-15.848 4.9297-21.727 10.863-1.3438 1.3438-2.7422 2.7422-4.1992 4.0898-1.457 1.3438-1.3984 1.2891-2.1289 2.0156l-0.003906-0.003907c-2.4609 2.6758-5.3555 4.9102-8.5664 6.6094l-0.44922-0.55859c-1.5625-1.2891-3.6641-1.707-5.5977-1.1211-3.7891 1.4219-7.2422 3.6133-10.137 6.4414-3.0039 3.6289-7.5 5.6914-12.207 5.5977-9.1094-0.43359-18.234 0.28125-27.16 2.1289-11.094 2.7383-22.543 3.7227-33.938 2.9102-4.0117-0.68359-7.9531-1.75-11.762-3.1914-6.293-2.7266-13.145-3.918-19.992-3.4727l-8.9023-26.484c-0.44922-1.457-0.89453-3.3047-1.3984-5.6016-1.8477-7.7852-4.0898-17.414-10.473-20.551-2.5898-0.91797-5.418-0.91797-8.0078 0-1.1641 0.33984-2.3711 0.50781-3.5859 0.50391-2.3711-0.35547-4.6758-1.0742-6.832-2.1289-1.5352-0.66016-3.1055-1.2422-4.7031-1.7383-8.875-2.8672-18.453-2.6914-27.215 0.50781-2.707 1.0469-5.3281 2.3008-7.8398 3.75-3.9023 2.5195-8.4102 3.9492-13.051 4.1445h-0.95313c-9.9688 0-11.199 0-18.199 8.6797-2.3164 2.8906-5.3711 5.0977-8.8477 6.3828-2.4141 1.0508-4.7383 2.3086-6.9414 3.7539-1.5039 1.0039-2.8438 2.2305-3.9766 3.6406-0.38281 0.25781-0.67578 0.62891-0.83984 1.0625-1.6758 2.2852-3.0703 4.7695-4.1445 7.3906-1.1016 2.7031-2.5938 5.2305-4.4258 7.5039-1.4766 1.7422-3.418 3.0234-5.5977 3.6992-3.9609 1.3125-7.0586 4.4297-8.3438 8.3984-1.0078 2.1836-1.793 4.1992-2.5742 6.1055h-0.003907c-1.7266 6.3281-5.4844 11.914-10.695 15.902-10.527 7.6719-15.848 20.441-20.945 32.762-2.2383 5.3203-4.3672 10.359-6.832 14.895-3.4492 6.6992-7.8242 12.883-12.988 18.367-3.6953 3.4883-7.9062 6.3789-12.488 8.5703-3.7344 1.875-7.2773 4.1094-10.586 6.6641-7.1641 6.293-13.238 13.727-17.977 22.008-0.41016 0.625-0.54687 1.3906-0.375 2.1211 0.16797 0.73047 0.62891 1.3594 1.2734 1.7422 0.625 0.41016 1.3906 0.54688 2.1211 0.375 0.73047-0.16797 1.3594-0.62891 1.7422-1.2734 4.4219-7.75 10.102-14.711 16.801-20.605 3.0586-2.3672 6.3398-4.4297 9.7969-6.1602 5.1484-2.4062 9.875-5.6211 14-9.5195 5.4961-5.875 10.168-12.469 13.891-19.602 2.543-5.0977 4.8047-10.332 6.7734-15.68 4.8164-11.594 9.8555-23.574 19.098-30.352 1.2656-0.94141 2.4648-1.9688 3.582-3.082 1.5234 6.1484 1.1328 12.617-1.1172 18.539-0.48438 1.4531 0.28906 3.0234 1.7344 3.5273 0.26953 0.097657 0.55469 0.15234 0.83984 0.16797 1.1953-0.007812 2.25-0.77344 2.6328-1.9062 2.8594-7.6953 3.0977-16.121 0.67188-23.965-0.20312-0.58594-0.35156-1.1836-0.44922-1.793 1.7891-3.1406 3.3242-6.418 4.5938-9.8008 0.72656-1.8477 1.5117-3.8086 2.4648-5.9375 1.8477-4.1445 3.1367-4.6484 5.2656-5.6016l-0.003906 0.003906c2.9297-1.0195 5.5391-2.7969 7.5625-5.1523 1.4453-1.7031 2.668-3.5859 3.6367-5.6016 0.30859 12-1.0273 23.984-3.9727 35.617-0.45312 1.4805 0.33594 3.0547 1.7891 3.582 0.29688 0.058594 0.60156 0.058594 0.89844 0 1.2852 0.14844 2.4961-0.62109 2.9102-1.8477 3.1797-12.262 4.6523-24.906 4.3672-37.574 0-3.6406 0-7.0547 0.39062-10.246l0.003907-0.003906c0.78125-0.88281 1.6641-1.6719 2.6328-2.3516 1.9688-1.2812 4.0508-2.3867 6.2148-3.3008l1.2305-0.55859v-0.003906c-0.44531 3.7188-0.67187 7.457-0.67187 11.199 0.21875 6.3086-0.59375 12.605-2.4062 18.648-0.48438 1.4531 0.28906 3.0273 1.7344 3.5273h0.89844c1.0664-0.070313 2-0.74219 2.4062-1.7344 1.9883-6.5859 2.8984-13.453 2.6875-20.328-0.17969-5.168 0.38672-10.336 1.6797-15.344 1.1211-1.0898 2.1523-2.2695 3.082-3.5273 5.6016-6.6641 5.6016-6.6641 13.832-6.6094h1.1172c5.5547-0.042968 10.984-1.6328 15.68-4.5898 2.2969-1.3281 4.6953-2.4727 7.168-3.418 1.8203-0.69141 3.6953-1.2344 5.6016-1.625 0.28906 19.316-3.75 38.449-11.816 56-5.9375-3.5273-10.922-3.6406-17.527 4.8164l-0.78516 1.0625c-1.5117 1.9609-2.8555 3.9219-4.1445 5.6016-3.0469 4.8594-6.8242 9.2227-11.199 12.938l-3.3047 2.5742c-6.0938 4.2227-11.355 9.5391-15.512 15.68l-1.1758 1.8477c-3.0234 6.2656-7.25 11.879-12.43 16.523-1.457 1.2305-2.7422 2.4648-3.9766 3.6953l-0.28125 0.28125v-0.003906c-4.7305 4.8789-8.8984 10.27-12.43 16.074-9.4648 14.785-28.727 20.273-42.449 23.129-0.72656 0.14844-1.3672 0.57812-1.7773 1.1992-0.41016 0.61719-0.55469 1.375-0.40625 2.1016 0.28516 1.293 1.4219 2.2227 2.7422 2.2422h0.5625c4.918-1.0234 9.7773-2.3125 14.559-3.8633-1.3516 5.0273-2.3984 10.133-3.1367 15.285-0.69922 5.2266-1.7852 10.395-3.2461 15.457-0.4375 1.4688 0.38281 3.0156 1.8477 3.4727 0.27734 0.054687 0.5625 0.054687 0.83984 0 1.2227-0.011719 2.3047-0.79688 2.6875-1.9609 1.4961-5.332 2.6367-10.758 3.4141-16.238 0.78125-6.3789 2.2656-12.652 4.4258-18.703 9.8945-3.7539 18.426-10.41 24.473-19.098 1.6797-2.6328 3.2461-4.9297 4.8711-7.168-0.28125 3.1367-0.28125 6.0469-0.28125 8.9609 0.21875 4.9453-0.21484 9.8945-1.2852 14.727-0.32031 1.4961 0.59375 2.9766 2.0703 3.3594h0.67188c1.2773-0.011719 2.3828-0.88672 2.6875-2.125 1.1953-5.2891 1.6836-10.715 1.457-16.129-0.28125-5.8984 0.41797-11.805 2.0703-17.473 1.0625-1.0625 2.1289-2.0703 3.3047-3.0781v-0.003906c3.1719-2.6719 6.0117-5.7188 8.457-9.0703v4.4805c0.55469 7.4961 0.085937 15.031-1.3984 22.398-0.44922 1.4688 0.34375 3.0234 1.7891 3.5273h0.89844c1.2148 0.003906 2.2852-0.79297 2.6289-1.957 1.7344-7.8633 2.3008-15.941 1.6836-23.969-0.15234-4.5938-0.058593-9.1914 0.27734-13.777l0.33594-0.55859c3.3047-4.8828 7.457-9.1328 12.266-12.543-0.44922 4.9844-0.55859 9.6875-0.67188 14.223-0.011718 6.3633-0.38672 12.719-1.1211 19.039-0.09375 0.74609 0.11328 1.4961 0.57422 2.0859 0.46484 0.58594 1.1445 0.96875 1.8906 1.0508h0.33594c1.3945-0.011719 2.582-1.0273 2.8008-2.4062 0.72656-6.5273 1.1016-13.09 1.1172-19.656 0.011719-6.4609 0.42578-12.914 1.2344-19.32 4.2656-3.6172 8-7.8242 11.086-12.488 1.0352 7.2812 1.0352 14.672 0 21.953-0.26953 1.5117 0.73047 2.9609 2.2422 3.2461h0.50391c1.3555 0.019531 2.5234-0.95703 2.7422-2.2969 1.1172-7.7812 1.1172-15.684 0-23.465 0-2.0703-0.33594-4.2578-0.50391-6.4961l0.28125-0.39063c5.6016-7 7-6.1602 15.512 0l0.83984 0.72656c-2.5781 9.1133-5.6836 18.07-9.2969 26.824-0.32812 0.66797-0.375 1.4414-0.13281 2.1445 0.24219 0.70312 0.75391 1.2852 1.4219 1.6094 0.40625 0.085938 0.82422 0.085938 1.2305 0 1.0703 0 2.0508-0.60547 2.5195-1.5664 3.4414-8.2344 6.4297-16.645 8.9609-25.203 2.6328 2.5195 5.0977 5.0977 7.6172 7.7852l4.8164 5.0977c-0.16406 3.1836 0.89844 6.3086 2.9688 8.7344-0.44922 7.4492-8.1211 23.688-14.953 38.191-4.8516 9.2891-8.8984 18.973-12.098 28.953-0.27734 1.5078 0.6875 2.9688 2.1836 3.3047h0.5625c1.3398 0.023437 2.4961-0.92578 2.7422-2.2422 3.1172-9.5234 7.0117-18.777 11.648-27.664 5.8086-11.031 10.77-22.488 14.84-34.27 1.1602 1.3281 1.8477 3 1.9609 4.7578-0.58203 3.2422-1.5 6.4141-2.7461 9.4648-1.8477 5.6016-3.6406 10.359-1.1211 14.168h0.003906c0.45703 0.67188 1.0234 1.2578 1.6797 1.7344l-3.9766 7.3359c-5.6016 10.305-13.328 24.473-16.129 30.91v0.003906c-0.58984 1.4219 0.054687 3.0586 1.457 3.6953 0.36719 0.085938 0.75 0.085938 1.1211 0 1.1133-0.011718 2.1172-0.66406 2.5742-1.6797 2.6875-6.2148 10.305-20.215 15.848-30.465 1.793-3.1914 3.3047-5.9922 4.3672-8.0625l1.9023 0.28125h0.003906c1.4727 0.082031 2.9492 0.082031 4.4219 0 2.5195 0 3.7539 0 4.9844 1.1211v-0.003907c-4.6484 10.152-10.277 19.832-16.797 28.898-2.9102 4.4805-5.6016 8.3984-7 11.199-0.77344 1.3477-0.32422 3.0625 1.0078 3.8633 0.42578 0.24219 0.90625 0.375 1.3984 0.39062 0.99609-0.003906 1.9102-0.53906 2.4062-1.3984 1.5664-2.6328 4.0312-6.5508 6.8867-11.199 6.2148-9.6328 11.535-17.977 14.617-24.191-0.023437 1.7422-0.15234 3.4805-0.39062 5.207-0.50391 2.8438-0.61719 5.7461-0.33594 8.625 0.44922 3.2227 1.6602 6.293 3.5273 8.957-3.3477 3.7305-7.1055 7.0742-11.199 9.9688-4.2969 3.0859-8.2891 6.5742-11.93 10.418h-2.0156c-19.434-1.5117-44.352 8.9023-73.977 30.91h0.003906c-9.0078 6.0078-14.492 16.055-14.676 26.879-0.30859 8.8164-1.8555 17.543-4.5898 25.93-4.0898 2.5195-9.5742 5.6016-15.902 8.8477-20.16 10.641-50.398 26.824-75.152 51.238v0.003907c-1.0742 1.1055-1.0742 2.8672 0 3.9727 0.53906 0.52344 1.2656 0.80469 2.0156 0.78516 0.73047 0.011719 1.4375-0.27344 1.957-0.78516 23.969-23.855 53.984-39.762 73.809-50.398l9.8008-4.7617c-0.18359 0.46094-0.38672 0.91016-0.61719 1.3438-12.312 25.848-21.883 52.914-28.559 80.754-10.305 8.5664-19.992 17.527-29.961 26.824-4.4258 4.0898-8.9023 8.2891-13.496 12.434-4.5938 4.1445-8.2305 6.9453-12.77 10.527h0.003907c-6.0273 4.4102-11.77 9.1992-17.191 14.336-0.54297 0.50781-0.85156 1.2148-0.85156 1.957 0 0.74609 0.30859 1.4531 0.85156 1.9609 0.51172 0.53516 1.2188 0.83594 1.957 0.83984 0.75781 0 1.4844-0.30469 2.0156-0.83984 5.332-5 10.941-9.6914 16.801-14.055 4.4805-3.4727 9.0703-7.0547 13.16-10.754l13.496-12.488c14.711-14.359 30.348-27.734 46.816-40.039 7.2227-5.207 14.336-10.641 21.391-16.184 0.11328 0.023437 0.22656 0.023437 0.33594 0 10.137-7.9531 20.105-16.07 29.848-24.023l13.215-10.809c2.9688-2.4062 5.6016-4.6484 8.7344-6.8867 18.707-14.898 35.004-27.555 38.254-54.77 0.09375-0.74219-0.11328-1.4922-0.57812-2.082-0.46094-0.58984-1.1406-0.96875-1.8867-1.0547-0.73828-0.09375-1.4805 0.11719-2.0625 0.58203s-0.94922 1.1445-1.0195 1.8828c-2.5742 21-13.441 32.426-28 44.129 5.7422-15.547 10.254-31.52 13.496-47.77 0.046874-0.74219-0.20313-1.4727-0.69922-2.0312-0.49219-0.55469-1.1875-0.89062-1.9297-0.9375-0.75-0.078125-1.5 0.16406-2.0664 0.66406-0.5625 0.5-0.89062 1.2148-0.90234 1.9688-3.9297 18.84-9.5508 37.281-16.801 55.105l-8.2891 6.5508c-3.2461 2.6875-6.4961 5.6016-9.8008 8.0078 1.793-3.8086 3.6953-7.5039 5.6016-11.199 1.9023-3.6953 4.5352-8.625 6.5508-13.16 5.832-12.93 9.3398-26.789 10.363-40.938 0.12109-1.543-1.0312-2.8984-2.5781-3.0234-1.5469-0.12109-2.8984 1.0312-3.0234 2.5781-0.95703 13.543-4.293 26.812-9.8555 39.199-1.9609 4.3672-4.1992 8.6797-6.3828 12.879-3.7969 6.832-7.0547 13.945-9.7461 21.281-6.1602 5.0391-12.32 10.023-18.594 15.008 2.9062-8.7227 7.0156-16.996 12.211-24.582 1.8477-2.9688 3.6406-5.8789 5.2656-8.7344l-0.003906-0.003906c7.7617-13.656 13.422-28.398 16.801-43.734 0.16797-0.73047 0.035157-1.4922-0.36328-2.125-0.39844-0.62891-1.0352-1.0742-1.7656-1.2344-0.71875-0.16797-1.4766-0.035156-2.0977 0.36719-0.625 0.39844-1.0586 1.0352-1.2031 1.7578-3.2539 14.605-8.6094 28.66-15.906 41.723-1.625 2.8008-3.3594 5.6016-5.1523 8.5117-7.0586 9.7734-11.895 20.973-14.168 32.816-4.7031 3.6953-9.4648 7.2812-14.281 10.863h0.003907c4.2461-11.48 9.1641-22.699 14.727-33.602 11.535-24.078 24.641-51.465 24.023-68.656-0.058594-1.5117-1.2852-2.7148-2.8008-2.7422-1.5547 0.058593-2.7734 1.3555-2.7422 2.9102 0.55859 15.848-12.207 42.559-23.465 66.078-8.1758 17.078-15.23 31.809-16.801 41.215-3.1367 2.2969-6.1602 4.6484-9.1836 7v0.003906c6.2266-24.883 14.973-49.07 26.098-72.184 5.9492-11.793 9.1797-24.766 9.4609-37.969 0.070312-9.1836 4.7109-17.73 12.379-22.793 28-20.832 52.414-31.191 70.223-29.793v0.003906c16.195 1.8281 32.164 5.3008 47.656 10.359 12.391 3.9648 25.016 7.1641 37.801 9.5742 3.7109 0.51953 7.4531 0.83984 11.199 0.95312h0.55859c7.8906 0.097656 15.777-0.22266 23.633-0.95312 10.152-0.89062 20.367-0.89062 30.52 0-10.695 53.703 3.6953 80.809 19.098 109.37 10.641 19.879 21.672 40.434 25.258 71.625 4.1445 35.281-8.3984 74.703-28.449 123.2-0.55078 1.4219 0.11719 3.0273 1.5117 3.6406 0.34766 0.082031 0.71094 0.082031 1.0625 0 1.1484 0.003906 2.1836-0.67969 2.6328-1.7344 20.383-49.113 33.039-89.602 28.84-125.78-3.7539-32.312-15.008-53.312-25.93-73.641-14.895-27.719-28.895-53.984-18.48-105.84 2.2969 0.44922 4.5352 1.0625 6.7773 1.7344-3.8086 55.328 26.32 95.199 58.238 137.14 34.496 45.359 70.168 92.344 71.121 165.31 0 0.74219 0.29688 1.457 0.82031 1.9805 0.52734 0.52734 1.2383 0.82031 1.9805 0.82031 1.5547-0.03125 2.8008-1.3008 2.8008-2.8555-1.0078-74.816-38.863-124.71-72.297-168.67-30.91-40.711-60.254-79.297-57.121-131.77 27 11.309 55.172 19.574 84 24.641l2.0156 0.33594c25.984 4.2578 52.863 8.6797 75.266 22.398v0.003906c5.4023 3.5586 10.48 7.5898 15.176 12.039 1.1445 1.0508 2.9258 0.97656 3.9766-0.16797s0.97656-2.9258-0.16797-3.9766c-4.9609-4.6602-10.32-8.875-16.016-12.602-23.352-14.672-50.793-19.152-77.336-23.465l-2.0156-0.33594v0.003906c-29.211-5.2344-57.758-13.664-85.121-25.145l-1.1758-0.39062v-0.003907c-0.21094-0.16016-0.46484-0.25391-0.72656-0.27734-3.8242-1.3438-7.7617-2.3359-11.762-2.9688h-0.44922c-7.8281-1.0547-15.742-1.3555-23.629-0.89453 2.2383-1.7344 4.8711-3.5273 7.5039-5.207v-0.003906c5.8789-3.1719 10.984-7.6094 14.949-12.992 3.6445-6.6562 5.9453-13.961 6.7773-21.504 0.44922-2.8555 0.89453-5.6016 1.625-8.8477l0.72656-3.2461c0.33594-1.6797 0.72656-3.3047 1.0625-4.8711 1.6445-6.9766 2.4727-14.117 2.4648-21.281-0.45703-9.9922 2.4414-19.848 8.2344-28 11.543-1.0977 23.008 2.7695 31.527 10.641 3.043 2.7617 5.9219 5.6953 8.625 8.7891 3.9375 4.3828 8.2656 8.3945 12.934 11.984 1.6797 1.2891 3.3594 2.4648 4.9844 3.6406 7.8906 4.8984 14.695 11.359 19.992 18.984 0.83594 1.2891 2.5469 1.6875 3.8633 0.89453 0.64453-0.37891 1.1055-1.0078 1.2734-1.7383 0.17188-0.73047 0.035156-1.4961-0.375-2.125-5.6992-8.2188-12.992-15.207-21.449-20.551l-4.9844-3.5859c-4.3828-3.5-8.4297-7.3984-12.098-11.645-2.8633-3.2148-5.8945-6.2812-9.0703-9.1875-6.6953-5.9883-14.945-9.9688-23.801-11.477 1.7344-2.0703 3.3594-4.4258 4.9844-6.7188v-0.003906c2.4062-4.4414 5.7969-8.2695 9.9141-11.199 0.71875-0.30078 1.2773-0.88281 1.5469-1.6133 0.26953-0.73047 0.22656-1.5391-0.125-2.2344-0.35156-0.69531-0.97656-1.2109-1.7266-1.4258-0.74609-0.21875-1.5508-0.11328-2.2188 0.28906-4.9688 3.2383-9.0977 7.6172-12.039 12.77-2.0938 3.4023-4.6367 6.5117-7.5586 9.2383h-4.3125c3.1914-3.9219 6.2148-8.2891 9.1289-12.543 3.2812-5.0352 6.8711-9.8594 10.75-14.449 0.625-0.51563 0.99219-1.2773 1.0117-2.082 0.019531-0.80859-0.30859-1.5859-0.90625-2.1328-0.59375-0.54688-1.3984-0.80859-2.2031-0.72266-0.80078 0.089843-1.5273 0.52344-1.9883 1.1875-4.0938 4.7227-7.8359 9.7422-11.199 15.008-4.0273 6.2539-8.6016 12.137-13.664 17.582l-2.9688 1.0078c8.7344-15.961 24.414-41.047 40.824-41.16h0.39062c8.7148 0.29297 17.387 1.3242 25.93 3.082 4.5938 0.78516 9.1836 1.5664 13.719 2.1836 15.566 1.9609 22.398-0.89453 34.777-8.3438 6.5508-3.8633 20.215-11.984 30.52-10.695 8.2891 1.0078 15.457 7.8945 21.785 14l3.9766 3.7539-0.003906-0.003906c4.2891 4.1016 9.2773 7.4023 14.73 9.7461 1.4375 0.58594 3.0781-0.10156 3.668-1.543 0.58594-1.4375-0.10156-3.0781-1.543-3.668zm-12.375-61.602v0.003906c2.1094-0.76562 4.2852-1.3477 6.4961-1.7383-4.5938 9.3516-15.008 30.52-21.617 41.383v0.33594c-2.0938-1.5742-4.3438-2.9258-6.7188-4.0312 4.0703-11.637 9.7227-22.66 16.801-32.758 1.5703-1.1953 3.2578-2.2266 5.0391-3.082zm-315.45 7.6758c1.4062-0.4375 2.9062-0.4375 4.3125 0 3.9766 1.9609 6.1055 10.922 7.5039 16.801 0.50391 2.2383 1.0078 4.2578 1.5117 5.6016l11.199 34.496h-0.67187v-0.003906c-1.6992 0.53125-3.4961 0.68359-5.2617 0.44922-2.7227-0.91016-5.1797-2.4688-7.168-4.5391-3.4727-7.2812-5.6016-34.328-6.0469-44.129l-0.003906 0.003906c0-1.5469-1.2539-2.8008-2.7969-2.8008-1.5469 0-2.8008 1.2539-2.8008 2.8008 0.49609 13.152 1.9336 26.254 4.3125 39.199-2.75-1.625-6.0859-1.9102-9.0742-0.78516-0.44922-14.281-0.44922-32.48 0.39062-46.93l0.003906 0.003906c1.5312 0.097656 3.0703 0.039062 4.5898-0.16797zm-39.59 57.789-2.4648-2.0156-1.3984-1.0078h-0.003906c0.3125-0.21094 0.56641-0.5 0.73047-0.83984 8.4688-18.367 12.699-38.406 12.375-58.633 0.019532-0.18359 0.019532-0.37109 0-0.55859 2.5156-0.039062 5.0273 0.16797 7.5039 0.61719-1.5078 6.1953-2.6289 12.48-3.3594 18.816-0.16406 1.5273 0.9375 2.9023 2.4648 3.0781h0.33594c1.4023-0.019531 2.5742-1.0703 2.7422-2.4648 0.74609-6.1211 1.832-12.195 3.25-18.199l3.6953 1.3984 3.6953 1.457c-0.95312 16.801-0.83984 38.359 0 53.48l-0.50391 0.78516-1.8477 2.5742c-1.1211 1.5664-2.7422 3.3594-4.4258 5.2656-3.1172 3.2773-5.9453 6.8203-8.4531 10.582l-2.9102-3.1367-0.003906 0.003906c-3.582-3.957-7.3984-7.6992-11.422-11.203zm97.773 137.65c7.9102-5.7109 15.297-12.121 22.066-19.152 2.9102-2.8008 5.9375-5.6016 9.2969-8.9023h-0.003906c1.0742-1.1094 1.0742-2.8672 0-3.9766-0.52344-0.53125-1.2383-0.82812-1.9883-0.82812-0.74609 0-1.4609 0.29688-1.9844 0.82812-3.4141 3.1367-6.4961 6.1602-9.4062 9.0156h-0.003906c-7.7539 8.1523-16.438 15.371-25.871 21.504-4.0898-0.89453-8.1211-1.9609-12.098-3.0234l4.0898-2.8008c17.809-12.039 34.664-23.465 47.039-42.84 11.301-18.469 25.719-34.84 42.617-48.383 3.418-2.4375 7.1992-4.3242 11.199-5.6016-2.3867 4.3711-4.0508 9.0977-4.9297 14-11.199 5.2656-34.328 33.266-40.375 41.719v0.003906c-0.60938 0.85547-0.6875 1.9805-0.20312 2.9141 0.48438 0.92969 1.4492 1.5156 2.5 1.5078 0.89453 0.007812 1.7344-0.43359 2.2383-1.1758 10.191-13.855 21.852-26.566 34.777-37.91v5.6016-0.003906c0.027344 6.2734-0.64844 12.527-2.0156 18.648-8.793 3.4141-23.352 18.871-42.559 39.984-8.0625 8.8477-15.625 17.191-20.105 21-3.1875-0.12891-6.3633-0.42969-9.5195-0.89453zm73.359-40.32c-0.54297 6.9141-2.4453 13.652-5.5977 19.824-3.5664 4.582-8.0234 8.3945-13.105 11.199-4.9453 2.6055-9.3984 6.0547-13.16 10.195h-2.5742c-5.6016 0.33594-11.199 0.67188-16.801 0.78516 4.4258-4.4258 10.023-10.527 16.184-17.359 11.984-13.16 27.664-30.406 36.848-36.566l-0.55859 2.4648c-0.44922 3.4648-0.89844 6.4883-1.2344 9.457zm120.4-117.6c-11.984 7.2227-16.801 9.3516-31.191 7.5586-4.4258-0.55859-8.9023-1.3438-13.441-2.1289l0.003907 0.003906c-8.8516-1.8203-17.848-2.8672-26.879-3.1367h-0.44922c-22.398 0-41.383 35.672-49.617 51.52l-1.3984 0.95312c-17.48 13.902-32.383 30.773-44.016 49.84-11.762 18.426-27.383 29.008-45.473 41.215l-7 4.7617c-0.28516 0.21875-0.53125 0.48437-0.72656 0.78516l-5.6016-1.6797c-13.172-4.0703-26.605-7.2344-40.207-9.4648 2.4062-2.2383 5.6016-4.5352 8.3438-6.7773 3.9922-2.9766 7.7383-6.2695 11.199-9.8555 2.4141 2.7344 3.8164 6.2148 3.9766 9.8555 0.089844 1.4805 1.3164 2.6367 2.8008 2.6328 1.5312-0.11719 2.6953-1.4297 2.6328-2.9688-0.31641-5.3867-2.5391-10.488-6.2734-14.391-2.543-2.582-4.2266-5.8867-4.8164-9.4648-0.19141-2.375-0.078124-4.7656 0.33594-7.1094 0.99219-4.4531 0.60156-9.1055-1.1211-13.328-0.44531-0.92187-0.97266-1.8008-1.5664-2.6328-2.1523-3.293-6.0273-5.0195-9.9141-4.4258h-3.8086c-2.4062 0-4.0312-0.67188-4.5352-1.457-0.50391-0.78516 0.44922-5.6016 1.6797-9.2383 1.3711-3.457 2.3125-7.0664 2.8008-10.75-0.20312-4.4688-2.2266-8.6562-5.5977-11.594-2.9688-3.5859-4.7031-5.9375-3.9766-8.3984 2.2031-4.6914 5.2383-8.9414 8.9609-12.547 1.8477-2.0703 3.5273-3.9766 4.7617-5.6016 1.2305-1.625 1.3438-1.8477 1.9023-2.6875 3.6406-5.2656 4.0312-5.6016 9.1289-3.1367l-0.003906 0.003907c1.7773 1.043 3.4297 2.2812 4.9297 3.6953 2.7461 2.6602 6.1133 4.5859 9.8008 5.6016 2.5156 0.42578 5.0977 0.29297 7.5586-0.39453 2.0977-0.875 4.457-0.875 6.5508 0 2.3086 1.9883 4.2109 4.4023 5.6016 7.1133 1.1484 1.9844 2.4805 3.8594 3.9766 5.6016 5.3516 5.6523 11.477 10.516 18.199 14.445 13.969 7.6797 28.961 13.336 44.52 16.801 1.5156 0.39062 3.0625-0.50781 3.4727-2.0156 0.32813-1.4922-0.55469-2.9805-2.0156-3.418-15.07-3.2891-29.59-8.7227-43.121-16.125-6.2031-3.6016-11.863-8.0703-16.801-13.273-1.25-1.4883-2.375-3.082-3.3594-4.7617-1.8594-3.5703-4.5469-6.6406-7.8398-8.957-1.4336-0.78125-3.0195-1.2422-4.6484-1.3438 0.16797-0.51172 0.16797-1.0586 0-1.5703l-0.83984-2.6875c5.6523-0.050781 11.254 1.0547 16.465 3.25 4.1445 1.5938 8.4414 2.7578 12.824 3.4688 2.707 0.39062 5.4414 0.57422 8.1758 0.5625 9.3125-0.28906 18.578-1.4688 27.664-3.5273 8.5-1.7852 17.195-2.4648 25.871-2.0156 6.0508 0.011718 11.84-2.457 16.016-6.832 2.3984-2.4414 5.2773-4.3477 8.457-5.6016 0.22656 0.09375 0.43359 0.22656 0.61719 0.39062 1.543 1.332 3.6875 1.7188 5.5977 1.0078 3.9336-1.8906 7.4688-4.5117 10.418-7.7266l2.0156-1.9023c1.5664-1.457 3.0234-2.9102 4.4258-4.3125 5.6016-5.6016 9.5195-9.6875 17.359-9.1836h8.9609-0.003906c-1.3906 2.6211-2.6094 5.332-3.6367 8.1172-0.61719 1.5664-1.1211 2.9102-1.5117 3.6406h-0.003906c-0.40234 0.63281-0.53125 1.4062-0.35156 2.1367 0.17969 0.73047 0.65234 1.3555 1.3047 1.7266 0.44922 0.24219 0.94922 0.375 1.457 0.39453 0.98047-0.003906 1.8828-0.53906 2.3516-1.4023 0.78125-1.4336 1.4375-2.9297 1.9609-4.4805 0.95312-2.3516 3.6953-9.4062 5.3203-10.023 3.1562 0.15234 6.2891 0.62109 9.3516 1.4023 5.2344 1.4648 10.738 1.6758 16.07 0.61328-2.8008 3.1953-5.2422 6.6875-7.2773 10.418-0.35938 0.64453-0.4375 1.4062-0.23047 2.1094 0.21094 0.70703 0.69922 1.2969 1.3477 1.6406 0.41797 0.21875 0.875 0.33203 1.3438 0.33594 1.0312 0.015624 1.9805-0.54688 2.4648-1.4531 4.582-7.8203 10.586-14.715 17.695-20.328h0.39062l0.33594-0.33594c3.418-3.1367 7.0586-5.8242 10.473-8.7383-1.3906 4.7188-2.3477 9.5547-2.8555 14.449-0.16406 1.5273 0.9375 2.9023 2.4648 3.0781h0.33594c1.4336-0.015624 2.6328-1.0938 2.8008-2.5195 0.49609-7.8984 2.8359-15.566 6.832-22.398l2.1836-1.793c3.5273-3.0234 8.6797-7.6172 11.703-7.6172-3.5703 10.777-8.0117 21.246-13.27 31.305-0.43359 0.60156-0.60547 1.3477-0.47656 2.0742 0.125 0.72656 0.53906 1.3711 1.1484 1.7891 0.46094 0.36719 1.0352 0.56641 1.6211 0.5625 0.91016-0.003906 1.7617-0.44141 2.2969-1.1758 5.3438-9.9609 9.8203-20.359 13.387-31.082 0.61719 0.72656 1.2891 1.5664 1.9023 2.4062v0.003906c1.8945 2.8047 4.332 5.207 7.168 7.0547-1.1758 1.793-2.6328 4.1445-4.4258 7.0547s-3.6953 6.1602-4.6484 7.3906l0.003907 0.003906c-0.6875 0.83594-0.81641 1.9961-0.33203 2.9648s1.4883 1.5586 2.5703 1.5156c0.85156-0.011719 1.6523-0.40234 2.1836-1.0664 1.1211-1.457 2.9102-4.4258 5.0391-7.8945 2.1289-3.4727 4.1992-6.8867 5.6016-8.7344v-0.003906c1.1797-0.20703 2.3281-0.5625 3.4141-1.0625-4.5078 7.6406-8.2617 15.707-11.199 24.082-0.78516 0-1.5117-0.39063-2.3516-0.50391-10.527-1.0664-22.512 4.9805-33.879 11.703z"/>
  <path d="m623.22 233.74c-26.434-12.676-50.066-30.516-69.496-52.469-1.1055-1.0742-2.8672-1.0742-3.9727 0-1.0742 1.1055-1.0742 2.8672 0 3.9727 19.93 22.5 44.145 40.793 71.23 53.816 0.40625 0.078125 0.82422 0.078125 1.2305 0 1.3086 0.007812 2.4453-0.89453 2.7422-2.168 0.29297-1.2734-0.33203-2.582-1.5078-3.1523z"/>
  <path d="m542.92 208.77c9.6641 6.293 17.293 15.262 21.949 25.816 0.44922 1.0234 1.4609 1.6836 2.5781 1.6797 0.36719 0.078125 0.75 0.078125 1.1172 0 1.3984-0.61719 2.043-2.2344 1.457-3.6406-5.1562-11.41-13.449-21.121-23.91-28-2.1836-1.5117-4.5352-2.9102-6.8867-4.3125-7.2812-4.3672-14.168-8.457-16.801-16.07v-0.003907c-0.19531-0.76953-0.71094-1.4258-1.418-1.793-0.70703-0.37109-1.5391-0.42187-2.2852-0.14062s-1.3359 0.86719-1.625 1.6094c-0.28906 0.74609-0.24609 1.5742 0.11719 2.2852 3.5273 9.4062 11.594 14.281 19.375 18.93 2.0195 0.83984 4.2578 2.0703 6.332 3.6406z"/>
  <path d="m502.88 89.938c-0.61328-0.42188-1.3672-0.57422-2.0977-0.42969-0.72656 0.14844-1.3633 0.58594-1.7656 1.2109-0.84375 1.2852-0.49219 3.0117 0.78516 3.8672 8.1133 5.9844 15.207 13.246 21 21.504 0.53906 0.68359 1.3672 1.0742 2.2383 1.0625 0.625-0.003906 1.2305-0.19922 1.7383-0.55859 1.1797-1 1.375-2.7422 0.44531-3.9766-6.1523-8.7344-13.703-16.398-22.344-22.68z"/>
  <path d="m240.52 136.41c0.86719-1.2812 0.52734-3.0234-0.75391-3.8906-1.2852-0.86719-3.0273-0.52734-3.8945 0.75781l-1.1758 1.7344c-9.2695 14.508-20.086 27.973-32.254 40.152-1.9609 1.8477-4.5352 3.8086-7.2227 5.9375-10.137 7.7852-22.734 17.473-18.312 31.695h-0.003906c0.37109 1.1719 1.4609 1.9648 2.6914 1.9609 0.27734 0.050781 0.5625 0.050781 0.83984 0 1.4609-0.45703 2.2852-2.0039 1.8477-3.4727-3.3047-10.527 7.168-18.535 16.352-25.648 2.8555-2.1836 5.6016-4.2578 7.6719-6.2734 12.441-12.453 23.5-26.215 32.984-41.047z"/>
  <path d="m362.88 139.55c-8.2305-1.3438-27.105-13.609-50.398-32.871l-0.67188-0.28125c-0.56641-0.47656-1.3047-0.70703-2.043-0.63281s-1.418 0.44531-1.8789 1.0273c-0.96484 1.1914-0.78906 2.9414 0.39453 3.918l0.67188 0.50391c1.625 1.3984 3.4727 2.9102 5.6016 4.4805h-0.003907c-2.9883 9.3086-6.7344 18.352-11.199 27.047-0.32812 0.67187-0.375 1.4414-0.13281 2.1445 0.23828 0.70312 0.75 1.2852 1.4219 1.6094 0.37109 0.22266 0.79688 0.33594 1.2305 0.33594 1.0625-0.023437 2.0312-0.625 2.5195-1.5664 4.2109-8.3906 7.9531-17.012 11.203-25.816 2.4062 1.9609 4.9844 3.8633 7.6172 5.6016l-0.003907-0.003906c-0.91406 3.5977-2.0547 7.1328-3.4141 10.586-2.1016 5.2031-3.5859 10.633-4.4258 16.184-0.11328 0.73438 0.074218 1.4844 0.51562 2.082 0.44141 0.60156 1.1016 1 1.8359 1.1094h0.28125c1.3672-0.007812 2.5273-1.0039 2.7422-2.3516 0.75-5.1562 2.1445-10.199 4.1445-15.008 1.0078-2.7422 2.0703-5.6016 3.0234-9.0156 2.5195 1.793 5.0391 3.5859 7.5586 5.207v3.8086h0.003906c-0.88281 5.2969-0.24219 10.734 1.8477 15.68 0.43359 1.0352 1.4531 1.6992 2.5742 1.6797 0.35547 0.058594 0.71484 0.058594 1.0664 0 0.69531-0.28516 1.2461-0.83594 1.5312-1.5312 0.28125-0.69531 0.27734-1.4766-0.019532-2.1641-1.9766-4.1055-2.6992-8.7031-2.0742-13.215v-0.83984c5.2969 3.582 11.168 6.2344 17.363 7.8398h0.44922-0.003907c1.3672-0.011718 2.5273-1.0039 2.7461-2.3555 0.27734-1.4453-0.63672-2.8555-2.0742-3.1914z"/>
  <path d="m139.61 177.86c0.46875-0.003907 0.92578-0.11719 1.3438-0.33594 12.266-6.6641 20.105-18.312 27.609-29.566h-0.003906c5.3672-8.8633 11.988-16.898 19.656-23.855 1.1836-0.98047 1.3594-2.7266 0.39453-3.9219-0.96484-1.1992-2.7148-1.4023-3.9219-0.44922-8.1133 7.3242-15.113 15.797-20.777 25.145-7.5039 11.199-14.559 21.727-25.648 27.719l0.003906 0.003906c-0.65625 0.35156-1.1445 0.95312-1.3516 1.668-0.21094 0.71484-0.12891 1.4844 0.23047 2.1367 0.5 0.89453 1.4414 1.4492 2.4648 1.457z"/>
  <path d="m81.93 238.17c1.207-0.015625 2.2695-0.80859 2.6289-1.9609 3.9297-8.9688 9.4102-17.176 16.184-24.246 4.6836-5.25 8.9375-10.867 12.715-16.801 0.39453-0.64062 0.51562-1.4102 0.33594-2.1406-0.17969-0.72656-0.64453-1.3555-1.293-1.7383-0.64453-0.38281-1.418-0.48828-2.1445-0.29688-0.72656 0.19141-1.3438 0.66797-1.7148 1.3203-3.6133 5.6562-7.6797 11.012-12.152 16.016-7.2969 7.5938-13.141 16.457-17.25 26.152-0.22266 0.72656-0.14062 1.5156 0.23047 2.1797 0.37109 0.66797 0.99609 1.1523 1.7305 1.3477 0.23438 0.09375 0.48047 0.14844 0.73047 0.16797z"/>
  <path d="m253.18 136.47c0.94922-0.011718 1.832-0.49609 2.3516-1.2891 3.2812-5.2539 6.2188-10.715 8.793-16.352 0.52344-1.3828-0.12109-2.9375-1.4688-3.543-1.3477-0.60937-2.9375-0.0625-3.6289 1.2461-2.4492 5.3984-5.2734 10.621-8.4531 15.625-0.79297 1.3203-0.39453 3.0273 0.89453 3.8633 0.4375 0.31641 0.97266 0.47266 1.5117 0.44922z"/>
  <path d="m230.95 178.41c-9.0703 9.9102-35 36.625-42.391 40.992h-0.003907c-1.0781 0.64062-1.6016 1.9258-1.2734 3.1367 0.32422 1.2109 1.418 2.0586 2.6758 2.0742 0.49219 0.003906 0.97656-0.13281 1.3984-0.39453 9.2383-5.6016 38.695-36.512 43.734-42.055h0.003906c0.92578-1.1562 0.79297-2.8359-0.30469-3.8281-1.1016-0.99609-2.7812-0.96094-3.8398 0.074218z"/>
  <path d="m140.5 254.46c1.0391-0.007813 1.9883-0.58984 2.4648-1.5117 2.5156-2.9531 5.625-5.3359 9.1289-7 3.1016-1.6172 5.9805-3.6328 8.5664-5.9922 0.57813-0.52344 0.91406-1.2617 0.92578-2.0391 0.015625-0.77734-0.29688-1.5273-0.85938-2.0664-0.5625-0.53906-1.3242-0.81641-2.1016-0.77344-0.77734 0.046875-1.5 0.41406-1.9961 1.0156-2.2656 1.9531-4.7461 3.6445-7.3945 5.0391-4.4336 2.0859-8.2812 5.2422-11.199 9.1836-0.71484 1.3633-0.21875 3.0469 1.1211 3.8086 0.41406 0.21484 0.875 0.33203 1.3438 0.33594z"/>
  <path d="m118.55 254.97c0.98438 0.003906 1.8984-0.50391 2.4102-1.3438l7.3906-12.098c0.46484-0.63281 0.64063-1.4297 0.49219-2.1953-0.15234-0.76953-0.61719-1.4414-1.2891-1.8516-0.66797-0.40625-1.4766-0.51562-2.2305-0.30078-0.75391 0.21484-1.3828 0.73437-1.7305 1.4375l-7.3945 12.094c-0.39453 0.63281-0.52344 1.3945-0.35156 2.1172 0.16797 0.72656 0.61719 1.3555 1.25 1.7461 0.4375 0.26953 0.94141 0.40625 1.4531 0.39453z"/>
  <path d="m75.098 300.5c0.39453 1.1719 1.5078 1.9453 2.7422 1.9023 0.22266 0.054687 0.45312 0.054687 0.67188 0 19.266-5.0391 39.199-9.5195 58.406-13.273l0.003906 0.003906c0.73047-0.12109 1.3828-0.53906 1.8086-1.1484 0.42188-0.61328 0.57812-1.3711 0.42969-2.1016-0.28516-1.5117-1.7344-2.5117-3.25-2.2383-19.656 3.7539-39.199 8.2891-58.801 13.383h0.003906c-0.73438 0.18359-1.3633 0.65625-1.7422 1.3125-0.37891 0.65234-0.48047 1.4336-0.27344 2.1602z"/>
  <path d="m619.86 109.37c1.1758 1.0078 2.9453 0.86719 3.9492-0.30859 1.0039-1.1758 0.86719-2.9414-0.30859-3.9453-2.832-2.5625-5.5078-5.293-8.0078-8.1758-5.6016-6.3828-12.543-13.719-19.152-15.961-1.4219-0.49609-2.9805 0.22266-3.5273 1.625-6.6641 17.586-2.3516 38.527 0 48.609 0.33594 1.625 0.61719 2.9688 0.72656 3.9219 0.11328 0.95313 1.8477 6.2734 5.1523 15.625 6.3828 18.145 18.258 52.023 16.801 60.09v-0.007812c-0.3125 1.5273 0.66016 3.0234 2.1836 3.3594h0.55859c1.332 0 2.4805-0.93359 2.7461-2.2383 1.8477-8.9023-7.2227-36.062-16.801-63.168-2.4062-6.832-4.6484-13.328-4.8711-14.559s-0.44922-2.4648-0.78516-4.1992c-1.8477-9.0156-5.6016-27.16-0.95312-42.617v-0.003907c5.168 3.8281 9.8008 8.332 13.777 13.387 2.6562 3.0312 5.5 5.8945 8.5117 8.5664z"/>
  <path d="m600.6 96.992c-1.4141 0.66016-2.0352 2.3281-1.4023 3.75 2.5703 5.543 5.625 10.848 9.1289 15.852 0.50781 0.76953 1.3711 1.2305 2.2969 1.2305 0.5625 0.003906 1.1133-0.17188 1.5664-0.50391 0.62109-0.42187 1.0469-1.0703 1.1836-1.8086 0.13672-0.73438-0.027344-1.4961-0.45312-2.1133-3.3047-4.7422-6.1914-9.7656-8.625-15.008-0.63672-1.4023-2.2891-2.0312-3.6953-1.3984z"/>
  <path d="m621.1 54.879-1.3438 1.9023v0.003906c-3.3125 4.25-6.1484 8.8516-8.457 13.719-0.30078 0.68359-0.31641 1.457-0.042969 2.1523 0.27344 0.69141 0.8125 1.25 1.5 1.543 0.36719 0.085937 0.75 0.085937 1.1172 0 1.1172 0.003906 2.1289-0.65625 2.5781-1.6797 2.1836-4.4219 4.8516-8.5938 7.9492-12.43l1.3984-1.9609h0.003906c0.89453-1.2695 0.59375-3.0234-0.67188-3.9219-1.2695-0.89453-3.0234-0.59375-3.9219 0.67188z"/>
  <path d="m499.57 242.59c-0.32422 0.71484-0.33594 1.5352-0.027344 2.2617 0.30859 0.72266 0.91016 1.2852 1.6523 1.543 0.37109 0.082031 0.75 0.082031 1.1211 0 1.1367 0.011718 2.1602-0.67969 2.5742-1.7344 1.8281-5.0234 2.7227-10.336 2.6328-15.68 0-2.4648 0-4.8164 0.55859-7.168 7.0547 11.199 16.801 26.602 17.641 32.648 0.19531 1.3711 1.3594 2.3945 2.7461 2.4062h0.39062c1.5312-0.20312 2.6055-1.6055 2.4102-3.1367-1.0625-7.5586-11.199-23.688-21.504-39.535-2.3516-3.5859-4.2578-6.5508-5.6016-8.2891-3.1602-4.9844-7.9805-8.6914-13.609-10.469-5.2812-1.7539-10.691-3.082-16.184-3.9766-10.023-1.8477-19.488-3.6406-24.359-9.5742v-0.003906c-0.46875-0.57031-1.1484-0.92969-1.8867-0.99609-0.74219-0.0625-1.4727 0.17578-2.0312 0.66016-0.58203 0.46094-0.95312 1.1406-1.0273 1.8789-0.074218 0.73828 0.15625 1.4766 0.63281 2.043 6.1602 7.5039 16.801 9.5195 27.609 11.48 4.7695 0.80469 9.4805 1.9102 14.113 3.3047 0.35156 6.2656 0.070313 12.551-0.83984 18.758-0.94141 5.8477-1.207 11.789-0.78516 17.695 0.21875 1.3477 1.3789 2.3438 2.7422 2.3516h0.44922c0.73437-0.10938 1.3984-0.50781 1.8398-1.1055 0.44141-0.60156 0.625-1.3516 0.51172-2.0859-0.30078-5.4258-0.039062-10.867 0.78516-16.238 0.74219-5.5703 1.1133-11.184 1.1172-16.801 2.5469 1.3906 4.6875 3.418 6.2188 5.8789 0.83984 1.5117 2.3516 3.8086 4.1992 6.6094-1.2305 4.3945-1.8711 8.9336-1.9023 13.496 0.089843 4.6836-0.65234 9.3477-2.1875 13.777z"/>
  <path d="m240.69 499.13c-19.488-1.1758-71.793-4.8711-80.473-8.1758-11.199-4.3125-35.504-2.1289-43.793 4.0312h0.003906c-0.69141 0.39844-1.1758 1.0742-1.3359 1.8516-0.16406 0.78125 0.015625 1.5898 0.48828 2.2305s1.1953 1.0508 1.9844 1.125c0.79297 0.078125 1.582-0.1875 2.1641-0.72656 6.3281-4.7031 28-7.2227 38.527-3.3047 10.527 3.9219 79.184 8.3438 82.098 8.5117 1.4922-0.027344 2.7109-1.1992 2.8008-2.6875 0.039062-1.4453-1.0273-2.6836-2.4648-2.8555z"/>
  <path d="m372.4 436.8c-1.6016-2.0156-4.0312-3.1914-6.6055-3.1914-8.4336 0.46875-16.512 3.543-23.129 8.7891-0.53125 0.52734-0.82812 1.2422-0.82812 1.9883 0 0.74609 0.29687 1.4648 0.82812 1.9883 1.1094 1.0742 2.8672 1.0742 3.9766 0 5.3828-4.2109 11.848-6.8086 18.648-7.5039 0.92188-0.066406 1.8281 0.28125 2.4648 0.95312 4.9609 5.5898 10.605 10.539 16.797 14.727 0.45703 0.33203 1.0078 0.50781 1.5703 0.50391 1.25 0.023437 2.3633-0.78516 2.7266-1.9844 0.36328-1.1953-0.10938-2.4883-1.1602-3.168-5.6016-3.7422-10.734-8.1406-15.289-13.102z"/>
  <path d="m490 288.62c-2.2617-1.332-4.7812-2.1719-7.3906-2.4648-4.6016 0.46484-9.0234 2.0391-12.883 4.5938-1.3281 0.80078-1.7539 2.5312-0.94922 3.8633 0.80469 1.3281 2.5312 1.7539 3.8633 0.94922 2.8789-1.9453 6.1445-3.2461 9.5742-3.8047 1.8398 0.26953 3.6094 0.89844 5.2109 1.8477 1.543 0.8125 3.1328 1.543 4.7578 2.1836h0.95312c1.1992 0.007812 2.2656-0.76172 2.6328-1.9062 0.52344-1.4531-0.22656-3.0547-1.6797-3.582-1.4062-0.45313-2.7734-1.0156-4.0898-1.6797z"/>
  <path d="m270.59 357.73c-6.6523-2.1758-13.113-4.8906-19.32-8.1172-3.8633-4.9297-16.465-0.95312-23.688 1.9023-1.4414 0.57422-2.1406 2.2031-1.5703 3.6406 0.57422 1.4375 2.2031 2.1406 3.6406 1.5664 11.871-4.7031 16.801-3.9766 17.191-3.6406 6.7695 4.3711 14.148 7.7109 21.895 9.9141 0.29687 0.054687 0.60156 0.054687 0.89844 0 1.1992 0.007812 2.2656-0.76172 2.6328-1.9023 0.44531-1.3906-0.30078-2.8828-1.6797-3.3633z"/>
 
 </g>
</svg>
