<?xml version="1.0" encoding="UTF-8"?>
<svg width="700pt" height="700pt" version="1.1" viewBox="0 0 700 700" xmlns="http://www.w3.org/2000/svg" xmlns:xlink="http://www.w3.org/1999/xlink">
 <defs>
  <symbol id="t" overflow="visible">
   <path d="m3.6562-0.21875c-0.1875 0.09375-0.38672 0.16797-0.59375 0.21875-0.19922 0.050781-0.40625 0.078125-0.625 0.078125-0.66797 0-1.1992-0.17969-1.5938-0.54688-0.38672-0.375-0.57812-0.87891-0.57812-1.5156 0-0.64453 0.19141-1.1484 0.57812-1.5156 0.39453-0.375 0.92578-0.5625 1.5938-0.5625 0.21875 0 0.42578 0.027344 0.625 0.078125 0.20703 0.054687 0.40625 0.125 0.59375 0.21875v0.82812c-0.1875-0.125-0.375-0.21875-0.5625-0.28125-0.17969-0.0625-0.37109-0.09375-0.57812-0.09375-0.36719 0-0.65625 0.12109-0.875 0.35938-0.21094 0.23047-0.3125 0.55469-0.3125 0.96875 0 0.40625 0.10156 0.73047 0.3125 0.96875 0.21875 0.23047 0.50781 0.34375 0.875 0.34375 0.20703 0 0.39844-0.023437 0.57812-0.078125 0.1875-0.0625 0.375-0.16016 0.5625-0.29688z"/>
  </symbol>
  <symbol id="c" overflow="visible">
   <path d="m2.6875-2.1719c-0.085938-0.039063-0.16797-0.070313-0.25-0.09375-0.085938-0.019531-0.16797-0.03125-0.25-0.03125-0.25 0-0.44531 0.085937-0.57812 0.25-0.125 0.15625-0.1875 0.38281-0.1875 0.67188v1.375h-0.96875v-2.9844h0.96875v0.48438c0.11328-0.19531 0.25-0.33594 0.40625-0.42188 0.16406-0.09375 0.35938-0.14062 0.57812-0.14062h0.10938c0.039063 0 0.09375 0.007812 0.15625 0.015625z"/>
  </symbol>
  <symbol id="b" overflow="visible">
   <path d="m3.4375-1.5v0.26562h-2.2344c0.03125 0.23047 0.11328 0.40234 0.25 0.51562 0.13281 0.10547 0.32812 0.15625 0.57812 0.15625 0.20703 0 0.41406-0.023438 0.625-0.078125 0.20703-0.0625 0.42188-0.15625 0.64062-0.28125v0.73438c-0.21875 0.09375-0.44531 0.16406-0.67188 0.20312-0.23047 0.039062-0.45312 0.0625-0.67188 0.0625-0.54297 0-0.96484-0.13281-1.2656-0.40625-0.30469-0.28125-0.45312-0.67188-0.45312-1.1719 0-0.47656 0.14453-0.85938 0.4375-1.1406 0.30078-0.28125 0.70703-0.42188 1.2188-0.42188 0.46875 0 0.84375 0.14062 1.125 0.42188s0.42188 0.66406 0.42188 1.1406zm-0.96875-0.32812c0-0.17578-0.058594-0.31641-0.17188-0.42188-0.10547-0.11328-0.24219-0.17188-0.40625-0.17188-0.1875 0-0.33984 0.054687-0.45312 0.15625-0.11719 0.10547-0.1875 0.25-0.21875 0.4375z"/>
  </symbol>
  <symbol id="d" overflow="visible">
   <path d="m1.7969-1.3438c-0.19922 0-0.35156 0.039062-0.45312 0.10938-0.09375 0.0625-0.14062 0.16406-0.14062 0.29688 0 0.11719 0.035156 0.21094 0.10938 0.28125 0.082031 0.0625 0.19531 0.09375 0.34375 0.09375 0.17578 0 0.32812-0.0625 0.45312-0.1875s0.1875-0.28516 0.1875-0.48438v-0.10938zm1.4688-0.35938v1.7031h-0.96875v-0.4375c-0.125 0.17969-0.27344 0.30859-0.4375 0.39062-0.15625 0.082031-0.35156 0.125-0.57812 0.125-0.3125 0-0.57031-0.085938-0.76562-0.26562-0.1875-0.1875-0.28125-0.42188-0.28125-0.70312 0-0.35156 0.11719-0.61328 0.35938-0.78125 0.23828-0.16406 0.61719-0.25 1.1406-0.25h0.5625v-0.0625c0-0.15625-0.0625-0.26562-0.1875-0.32812-0.11719-0.070312-0.29688-0.10938-0.54688-0.10938-0.21094 0-0.40234 0.023437-0.57812 0.0625-0.17969 0.042969-0.33984 0.10156-0.48438 0.17188v-0.71875c0.19531-0.050781 0.39844-0.085938 0.60938-0.10938 0.20703-0.03125 0.41406-0.046875 0.625-0.046875 0.53906 0 0.92969 0.10938 1.1719 0.32812 0.23828 0.21094 0.35938 0.55469 0.35938 1.0312z"/>
  </symbol>
  <symbol id="a" overflow="visible">
   <path d="m1.5-3.8438v0.85938h0.98438v0.67188h-0.98438v1.2812c0 0.13672 0.023438 0.23047 0.078125 0.28125 0.0625 0.042969 0.17578 0.0625 0.34375 0.0625h0.48438v0.6875h-0.8125c-0.38672 0-0.65625-0.078125-0.8125-0.23438s-0.23438-0.42188-0.23438-0.79688v-1.2812h-0.46875v-0.67188h0.46875v-0.85938z"/>
  </symbol>
  <symbol id="i" overflow="visible">
   <path d="m2.5-2.5469v-1.6094h0.95312v4.1562h-0.95312v-0.4375c-0.13672 0.17969-0.28125 0.30859-0.4375 0.39062-0.15625 0.082031-0.33984 0.125-0.54688 0.125-0.375 0-0.68359-0.14453-0.92188-0.4375-0.23047-0.28906-0.34375-0.67188-0.34375-1.1406 0-0.45703 0.11328-0.83203 0.34375-1.125 0.23828-0.28906 0.54688-0.4375 0.92188-0.4375 0.19531 0 0.375 0.042969 0.53125 0.125 0.16406 0.085938 0.31641 0.21484 0.45312 0.39062zm-0.64062 1.9375c0.20703 0 0.36328-0.070313 0.46875-0.21875 0.11328-0.15625 0.17188-0.37891 0.17188-0.67188 0-0.28125-0.058594-0.49219-0.17188-0.64062-0.10547-0.15625-0.26172-0.23438-0.46875-0.23438-0.19922 0-0.35547 0.078125-0.46875 0.23438-0.10547 0.14844-0.15625 0.35938-0.15625 0.64062 0 0.29297 0.050781 0.51562 0.15625 0.67188 0.11328 0.14844 0.26953 0.21875 0.46875 0.21875z"/>
  </symbol>
  <symbol id="h" overflow="visible">
   <path d="m2.0469-0.60938c0.20703 0 0.36328-0.070313 0.46875-0.21875 0.11328-0.15625 0.17188-0.37891 0.17188-0.67188 0-0.28125-0.058594-0.49219-0.17188-0.64062-0.10547-0.15625-0.26172-0.23438-0.46875-0.23438-0.19922 0-0.35547 0.078125-0.46875 0.23438-0.10547 0.14844-0.15625 0.35938-0.15625 0.64062 0 0.29297 0.050781 0.51562 0.15625 0.67188 0.11328 0.14844 0.26953 0.21875 0.46875 0.21875zm-0.625-1.9375c0.125-0.17578 0.26562-0.30469 0.42188-0.39062 0.16406-0.082031 0.35156-0.125 0.5625-0.125 0.36328 0 0.66406 0.14844 0.90625 0.4375 0.23828 0.29297 0.35938 0.66797 0.35938 1.125 0 0.46875-0.12109 0.85156-0.35938 1.1406-0.24219 0.29297-0.54297 0.4375-0.90625 0.4375-0.21094 0-0.39844-0.042969-0.5625-0.125-0.15625-0.082031-0.29688-0.21094-0.42188-0.39062v0.4375h-0.96875v-4.1562h0.96875z"/>
  </symbol>
  <symbol id="g" overflow="visible">
   <path d="m0.0625-2.9844h0.95312l0.8125 2.0156 0.6875-2.0156h0.95312l-1.2656 3.2656c-0.125 0.33203-0.27344 0.56641-0.4375 0.70312-0.16797 0.13281-0.39062 0.20312-0.67188 0.20312h-0.54688v-0.64062h0.29688c0.16406 0 0.28516-0.027344 0.35938-0.078125 0.070313-0.054688 0.12891-0.14062 0.17188-0.26562l0.03125-0.09375z"/>
  </symbol>
  <symbol id="f" overflow="visible">
   <path d="m0.5-3.9844h2.7812v0.78125h-1.75v0.73438h1.6406v0.78125h-1.6406v1.6875h-1.0312z"/>
  </symbol>
  <symbol id="s" overflow="visible">
   <path d="m0.45312-4.1562h0.96875v4.1562h-0.96875z"/>
  </symbol>
  <symbol id="r" overflow="visible">
   <path d="m2.4219-4.1562v0.625h-0.51562c-0.13672 0-0.23438 0.027344-0.29688 0.078125-0.054687 0.054687-0.078125 0.13672-0.078125 0.25v0.21875h0.82812v0.67188h-0.82812v2.3125h-0.95312v-2.3125h-0.46875v-0.67188h0.46875v-0.21875c0-0.32031 0.085937-0.5625 0.26562-0.71875 0.1875-0.15625 0.47266-0.23438 0.85938-0.23438z"/>
  </symbol>
  <symbol id="e" overflow="visible">
   <path d="m1.875-2.375c-0.21094 0-0.37109 0.078125-0.48438 0.23438-0.10547 0.14844-0.15625 0.35938-0.15625 0.64062 0 0.29297 0.050781 0.51562 0.15625 0.67188 0.11328 0.14844 0.27344 0.21875 0.48438 0.21875 0.20703 0 0.36719-0.070313 0.48438-0.21875 0.11328-0.15625 0.17188-0.37891 0.17188-0.67188 0-0.28125-0.058594-0.49219-0.17188-0.64062-0.11719-0.15625-0.27734-0.23438-0.48438-0.23438zm0-0.6875c0.51953 0 0.92188 0.14062 1.2031 0.42188 0.28906 0.27344 0.4375 0.65234 0.4375 1.1406 0 0.5-0.14844 0.89062-0.4375 1.1719-0.28125 0.27344-0.68359 0.40625-1.2031 0.40625-0.51172 0-0.91406-0.13281-1.2031-0.40625-0.29297-0.28125-0.4375-0.67188-0.4375-1.1719 0-0.48828 0.14453-0.86719 0.4375-1.1406 0.28906-0.28125 0.69141-0.42188 1.2031-0.42188z"/>
  </symbol>
  <symbol id="q" overflow="visible">
   <path d="m3.2344-2.5c0.11328-0.17578 0.25391-0.3125 0.42188-0.40625 0.16406-0.10156 0.35156-0.15625 0.5625-0.15625 0.33203 0 0.58594 0.10938 0.76562 0.32812 0.1875 0.21094 0.28125 0.51172 0.28125 0.90625v1.8281h-0.96875v-1.5625c0.007813-0.019531 0.015625-0.039062 0.015625-0.0625v-0.10938c0-0.21875-0.03125-0.375-0.09375-0.46875s-0.16406-0.14062-0.29688-0.14062c-0.1875 0-0.33594 0.078125-0.4375 0.23438-0.09375 0.14844-0.14062 0.35938-0.14062 0.64062v1.4688h-0.96875v-1.5625c0-0.33203-0.03125-0.54688-0.09375-0.64062-0.054688-0.09375-0.15234-0.14062-0.29688-0.14062-0.17969 0-0.32031 0.078125-0.42188 0.23438-0.09375 0.14844-0.14062 0.35938-0.14062 0.64062v1.4688h-0.96875v-2.9844h0.96875v0.4375c0.11328-0.17578 0.24219-0.30469 0.39062-0.39062 0.15625-0.082031 0.32812-0.125 0.51562-0.125 0.20703 0 0.39062 0.054688 0.54688 0.15625 0.15625 0.09375 0.27344 0.23047 0.35938 0.40625z"/>
  </symbol>
  <symbol id="p" overflow="visible">
   <path d="m3.4688-1.8281v1.8281h-0.96875v-1.3906c0-0.25781-0.007812-0.4375-0.015625-0.53125-0.011719-0.10156-0.03125-0.17578-0.0625-0.21875-0.03125-0.0625-0.085937-0.10938-0.15625-0.14062-0.0625-0.039062-0.13281-0.0625-0.20312-0.0625-0.21094 0-0.37109 0.078125-0.48438 0.23438-0.10547 0.15625-0.15625 0.37109-0.15625 0.64062v1.4688h-0.96875v-4.1562h0.96875v1.6094c0.13281-0.17578 0.28516-0.30469 0.45312-0.39062 0.16406-0.082031 0.34375-0.125 0.53125-0.125 0.34375 0 0.60156 0.10938 0.78125 0.32812 0.1875 0.21094 0.28125 0.51172 0.28125 0.90625z"/>
  </symbol>
  <symbol id="o" overflow="visible">
   <path d="m0.5-3.9844h1.1562l1.4375 2.7344v-2.7344h0.98438v3.9844h-1.1562l-1.4375-2.7344v2.7344h-0.98438z"/>
  </symbol>
  <symbol id="n" overflow="visible">
   <path d="m0.42188-1.1719v-1.8125h0.96875v0.29688 0.60938 0.48438c0 0.24219 0.003906 0.41797 0.015625 0.53125 0.007812 0.10547 0.03125 0.17969 0.0625 0.21875 0.039062 0.0625 0.09375 0.11719 0.15625 0.15625 0.0625 0.03125 0.13281 0.046875 0.21875 0.046875 0.19531 0 0.35156-0.078125 0.46875-0.23438 0.11328-0.15625 0.17188-0.36719 0.17188-0.64062v-1.4688h0.95312v2.9844h-0.95312v-0.4375c-0.14844 0.17969-0.30469 0.30859-0.46875 0.39062-0.15625 0.082031-0.33594 0.125-0.53125 0.125-0.34375 0-0.60938-0.10156-0.79688-0.3125-0.17969-0.21875-0.26562-0.53125-0.26562-0.9375z"/>
  </symbol>
  <symbol id="m" overflow="visible">
   <path d="m3.4688-1.8281v1.8281h-0.96875v-1.3906c0-0.25781-0.007812-0.4375-0.015625-0.53125-0.011719-0.10156-0.03125-0.17578-0.0625-0.21875-0.03125-0.0625-0.085937-0.10938-0.15625-0.14062-0.0625-0.039062-0.13281-0.0625-0.20312-0.0625-0.21094 0-0.37109 0.078125-0.48438 0.23438-0.10547 0.15625-0.15625 0.37109-0.15625 0.64062v1.4688h-0.96875v-2.9844h0.96875v0.4375c0.13281-0.17578 0.28516-0.30469 0.45312-0.39062 0.16406-0.082031 0.34375-0.125 0.53125-0.125 0.34375 0 0.60156 0.10938 0.78125 0.32812 0.1875 0.21094 0.28125 0.51172 0.28125 0.90625z"/>
  </symbol>
  <symbol id="l" overflow="visible">
   <path d="m0.5-3.9844h1.7031c0.50781 0 0.89844 0.11719 1.1719 0.34375 0.26953 0.21875 0.40625 0.53906 0.40625 0.95312 0 0.41797-0.13672 0.74219-0.40625 0.96875-0.27344 0.21875-0.66406 0.32812-1.1719 0.32812h-0.67188v1.3906h-1.0312zm1.0312 0.75v1.1094h0.5625c0.19531 0 0.34766-0.046875 0.45312-0.14062 0.11328-0.10156 0.17188-0.24219 0.17188-0.42188 0-0.17578-0.058594-0.3125-0.17188-0.40625-0.10547-0.09375-0.25781-0.14062-0.45312-0.14062z"/>
  </symbol>
  <symbol id="k" overflow="visible">
   <path d="m0.45312-2.9844h0.96875v2.9375c0 0.39453-0.10156 0.69531-0.29688 0.90625-0.1875 0.21875-0.46484 0.32812-0.82812 0.32812h-0.48438v-0.64062h0.17188c0.17578 0 0.29688-0.042969 0.35938-0.125 0.070312-0.074219 0.10938-0.23047 0.10938-0.46875zm0-1.1719h0.96875v0.78125h-0.96875z"/>
  </symbol>
  <symbol id="j" overflow="visible">
   <path d="m2.875-2.8906v0.76562c-0.125-0.082031-0.25781-0.14453-0.39062-0.1875-0.13672-0.039062-0.27344-0.0625-0.40625-0.0625-0.27344 0-0.48047 0.078125-0.625 0.23438-0.14844 0.15625-0.21875 0.37109-0.21875 0.64062 0 0.28125 0.070313 0.5 0.21875 0.65625 0.14453 0.15625 0.35156 0.23438 0.625 0.23438 0.14453 0 0.28516-0.019531 0.42188-0.0625 0.13281-0.039063 0.25781-0.10938 0.375-0.20312v0.78125c-0.14844 0.0625-0.29688 0.10156-0.45312 0.125-0.15625 0.03125-0.3125 0.046875-0.46875 0.046875-0.54297 0-0.96484-0.13281-1.2656-0.40625-0.30469-0.28125-0.45312-0.67188-0.45312-1.1719 0-0.48828 0.14844-0.86719 0.45312-1.1406 0.30078-0.28125 0.72266-0.42188 1.2656-0.42188 0.15625 0 0.3125 0.015625 0.46875 0.046875 0.15625 0.023437 0.30469 0.0625 0.45312 0.125z"/>
  </symbol>
 </defs>
 <g>
  <path d="m284.38 307.34c-3.0195 0-5.4688-2.4492-5.4688-5.4688v-185.94c0-10.227 3.9805-19.84 11.211-27.07 7.2305-7.2305 16.844-11.211 27.07-11.211s19.84 3.9805 27.07 11.211c7.2188 7.2305 11.199 16.832 11.211 27.059v0.011719c0 3.0195-2.4492 5.4688-5.4688 5.4688s-5.4688-2.4492-5.4688-5.4688c-0.023438-15.051-12.293-27.32-27.344-27.344-15.051 0.023438-27.312 12.293-27.344 27.344v185.94c0 3.0195-2.4492 5.4688-5.4688 5.4688z"/>
  <path d="m404.69 307.34c-3.0195 0-5.4688-2.4492-5.4688-5.4688v-185.94c0-10.227 3.9805-19.84 11.211-27.07 7.2305-7.2305 16.844-11.211 27.07-11.211s19.84 3.9805 27.07 11.211c7.2305 7.2305 11.211 16.844 11.211 27.07 0 3.0195-2.4492 5.4688-5.4688 5.4688s-5.4688-2.4492-5.4688-5.4688c-0.023438-15.051-12.293-27.32-27.344-27.344-15.051 0.023438-27.32 12.293-27.344 27.344v185.94c0 3.0195-2.4492 5.4688-5.4688 5.4688z"/>
  <path d="m350 438.59c-42.195 0-82.949-5.9062-117.85-17.074-16.996-5.4453-32.223-12-45.227-19.469-13.289-7.625-24.215-16.176-32.484-25.406-5.6875-6.3438-10.074-13.059-13.047-19.961-3.1094-7.1875-4.6719-14.582-4.6719-21.996 0-8.543 2.0781-17.031 6.168-25.211 3.9062-7.8203 9.6367-15.355 17.031-22.41 1.0273-0.97266 2.3633-1.5078 3.7852-1.5078 1.5078 0 2.9102 0.60156 3.9492 1.6836 1.0078 1.0625 1.5547 2.4492 1.5195 3.9023-0.03125 1.4648-0.63281 2.8203-1.6953 3.8281-13.148 12.602-19.82 25.965-19.82 39.715 0.011719 11.891 5.0312 23.547 14.941 34.672 9.832 11.023 24.633 21.395 42.797 29.992 38.488 18.254 89.809 28.305 144.5 28.305h0.15234c41.07 0 80.652-5.7188 114.48-16.547 32.18-10.281 58.055-25.102 72.875-41.75 9.9102-11.125 14.93-22.781 14.941-34.672-0.011719-11.891-5.0312-23.547-14.941-34.672-9.832-11.023-24.633-21.395-42.797-29.992-38.488-18.254-89.809-28.305-144.5-28.305h-0.17578c-46.527 0-92.016 7.5703-128.1 21.316-0.63281 0.24219-1.2812 0.35938-1.9453 0.35938-2.2539 0-4.3086-1.4102-5.1172-3.5234-0.23047-0.625-0.35156-1.2812-0.35156-1.9453-0.011719-2.2539 1.4102-4.3086 3.5234-5.1094 18.406-7.0117 38.926-12.469 60.977-16.211 22.738-3.8555 46.66-5.8242 71.082-5.8242 42.207 0 82.961 5.9062 117.86 17.074 16.984 5.4453 32.199 12 45.215 19.469 13.289 7.625 24.215 16.176 32.484 25.406 5.6875 6.3438 10.074 13.059 13.047 19.949 3.1055 7.1953 4.6719 14.59 4.6719 22.008 0 7.4141-1.5664 14.809-4.6719 21.996-2.9766 6.9023-7.3594 13.605-13.047 19.961-10.969 12.273-26.547 23.23-46.277 32.594-39.977 18.91-92.988 29.344-149.29 29.355zm-159.83-161.35c-1.9688 0-3.7852-1.0625-4.7578-2.7656-1.4883-2.6133-0.57031-5.9609 2.0469-7.4609 0.82031-0.46875 1.7617-0.71094 2.7031-0.71094 1.9688 0 3.7852 1.0508 4.7578 2.7578 0.72266 1.2695 0.90625 2.7461 0.52344 4.1562-0.39453 1.4102-1.3008 2.582-2.5703 3.3047-0.82422 0.46875-1.7656 0.71875-2.7031 0.71875z"/>
  <path d="m350 482.34c-24.051-0.023438-47.797-1.7617-70.602-5.1641-22.203-3.3125-43.434-8.2031-63.121-14.516-39.156-12.566-71.355-30.559-93.102-52.031-2.1445-2.1211-2.1641-5.5898-0.03125-7.7305 1.0273-1.0391 2.4062-1.6172 3.8828-1.6172 1.4453 0 2.8125 0.57031 3.8516 1.5859 41.793 41.641 127.62 68.535 218.66 68.535h0.50391c49.789 0 97.781-7.6133 138.8-22.008 39.113-13.703 70.613-33.512 88.715-55.793 12.293-15.117 18.527-31.074 18.539-47.402v-0.023437c0.011719-3.0078 2.4609-5.4453 5.4688-5.4453 3.0195 0 5.4688 2.4492 5.4688 5.4688 0 9.5391-1.8477 19.062-5.4922 28.328-3.5234 8.9453-8.7383 17.688-15.508 25.988-13.148 16.133-31.871 30.582-55.629 42.93-23.57 12.238-50.926 21.82-81.309 28.504-31.359 6.8906-64.695 10.379-99.094 10.391zm-242.68-96.152c-2.0469 0-3.9062-1.1172-4.8438-2.9219-0.6875-1.2891-0.82031-2.7773-0.38281-4.168 0.42578-1.3984 1.3789-2.5352 2.668-3.2266 0.78906-0.40625 1.6641-0.625 2.5469-0.625 2.0352 0 3.8945 1.1172 4.8359 2.9219h0.011719c1.3984 2.668 0.37109 5.9844-2.2969 7.3945-0.78906 0.40625-1.6641 0.625-2.5391 0.625zm-8.8047-31.258c-2.9297 0-5.3281-2.2969-5.457-5.2188-0.058594-1.1602-0.089844-2.3398-0.089844-3.5117 0-3.0195 2.4492-5.4688 5.4688-5.4688s5.4688 2.4492 5.4688 5.4688c0 0.94922 0.023438 1.9688 0.066406 2.9961 0.011719 0.097656 0.011719 0.1875 0.011719 0.28516-0.011719 2.9102-2.2969 5.293-5.207 5.4375-0.089844 0-0.17578 0.011719-0.26172 0.011719z"/>
  <path d="m404.69 154.22h-120.31c-3.0195 0-5.4688-2.4492-5.4688-5.4688s2.4492-5.4688 5.4688-5.4688h120.31c3.0195 0 5.4688 2.4492 5.4688 5.4688s-2.4492 5.4688-5.4688 5.4688z"/>
  <path d="m404.69 197.97h-120.31c-3.0195 0-5.4688-2.4492-5.4688-5.4688s2.4492-5.4688 5.4688-5.4688h120.31c3.0195 0 5.4688 2.4492 5.4688 5.4688s-2.4492 5.4688-5.4688 5.4688z"/>
  <path d="m350 329.22c-1.2891 0-2.5391-0.46094-3.5234-1.293 0 0-0.066406-0.042969-0.23047-0.1875-0.19531-0.16406-0.48047-0.38281-0.77734-0.62109-0.63281-0.50391-1.6836-1.3125-3.0312-2.2969-2.3828-1.7383-6.2031-4.375-10.785-7.0234-6.3867-3.7188-18.824-9.9648-30.273-9.9648h-0.17578c-6.6055 0.03125-11.824 1.8594-16.418 5.7305-11.625 9.9102-23.188 11.988-30.832 11.988h-0.16406c-6.3203-0.023437-12.59-1.2891-18.648-3.7422-2.1562-0.875-5.3711-2.3633-8.4766-4.4492-0.085937-0.054687-0.13281-0.085937-0.16406-0.097656 0-0.011719-0.011719-0.011719-0.011719-0.011719-2.4375-1.7617-3.0078-5.1719-1.2578-7.625 1.0273-1.4336 2.6914-2.2852 4.4531-2.2852 1.1367 0 2.2305 0.34766 3.1719 1.0078l0.03125 0.03125c0.023437 0.011719 0.054687 0.03125 0.085937 0.054688 0.042969 0.03125 0.097656 0.066406 0.15234 0.10938 0.35156 0.21875 0.72266 0.44922 1.1172 0.67969 0.91797 0.53516 2.4297 1.3555 4.3984 2.1875 3.4453 1.4648 8.8594 3.2031 15.137 3.2031 8.6641-0.042969 16.484-3.1172 23.93-9.3945 6.375-5.4375 14.449-8.3125 23.34-8.3125h0.15234c10.816 0.042969 22.562 3.7734 35.918 11.418 9.2188 5.3164 15.672 10.633 16.375 11.223l0.023437 0.023437c2.3086 1.9375 2.6016 5.3906 0.65625 7.6992-1.0312 1.2383-2.5547 1.9492-4.1719 1.9492z"/>
  <path d="m350 329.22c-1.6172 0-3.1406-0.71094-4.1797-1.9453-1.9453-2.2969-1.6523-5.7656 0.65625-7.6992l0.011719-0.011719c0.69922-0.58984 7.1328-5.8945 16.383-11.234 13.355-7.6445 25.102-11.375 35.918-11.418h0.15234c8.8906 0 16.965 2.875 23.34 8.3125 7.4492 6.2773 15.27 9.3516 23.91 9.3945h0.1875c5.8945 0 11.125-1.6289 14.461-2.9961 3.5859-1.4648 5.9492-2.9961 6.2773-3.25 0 0 0.011718 0 0.011718-0.011719 0.011719 0 0.023438-0.011719 0.023438-0.011719 0.92969-0.65625 2.0234-1.0078 3.1602-1.0078 1.7617 0 3.4219 0.85156 4.4492 2.2852 1.75 2.4492 1.1797 5.875-1.2695 7.625-0.023438 0.023438-0.078126 0.054688-0.15234 0.10938-3.1055 2.0898-6.3203 3.5664-8.4766 4.4414-6.0586 2.4609-12.336 3.7305-18.668 3.75h-0.16406c-7.6445 0-19.195-2.0781-30.82-11.988-4.5938-3.8711-9.8125-5.6992-16.418-5.7305h-0.15234c-10.84 0-22.586 5.6445-28.613 9.0117-8.9141 4.9219-15.543 10.293-16.273 10.895-0.16406 0.13281-0.21875 0.1875-0.23047 0.1875-0.98828 0.83203-2.2344 1.293-3.5234 1.293z"/>
  <path d="m349.99 372.97c-1.2031 0-2.3516-0.38281-3.3125-1.125 0 0-0.042969-0.03125-0.20703-0.15234-0.15234-0.12109-0.40625-0.30469-0.73438-0.53516-0.88672-0.63281-1.8594-1.3008-2.875-1.9688-2.2852-1.5078-5.9297-3.7852-10.324-6.0586-6.1797-3.2148-18.223-8.6172-29.52-8.6172h-0.14062c-7.3398 0.03125-13.094 2.0117-18.078 6.2227-10.676 9.1094-21.23 11.023-28.207 11.023h-0.16406c-14.875-0.10937-25.953-7.6133-30.023-10.84-0.13281-0.097657-0.20703-0.16406-0.24219-0.17578-2.3086-1.957-2.5938-5.4141-0.63281-7.7109 1.0391-1.2344 2.5586-1.9375 4.168-1.9375 1.2891 0 2.5391 0.46094 3.5234 1.2812l0.054688 0.054688c0.054687 0.042968 0.15234 0.12109 0.29687 0.23047 0.26172 0.19531 0.69922 0.52344 1.2812 0.92969 1.0508 0.73438 2.7773 1.8477 4.9648 2.9648 3.8164 1.9453 9.7773 4.2656 16.57 4.2656h0.042969c7.6445-0.042968 14.613-2.8008 21.297-8.4219 6.7695-5.7734 15.41-8.8164 25.004-8.8164h0.15234c10.531 0.023438 21.875 3.25 34.684 9.832 8.6172 4.4609 14.625 8.8828 15.738 9.7109l0.023437 0.03125c2.4062 1.8281 2.8633 5.2617 1.0273 7.6562-1.0508 1.3672-2.6406 2.1562-4.3672 2.1562z"/>
  <path d="m350.01 372.97c-1.7266 0-3.3125-0.78906-4.3516-2.1562-0.89844-1.1602-1.2695-2.5938-1.082-4.0352 0.19531-1.4531 0.94141-2.7344 2.1094-3.6211 0.67969-0.51562 6.8047-5.1094 15.75-9.7461 12.82-6.5859 24.16-9.8125 34.695-9.832h0.14063c9.6016 0 18.242 3.0391 25.016 8.8164 6.6836 5.6211 13.641 8.3789 21.297 8.4219h0.25c12.426 0 22.543-8.082 22.926-8.4102 0.011719-0.011719 0.011719-0.011719 0.023437-0.023438h0.011719c0.98438-0.83203 2.2305-1.2891 3.5234-1.2891 1.6094 0 3.1289 0.69922 4.168 1.9375 1.9453 2.2969 1.6641 5.7539-0.63281 7.6992-0.03125 0.023437-0.10938 0.097656-0.24219 0.19922-4.0781 3.2148-15.16 10.719-30.023 10.828h-0.15234c-6.9766 0-17.543-1.9141-28.219-11.023-4.9219-4.1562-10.84-6.1914-18.078-6.2109h-0.13281c-10.707 0-22.082 4.8789-27.914 7.7891-8.5742 4.2539-14.863 8.8711-15.555 9.3828-0.16406 0.12109-0.19531 0.14063-0.20703 0.15234l-0.011719 0.011719c-0.95703 0.72656-2.1055 1.1094-3.3086 1.1094z"/>
 
 </g>
</svg>
