<?xml version="1.0" encoding="UTF-8"?>
<svg width="700pt" height="700pt" version="1.1" viewBox="0 0 700 700" xmlns="http://www.w3.org/2000/svg" xmlns:xlink="http://www.w3.org/1999/xlink">
 <defs>
  <symbol id="u" overflow="visible">
   <path d="m2.2812-0.14062c-0.11719 0.0625-0.24219 0.10938-0.375 0.14062-0.125 0.03125-0.25781 0.046875-0.39062 0.046875-0.41797 0-0.74609-0.11328-0.98438-0.34375-0.24219-0.22656-0.35938-0.53906-0.35938-0.9375 0-0.39453 0.11719-0.70703 0.35938-0.9375 0.23828-0.23828 0.56641-0.35938 0.98438-0.35938 0.13281 0 0.26562 0.015625 0.39062 0.046875 0.13281 0.03125 0.25781 0.078125 0.375 0.14062v0.51562c-0.11719-0.082031-0.23047-0.14062-0.34375-0.17188-0.11719-0.039062-0.24219-0.0625-0.375-0.0625-0.23047 0-0.41406 0.074219-0.54688 0.21875-0.125 0.14844-0.1875 0.35156-0.1875 0.60938 0 0.25 0.0625 0.44922 0.1875 0.59375 0.13281 0.14844 0.31641 0.21875 0.54688 0.21875 0.13281 0 0.25781-0.015625 0.375-0.046875 0.11328-0.039062 0.22656-0.10156 0.34375-0.1875z"/>
  </symbol>
  <symbol id="c" overflow="visible">
   <path d="m1.6719-1.3594c-0.054687-0.019531-0.10547-0.035156-0.15625-0.046875-0.054687-0.007812-0.10547-0.015625-0.15625-0.015625-0.15625 0-0.27734 0.054687-0.35938 0.15625-0.085938 0.09375-0.125 0.23047-0.125 0.40625v0.85938h-0.59375v-1.8594h0.59375v0.29688c0.082031-0.11328 0.17188-0.19531 0.26562-0.25 0.10156-0.0625 0.22266-0.09375 0.35938-0.09375h0.0625c0.03125 0 0.066406 0.007812 0.10938 0.015625z"/>
  </symbol>
  <symbol id="a" overflow="visible">
   <path d="m2.1406-0.9375v0.17188h-1.3906c0.019531 0.13672 0.070312 0.24219 0.15625 0.3125 0.082031 0.074219 0.20312 0.10938 0.35938 0.10938 0.125 0 0.25-0.015625 0.375-0.046875 0.13281-0.039063 0.27344-0.10156 0.42188-0.1875v0.46875c-0.14844 0.054688-0.29297 0.089844-0.4375 0.10938-0.13672 0.03125-0.27344 0.046875-0.40625 0.046875-0.34375 0-0.60938-0.082031-0.79688-0.25-0.1875-0.17578-0.28125-0.42188-0.28125-0.73438 0-0.30078 0.09375-0.53516 0.28125-0.70312 0.1875-0.17578 0.4375-0.26562 0.75-0.26562 0.30078 0 0.53516 0.089844 0.70312 0.26562 0.17578 0.17969 0.26562 0.41406 0.26562 0.70312zm-0.60938-0.20312c0-0.10156-0.039062-0.19141-0.10938-0.26562-0.0625-0.070312-0.14844-0.10938-0.25-0.10938-0.11719 0-0.21094 0.039063-0.28125 0.10938-0.074219 0.0625-0.11719 0.15234-0.125 0.26562z"/>
  </symbol>
  <symbol id="i" overflow="visible">
   <path d="m1.125-0.84375c-0.125 0-0.21875 0.023438-0.28125 0.0625-0.0625 0.042969-0.09375 0.10547-0.09375 0.1875 0 0.085938 0.019531 0.14844 0.0625 0.1875 0.050781 0.042969 0.125 0.0625 0.21875 0.0625 0.11328 0 0.20703-0.039062 0.28125-0.125 0.082031-0.082031 0.125-0.17969 0.125-0.29688v-0.078125zm0.90625-0.21875v1.0625h-0.59375v-0.28125c-0.085938 0.11719-0.17969 0.19922-0.28125 0.25-0.09375 0.050781-0.21484 0.078125-0.35938 0.078125-0.19922 0-0.35938-0.054688-0.48438-0.17188-0.11719-0.11328-0.17188-0.25781-0.17188-0.4375 0-0.21875 0.070313-0.375 0.21875-0.46875 0.15625-0.10156 0.39453-0.15625 0.71875-0.15625h0.35938v-0.046875c0-0.09375-0.042969-0.16016-0.125-0.20312-0.074219-0.050781-0.1875-0.078125-0.34375-0.078125-0.125 0-0.24609 0.015625-0.35938 0.046875-0.10547 0.023438-0.20312 0.058594-0.29688 0.10938v-0.45312c0.125-0.03125 0.25-0.050781 0.375-0.0625 0.13281-0.019531 0.26562-0.03125 0.39062-0.03125 0.33203 0 0.57031 0.070312 0.71875 0.20312 0.15625 0.125 0.23438 0.33984 0.23438 0.64062z"/>
  </symbol>
  <symbol id="b" overflow="visible">
   <path d="m0.9375-2.3906v0.53125h0.60938v0.42188h-0.60938v0.79688c0 0.085937 0.015625 0.14062 0.046875 0.17188 0.039063 0.03125 0.10938 0.046875 0.20312 0.046875h0.3125v0.42188h-0.51562c-0.23047 0-0.39844-0.046875-0.5-0.14062-0.09375-0.10156-0.14062-0.26953-0.14062-0.5v-0.79688h-0.29688v-0.42188h0.29688v-0.53125z"/>
  </symbol>
  <symbol id="h" overflow="visible">
   <path d="m1.5469-1.5938v-1h0.60938v2.5938h-0.60938v-0.26562c-0.074219 0.10547-0.16406 0.18359-0.26562 0.23438-0.09375 0.050781-0.21094 0.078125-0.34375 0.078125-0.23047 0-0.41797-0.085938-0.5625-0.26562-0.14844-0.1875-0.21875-0.42578-0.21875-0.71875 0-0.28125 0.070312-0.50781 0.21875-0.6875 0.14453-0.1875 0.33203-0.28125 0.5625-0.28125 0.125 0 0.23828 0.027344 0.34375 0.078125 0.10156 0.054687 0.19141 0.13281 0.26562 0.23438zm-0.39062 1.2031c0.13281 0 0.23438-0.039063 0.29688-0.125 0.0625-0.09375 0.09375-0.23438 0.09375-0.42188 0-0.17578-0.03125-0.30469-0.09375-0.39062-0.0625-0.09375-0.16406-0.14062-0.29688-0.14062-0.125 0-0.22656 0.046875-0.29688 0.14062-0.0625 0.085937-0.09375 0.21484-0.09375 0.39062 0 0.1875 0.03125 0.32812 0.09375 0.42188 0.070313 0.085937 0.17188 0.125 0.29688 0.125z"/>
  </symbol>
  <symbol id="e" overflow="visible">
   <path d="m1.2812-0.39062c0.125 0 0.21875-0.039063 0.28125-0.125 0.070312-0.09375 0.10938-0.23438 0.10938-0.42188 0-0.17578-0.039063-0.30469-0.10938-0.39062-0.0625-0.09375-0.15625-0.14062-0.28125-0.14062s-0.22656 0.046875-0.29688 0.14062c-0.074219 0.09375-0.10938 0.22656-0.10938 0.39062 0 0.17969 0.035156 0.3125 0.10938 0.40625 0.070313 0.09375 0.17188 0.14062 0.29688 0.14062zm-0.40625-1.2031c0.082031-0.10156 0.17188-0.17969 0.26562-0.23438 0.10156-0.050781 0.22266-0.078125 0.35938-0.078125 0.22656 0 0.41406 0.09375 0.5625 0.28125 0.14453 0.17969 0.21875 0.40625 0.21875 0.6875 0 0.29297-0.074219 0.53125-0.21875 0.71875-0.14844 0.17969-0.33594 0.26562-0.5625 0.26562-0.13672 0-0.25781-0.027344-0.35938-0.078125-0.09375-0.050781-0.18359-0.12891-0.26562-0.23438v0.26562h-0.59375v-2.5938h0.59375z"/>
  </symbol>
  <symbol id="g" overflow="visible">
   <path d="m0.046875-1.8594h0.59375l0.5 1.2656 0.42188-1.2656h0.59375l-0.78125 2.0312c-0.085938 0.20703-0.17969 0.35156-0.28125 0.4375-0.10547 0.082031-0.24219 0.125-0.40625 0.125h-0.34375v-0.39062h0.1875c0.09375 0 0.16016-0.015625 0.20312-0.046875 0.050781-0.03125 0.09375-0.089844 0.125-0.17188l0.015625-0.046875z"/>
  </symbol>
  <symbol id="f" overflow="visible">
   <path d="m2.5469-0.1875c-0.15625 0.085938-0.32422 0.14844-0.5 0.1875-0.16797 0.03125-0.34375 0.046875-0.53125 0.046875-0.41797 0-0.74609-0.11328-0.98438-0.34375-0.24219-0.22656-0.35938-0.53906-0.35938-0.9375 0-0.40625 0.11719-0.72266 0.35938-0.95312 0.25-0.22656 0.58594-0.34375 1.0156-0.34375 0.16406 0 0.32031 0.015625 0.46875 0.046875 0.15625 0.03125 0.30078 0.078125 0.4375 0.14062v0.51562c-0.13672-0.082031-0.27734-0.14062-0.42188-0.17188-0.13672-0.039062-0.27344-0.0625-0.40625-0.0625-0.25 0-0.44922 0.074219-0.59375 0.21875-0.13672 0.13672-0.20312 0.33984-0.20312 0.60938 0 0.26172 0.066406 0.46484 0.20312 0.60938 0.13281 0.13672 0.32031 0.20312 0.5625 0.20312h0.1875c0.0625-0.007813 0.11328-0.023437 0.15625-0.046875v-0.48438h-0.39062v-0.42188h1z"/>
  </symbol>
  <symbol id="t" overflow="visible">
   <path d="m0.28125-1.8594h0.59375v1.8594h-0.59375zm0-0.73438h0.59375v0.48438h-0.59375z"/>
  </symbol>
  <symbol id="s" overflow="visible">
   <path d="m0.28125-2.5938h0.59375v2.5938h-0.59375z"/>
  </symbol>
  <symbol id="d" overflow="visible">
   <path d="m1.1719-1.4844c-0.13672 0-0.24219 0.046875-0.3125 0.14062-0.0625 0.09375-0.09375 0.23047-0.09375 0.40625 0 0.1875 0.03125 0.32812 0.09375 0.42188 0.070313 0.09375 0.17578 0.14062 0.3125 0.14062 0.125 0 0.22266-0.046875 0.29688-0.14062 0.070312-0.09375 0.10938-0.23438 0.10938-0.42188 0-0.17578-0.039063-0.3125-0.10938-0.40625-0.074219-0.09375-0.17188-0.14062-0.29688-0.14062zm0-0.42188c0.32031 0 0.57031 0.089844 0.75 0.26562 0.17578 0.16797 0.26562 0.40234 0.26562 0.70312 0 0.3125-0.089844 0.55859-0.26562 0.73438-0.17969 0.16797-0.42969 0.25-0.75 0.25-0.32422 0-0.57812-0.082031-0.76562-0.25-0.17969-0.17578-0.26562-0.42188-0.26562-0.73438 0-0.30078 0.085937-0.53516 0.26562-0.70312 0.1875-0.17578 0.44141-0.26562 0.76562-0.26562z"/>
  </symbol>
  <symbol id="r" overflow="visible">
   <path d="m1.5156-2.5938v0.39062h-0.32812c-0.085938 0-0.14844 0.015625-0.1875 0.046875-0.03125 0.03125-0.046875 0.085938-0.046875 0.15625v0.14062h0.51562v0.42188h-0.51562v1.4375h-0.59375v-1.4375h-0.29688v-0.42188h0.29688v-0.14062c0-0.19531 0.054687-0.34375 0.17188-0.4375 0.11328-0.10156 0.28906-0.15625 0.53125-0.15625z"/>
  </symbol>
  <symbol id="q" overflow="visible">
   <path d="m2.0156-1.5469c0.070313-0.11328 0.16016-0.20312 0.26562-0.26562 0.10156-0.0625 0.21875-0.09375 0.34375-0.09375 0.20703 0 0.36719 0.070312 0.48438 0.20312 0.11328 0.125 0.17188 0.3125 0.17188 0.5625v1.1406h-0.59375v-0.96875-0.046875-0.0625c0-0.13281-0.023438-0.22656-0.0625-0.28125-0.042969-0.0625-0.10547-0.09375-0.1875-0.09375-0.11719 0-0.20312 0.046875-0.26562 0.14062s-0.09375 0.22656-0.09375 0.39062v0.92188h-0.59375v-0.96875c0-0.20703-0.023437-0.33594-0.0625-0.39062-0.03125-0.0625-0.09375-0.09375-0.1875-0.09375-0.11719 0-0.20312 0.046875-0.26562 0.14062s-0.09375 0.22656-0.09375 0.39062v0.92188h-0.59375v-1.8594h0.59375v0.26562c0.070312-0.10156 0.15625-0.17969 0.25-0.23438 0.10156-0.050781 0.21094-0.078125 0.32812-0.078125 0.125 0 0.23438 0.03125 0.32812 0.09375 0.10156 0.0625 0.17969 0.15234 0.23438 0.26562z"/>
  </symbol>
  <symbol id="p" overflow="visible">
   <path d="m2.1562-1.1406v1.1406h-0.59375v-0.85938c0-0.16406-0.007812-0.28125-0.015625-0.34375-0.011719-0.0625-0.023437-0.10156-0.03125-0.125-0.023437-0.039063-0.054687-0.070313-0.09375-0.09375-0.042969-0.019531-0.089844-0.03125-0.14062-0.03125-0.125 0-0.22656 0.046875-0.29688 0.14062-0.074219 0.09375-0.10938 0.22656-0.10938 0.39062v0.92188h-0.59375v-2.5938h0.59375v1c0.09375-0.10156 0.1875-0.17969 0.28125-0.23438 0.10156-0.050781 0.21875-0.078125 0.34375-0.078125 0.21875 0 0.37891 0.070312 0.48438 0.20312 0.11328 0.125 0.17188 0.3125 0.17188 0.5625z"/>
  </symbol>
  <symbol id="o" overflow="visible">
   <path d="m0.3125-2.4844h0.71875l0.90625 1.7031v-1.7031h0.59375v2.4844h-0.70312l-0.90625-1.7031v1.7031h-0.60938z"/>
  </symbol>
  <symbol id="n" overflow="visible">
   <path d="m0.26562-0.71875v-1.1406h0.59375v0.1875 0.375 0.3125c0 0.14844 0.003906 0.25781 0.015625 0.32812 0.007812 0.0625 0.019531 0.10547 0.03125 0.125 0.03125 0.042969 0.0625 0.074219 0.09375 0.09375 0.039062 0.023438 0.085938 0.03125 0.14062 0.03125 0.125 0 0.22266-0.046875 0.29688-0.14062 0.070312-0.09375 0.10938-0.22266 0.10938-0.39062v-0.92188h0.59375v1.8594h-0.59375v-0.26562c-0.09375 0.10547-0.19531 0.18359-0.29688 0.23438-0.09375 0.050781-0.20312 0.078125-0.32812 0.078125-0.21094 0-0.37109-0.0625-0.48438-0.1875-0.11719-0.13281-0.17188-0.32812-0.17188-0.57812z"/>
  </symbol>
  <symbol id="m" overflow="visible">
   <path d="m2.1562-1.1406v1.1406h-0.59375v-0.875c0-0.15625-0.007812-0.26562-0.015625-0.32812-0.011719-0.0625-0.023437-0.10156-0.03125-0.125-0.023437-0.039063-0.054687-0.070313-0.09375-0.09375-0.042969-0.019531-0.089844-0.03125-0.14062-0.03125-0.125 0-0.22656 0.046875-0.29688 0.14062-0.074219 0.09375-0.10938 0.22656-0.10938 0.39062v0.92188h-0.59375v-1.8594h0.59375v0.26562c0.09375-0.10156 0.1875-0.17969 0.28125-0.23438 0.10156-0.050781 0.21875-0.078125 0.34375-0.078125 0.21875 0 0.37891 0.070312 0.48438 0.20312 0.11328 0.125 0.17188 0.3125 0.17188 0.5625z"/>
  </symbol>
  <symbol id="l" overflow="visible">
   <path d="m0.3125-2.4844h1.0625c0.3125 0 0.55078 0.074219 0.71875 0.21875 0.17578 0.13672 0.26562 0.33594 0.26562 0.59375 0 0.26172-0.089844 0.46484-0.26562 0.60938-0.16797 0.13672-0.40625 0.20312-0.71875 0.20312h-0.42188v0.85938h-0.64062zm0.64062 0.46875v0.6875h0.35938c0.125 0 0.21875-0.023437 0.28125-0.078125 0.070312-0.0625 0.10938-0.14844 0.10938-0.26562 0-0.11328-0.039063-0.19531-0.10938-0.25-0.0625-0.0625-0.15625-0.09375-0.28125-0.09375z"/>
  </symbol>
  <symbol id="k" overflow="visible">
   <path d="m0.28125-1.8594h0.59375v1.8281c0 0.25-0.0625 0.4375-0.1875 0.5625-0.11719 0.13281-0.28125 0.20312-0.5 0.20312h-0.29688v-0.39062h0.09375c0.11328 0 0.19141-0.027344 0.23438-0.078125 0.039062-0.054687 0.0625-0.15234 0.0625-0.29688zm0-0.73438h0.59375v0.48438h-0.59375z"/>
  </symbol>
  <symbol id="j" overflow="visible">
   <path d="m1.7969-1.7969v0.48438c-0.085937-0.0625-0.16797-0.10156-0.25-0.125-0.085937-0.03125-0.16797-0.046875-0.25-0.046875-0.16797 0-0.29688 0.054687-0.39062 0.15625-0.09375 0.09375-0.14062 0.22656-0.14062 0.39062 0 0.17969 0.046875 0.32031 0.14062 0.42188 0.09375 0.09375 0.22266 0.14062 0.39062 0.14062 0.09375 0 0.17969-0.007812 0.26562-0.03125 0.082031-0.03125 0.16016-0.078125 0.23438-0.14062v0.48438c-0.09375 0.042969-0.19531 0.066406-0.29688 0.078125-0.09375 0.019531-0.1875 0.03125-0.28125 0.03125-0.33594 0-0.60156-0.082031-0.79688-0.25-0.1875-0.17578-0.28125-0.42188-0.28125-0.73438 0-0.30078 0.09375-0.53516 0.28125-0.70312 0.19531-0.17578 0.46094-0.26562 0.79688-0.26562 0.09375 0 0.1875 0.011719 0.28125 0.03125 0.10156 0.011719 0.20312 0.039062 0.29688 0.078125z"/>
  </symbol>
 </defs>
 <g>
  <path d="m432.33 187.8c-4.7617-6.125-8.1641-13.609-9.5273-22.453-28.578 12.246-73.488-13.609-76.891-44.91-40.828 5.4453-83.695-19.051-87.098-50.352 47.629-81.652 167.39-87.777 264.01-39.465 20.414-36.062 60.559-12.93 39.465 23.137 90.5 59.199 144.93 166.03 97.984 248.36-29.258 12.246-71.445-12.246-87.098-50.352-29.258 12.93-74.168-13.609-77.57-44.91-8.8438 4.082-16.332 4.7617-23.816 3.4023l-101.39 174.87c52.395 5.4453 97.984 19.051 130.64 38.105-122.48 0-272.18 69.406-394.65 53.754 14.289-51.031 103.43-91.18 212.3-93.219l113.63-195.96zm-271.5-112.95 14.969 42.188c-4.7617-0.67969-9.5273-0.67969-14.969-0.67969-4.7617 0-9.5273 0-14.289 0.67969zm0 53.074c44.91 0 80.973 36.062 80.973 80.293 0 44.227-36.062 80.293-80.973 80.293-44.227 0-80.293-36.062-80.293-80.293 0-44.227 36.062-80.293 80.293-80.293zm32.66-6.125 34.023-29.258-8.1641 44.227c-7.4844-6.125-16.332-10.887-25.855-14.969zm38.785 27.898 44.227-8.1641-29.258 34.023c-3.4023-9.5273-8.8438-17.691-14.969-25.855zm19.734 43.547 42.188 14.969-42.188 14.969c0.67969-4.7617 1.3594-10.207 1.3594-14.969 0-4.7617-0.67969-10.207-1.3594-14.969zm-4.7617 47.629 29.258 34.023-44.227-8.1641c6.125-8.1641 11.566-16.332 14.969-25.855zm-27.898 38.785 8.1641 44.227-34.023-29.258c9.5273-4.082 18.371-8.8438 25.855-14.969zm-43.547 19.734-14.969 42.188-14.289-42.188c4.7617 0.67969 9.5273 0.67969 14.289 0.67969 5.4453 0 10.207 0 14.969-0.67969zm-47.629-4.7617-34.023 29.258 8.8438-44.227c7.4844 6.125 16.332 10.887 25.176 14.969zm-38.105-27.898-44.227 8.1641 29.258-34.023c3.4023 9.5273 8.1641 17.691 14.969 25.855zm-19.734-43.547-42.867-14.969 42.867-14.969c-0.67969 4.7617-1.3594 10.207-1.3594 14.969 0 4.7617 0.67969 10.207 1.3594 14.969zm4.7617-47.629-29.258-34.023 44.227 8.1641c-6.8047 8.1641-11.566 16.332-14.969 25.855zm27.898-38.785-8.8438-44.227 34.023 29.258c-8.8438 4.082-17.691 8.8438-25.176 14.969zm560 385.81c-187.12-97.301-505.57 172.83-640.29-61.238 198.69 114.99 513.05-157.86 640.29 61.238zm-104.79-445.69c19.734 42.867-48.992 87.098-41.508 118.39 13.609 55.797 91.18 45.59 83.012-27.219-6.125-55.797-50.352-107.51-50.352-107.51s4.082 7.4844 8.8438 16.332zm-53.754-30.621c-46.949 4.082-50.352 85.734-81.652 95.262-55.117 15.648-85.055-57.156-18.371-86.414 51.715-22.453 118.39-10.207 118.39-10.207s-8.1641 0.67969-18.371 1.3594z" fill-rule="evenodd"/>

 </g>
</svg>
