<?xml version="1.0" encoding="UTF-8"?>
<svg width="700pt" height="700pt" version="1.1" viewBox="0 0 700 700" xmlns="http://www.w3.org/2000/svg" xmlns:xlink="http://www.w3.org/1999/xlink">
 <defs>
  <symbol id="l" overflow="visible">
   <path d="m29.312-1.75c-1.5117 0.78125-3.0898 1.3711-4.7344 1.7656-1.6367 0.40625-3.3398 0.60938-5.1094 0.60938-5.3125 0-9.5273-1.4844-12.641-4.4531-3.1055-2.9688-4.6562-7-4.6562-12.094s1.5508-9.125 4.6562-12.094c3.1133-2.9688 7.3281-4.4531 12.641-4.4531 1.7695 0 3.4727 0.19922 5.1094 0.59375 1.6445 0.39844 3.2227 0.99219 4.7344 1.7812v6.5938c-1.5312-1.0391-3.0391-1.8008-4.5156-2.2812-1.4805-0.48828-3.0391-0.73438-4.6719-0.73438-2.9375 0-5.2461 0.94531-6.9219 2.8281-1.6797 1.875-2.5156 4.4648-2.5156 7.7656 0 3.293 0.83594 5.8828 2.5156 7.7656 1.6758 1.875 3.9844 2.8125 6.9219 2.8125 1.6328 0 3.1914-0.23828 4.6719-0.71875 1.4766-0.48828 2.9844-1.2539 4.5156-2.2969z"/>
  </symbol>
  <symbol id="c" overflow="visible">
   <path d="m21.453-17.406c-0.67969-0.3125-1.3516-0.53906-2.0156-0.6875-0.65625-0.15625-1.3203-0.23438-1.9844-0.23438-1.9688 0-3.4844 0.63281-4.5469 1.8906-1.0547 1.2617-1.5781 3.0703-1.5781 5.4219v11.016h-7.6562v-23.922h7.6562v3.9219c0.97656-1.5625 2.1016-2.7031 3.375-3.4219 1.2812-0.71875 2.8125-1.0781 4.5938-1.0781 0.25 0 0.52344 0.011719 0.82812 0.03125 0.30078 0.023438 0.73438 0.070312 1.2969 0.14062z"/>
  </symbol>
  <symbol id="b" overflow="visible">
   <path d="m27.562-12.031v2.1875h-17.891c0.1875 1.793 0.83203 3.1367 1.9375 4.0312 1.1133 0.89844 2.6719 1.3438 4.6719 1.3438 1.6016 0 3.25-0.23438 4.9375-0.70312 1.6875-0.47656 3.4219-1.2031 5.2031-2.1719v5.8906c-1.8047 0.6875-3.6094 1.2031-5.4219 1.5469-1.8125 0.35156-3.6211 0.53125-5.4219 0.53125-4.3359 0-7.7031-1.0977-10.109-3.2969-2.3984-2.207-3.5938-5.2969-3.5938-9.2656 0-3.9062 1.1758-6.9727 3.5312-9.2031 2.3633-2.2383 5.6094-3.3594 9.7344-3.3594 3.7578 0 6.7695 1.1367 9.0312 3.4062 2.2578 2.2617 3.3906 5.2812 3.3906 9.0625zm-7.8594-2.5312c0-1.457-0.42969-2.6289-1.2812-3.5156-0.84375-0.89453-1.9492-1.3438-3.3125-1.3438-1.4922 0-2.6992 0.41797-3.625 1.25-0.91797 0.83594-1.4922 2.0391-1.7188 3.6094z"/>
  </symbol>
  <symbol id="a" overflow="visible">
   <path d="m14.391-10.766c-1.5938 0-2.793 0.27344-3.5938 0.8125-0.80469 0.54297-1.2031 1.3398-1.2031 2.3906 0 0.96875 0.32031 1.7305 0.96875 2.2812 0.64453 0.54297 1.5469 0.8125 2.7031 0.8125 1.4375 0 2.6445-0.51562 3.625-1.5469 0.98828-1.0312 1.4844-2.3203 1.4844-3.875v-0.875zm11.688-2.8906v13.656h-7.7031v-3.5469c-1.0312 1.4492-2.1875 2.5078-3.4688 3.1719s-2.8398 1-4.6719 1c-2.4805 0-4.4961-0.72266-6.0469-2.1719-1.543-1.4453-2.3125-3.3203-2.3125-5.625 0-2.8125 0.96094-4.8672 2.8906-6.1719 1.9375-1.3125 4.9688-1.9688 9.0938-1.9688h4.5156v-0.60938c0-1.207-0.48047-2.0938-1.4375-2.6562-0.94922-0.5625-2.4375-0.84375-4.4688-0.84375-1.6367 0-3.1562 0.16797-4.5625 0.5-1.4062 0.32422-2.7188 0.8125-3.9375 1.4688v-5.8281c1.6445-0.40625 3.2891-0.70703 4.9375-0.90625 1.6562-0.20703 3.3047-0.3125 4.9531-0.3125 4.3203 0 7.4375 0.85547 9.3438 2.5625 1.9141 1.6992 2.875 4.4609 2.875 8.2812z"/>
  </symbol>
  <symbol id="d" overflow="visible">
   <path d="m12.031-30.719v6.7969h7.875v5.4688h-7.875v10.141c0 1.1172 0.21875 1.8711 0.65625 2.2656 0.4375 0.38672 1.3125 0.57812 2.625 0.57812h3.9375v5.4688h-6.5625c-3.0234 0-5.1641-0.62891-6.4219-1.8906-1.2617-1.2578-1.8906-3.3984-1.8906-6.4219v-10.141h-3.7969v-5.4688h3.7969v-6.7969z"/>
  </symbol>
  <symbol id="h" overflow="visible">
   <path d="m19.953-20.422v-12.812h7.6875v33.234h-7.6875v-3.4531c-1.0547 1.4062-2.2148 2.4375-3.4844 3.0938-1.2734 0.65625-2.7422 0.98438-4.4062 0.98438-2.9492 0-5.3711-1.1719-7.2656-3.5156-1.8867-2.3438-2.8281-5.3594-2.8281-9.0469s0.94141-6.7031 2.8281-9.0469c1.8945-2.3438 4.3164-3.5156 7.2656-3.5156 1.6562 0 3.1172 0.33594 4.3906 1 1.2812 0.65625 2.4453 1.6836 3.5 3.0781zm-5.0469 15.484c1.6445 0 2.8945-0.59766 3.75-1.7969 0.86328-1.1953 1.2969-2.9297 1.2969-5.2031 0-2.2812-0.43359-4.0195-1.2969-5.2188-0.85547-1.1953-2.1055-1.7969-3.75-1.7969-1.625 0-2.8711 0.60156-3.7344 1.7969-0.85547 1.1992-1.2812 2.9375-1.2812 5.2188 0 2.2734 0.42578 4.0078 1.2812 5.2031 0.86328 1.1992 2.1094 1.7969 3.7344 1.7969z"/>
  </symbol>
  <symbol id="g" overflow="visible">
   <path d="m16.406-4.9375c1.6328 0 2.8828-0.59766 3.75-1.7969 0.86328-1.1953 1.2969-2.9297 1.2969-5.2031 0-2.2812-0.43359-4.0195-1.2969-5.2188-0.86719-1.1953-2.1172-1.7969-3.75-1.7969-1.6367 0-2.8906 0.60547-3.7656 1.8125-0.875 1.1992-1.3125 2.9336-1.3125 5.2031 0 2.2617 0.4375 3.9961 1.3125 5.2031 0.875 1.1992 2.1289 1.7969 3.7656 1.7969zm-5.0781-15.484c1.0508-1.3945 2.2188-2.4219 3.5-3.0781 1.2812-0.66406 2.7539-1 4.4219-1 2.9453 0 5.3672 1.1719 7.2656 3.5156 1.8945 2.3438 2.8438 5.3594 2.8438 9.0469s-0.94922 6.7031-2.8438 9.0469c-1.8984 2.3438-4.3203 3.5156-7.2656 3.5156-1.668 0-3.1406-0.33594-4.4219-1s-2.4492-1.6914-3.5-3.0781v3.4531h-7.6562v-33.234h7.6562z"/>
  </symbol>
  <symbol id="f" overflow="visible">
   <path d="m0.53125-23.922h7.6562l6.4219 16.234 5.4688-16.234h7.6562l-10.062 26.188c-1.0117 2.6641-2.1953 4.5234-3.5469 5.5781-1.3438 1.0625-3.1211 1.5938-5.3281 1.5938h-4.4219v-5.0156h2.3906c1.3008 0 2.2422-0.21094 2.8281-0.625 0.59375-0.40625 1.0547-1.1484 1.3906-2.2188l0.20312-0.65625z"/>
  </symbol>
  <symbol id="e" overflow="visible">
   <path d="m27.734-14.562v14.562h-7.7031v-11.156c0-2.0625-0.046875-3.4844-0.14062-4.2656-0.085937-0.78125-0.24219-1.3594-0.46875-1.7344-0.30469-0.5-0.71094-0.88281-1.2188-1.1562-0.51172-0.28125-1.0938-0.42188-1.75-0.42188-1.5938 0-2.8516 0.61719-3.7656 1.8438-0.90625 1.2305-1.3594 2.9375-1.3594 5.125v11.766h-7.6562v-23.922h7.6562v3.5c1.1445-1.3945 2.3633-2.4219 3.6562-3.0781 1.3008-0.66406 2.7383-1 4.3125-1 2.7578 0 4.8516 0.85156 6.2812 2.5469 1.4375 1.6875 2.1562 4.1523 2.1562 7.3906z"/>
  </symbol>
  <symbol id="k" overflow="visible">
   <path d="m3.6719-23.922h7.6562v23.5c0 3.1953-0.77344 5.6406-2.3125 7.3281-1.543 1.6875-3.7734 2.5312-6.6875 2.5312h-3.7812v-5.0156h1.3281c1.4453 0 2.4414-0.32812 2.9844-0.98438 0.53906-0.65625 0.8125-1.9453 0.8125-3.8594zm0-9.3125h7.6562v6.2344h-7.6562z"/>
  </symbol>
  <symbol id="j" overflow="visible">
   <path d="m3.6719-23.922h7.6562v23.922h-7.6562zm0-9.3125h7.6562v6.2344h-7.6562z"/>
  </symbol>
  <symbol id="i" overflow="visible">
   <path d="m3.6719-33.234h7.6562v18.094l8.7969-8.7812h8.8906l-11.688 10.969 12.594 12.953h-9.2656l-9.3281-9.9688v9.9688h-7.6562z"/>
  </symbol>
 </defs>
 <g>
  <path d="m350 498.75v-61.25c0-4.832 3.918-8.75 8.75-8.75h8.75v-78.75c-4.832 0-8.75-3.918-8.75-8.75v-8.75h-157.5v8.75c0 2.3203-0.92188 4.5469-2.5625 6.1875s-3.8672 2.5625-6.1875 2.5625v78.75h8.75c2.3203 0 4.5469 0.92188 6.1875 2.5625s2.5625 3.8672 2.5625 6.1875v61.25h17.5v-96.25c0-18.758 10.008-36.09 26.25-45.465 16.242-9.3789 36.258-9.3789 52.5 0 16.242 9.375 26.25 26.707 26.25 45.465v96.25z"/>
  <path d="m273.88 134.97c3.4141-3.3945 8.9258-3.3945 12.336 0l160.77 159.67c2.7969 2.7812 6.9844 3.625 10.641 2.1406s6.0703-5.0117 6.1328-8.957c0.003906-2.5664-1.0273-5.0273-2.8516-6.8281l-174.7-173.45c-1.6484-1.6406-3.8789-2.5547-6.2031-2.5469-2.3242-0.007812-4.5547 0.90625-6.2031 2.5469l-28.875 28.707 13.781 13.781z"/>
  <path d="m245 498.75h26.25v-130.01c-7.4922 1.9336-14.129 6.2969-18.879 12.402-4.75 6.1094-7.3438 13.617-7.3711 21.355z"/>
  <path d="m148.75 297.5h35v35h-35z"/>
  <path d="m352.55 148.75 114.56 113.75h62.66l-114.55-113.75z"/>
  <path d="m437.5 463.75h148.75v35h-148.75z"/>
  <path d="m157.5 350h17.5v78.75h-17.5z"/>
  <path d="m418.82 131.25c2.2969 0.011719 4.4961 0.92578 6.125 2.5469l16.355 16.238 13.781-13.781-28.875-28.707h-0.003906c-1.6484-1.6406-3.8789-2.5547-6.2031-2.5469h-111.52l26.434 26.25z"/>
  <path d="m586.25 313.79c-4.3711-1.2383-8.3672-3.5508-11.609-6.7305l-27.242-27.055h-67.426c0.80859 2.5312 1.2383 5.168 1.2773 7.8242-0.039062 7.2227-2.9375 14.137-8.0586 19.23s-12.047 7.957-19.273 7.9609c-7.2227 0.003906-14.152-2.8516-19.277-7.9414l-5.8906-5.8711v40.047c0 2.3203-0.92188 4.5469-2.5625 6.1875s-3.8672 2.5625-6.1875 2.5625v78.75h8.75c2.3203 0 4.5469 0.92188 6.1875 2.5625s2.5625 3.8672 2.5625 6.1875v8.75h8.75v-113.75c0-4.832 3.918-8.75 8.75-8.75h105c2.3203 0 4.5469 0.92188 6.1875 2.5625s2.5625 3.8672 2.5625 6.1875v113.75h17.5z"/>
  <path d="m516.25 341.25h35v105h-35z"/>
  <path d="m463.75 341.25h35v105h-35z"/>
  <path d="m288.75 498.75h26.25v-96.25c-0.027344-7.7383-2.6211-15.246-7.3711-21.355-4.75-6.1055-11.387-10.469-18.879-12.402z"/>
  <path d="m106.06 297.5c2.6211 0.023438 5.1406-1.0039 7-2.8516l106.84-106.13-13.781-13.781-107.01 106.26c-1.8242 1.8008-2.8555 4.2617-2.8516 6.8281 0.042969 5.375 4.4297 9.7031 9.8086 9.6758z"/>
  <path d="m166.25 113.75c2.3203 0 4.5469 0.92188 6.1875 2.5625l59.875 59.875 13.93-13.824-59.93-59.93v0.003906c-1.6406-1.6406-2.5625-3.8672-2.5625-6.1875v-40.129l-29.871-29.871h-19.008l20.066 20.062c3.4141 3.418 3.4141 8.957 0 12.375l-26.25 26.25c-3.418 3.4141-8.957 3.4141-12.375 0l-20.062-20.066v19.008l29.871 29.871z"/>
  <path d="m96.25 516.25h507.5v17.5h-507.5z"/>
  <path d="m367.5 446.25h52.5v52.5h-52.5z"/>
  <path d="m140 446.25h52.5v52.5h-52.5z"/>
  <path d="m583.69 84.938c-3.418 3.4141-8.957 3.4141-12.375 0l-26.25-26.25c-3.4141-3.418-3.4141-8.957 0-12.375l20.066-20.062h-19.008l-29.871 29.871v40.129c0 2.3203-0.92188 4.5469-2.5625 6.1875l-59.93 59.93 13.93 13.824 59.875-59.875v-0.003906c1.6406-1.6406 3.8672-2.5625 6.1875-2.5625h40.129l29.871-29.871v-19.008z"/>
  <path d="m493.89 174.74-13.781 13.781 106.87 106.12c2.7969 2.7812 6.9844 3.625 10.641 2.1406s6.0703-5.0117 6.1328-8.957c0.003906-2.5664-1.0273-5.0273-2.8516-6.8281z"/>
  <path d="m231.12 280h97.758l-48.879-48.879z"/>
  <path d="m376.25 297.5h35v35h-35z"/>
  <path d="m273.81 212.56c3.418-3.4141 8.957-3.4141 12.375 0l67.434 67.438h53.77l-127.39-126.49-127.39 126.49h53.77z"/>
  <path d="m385 350h17.5v78.75h-17.5z"/>
  <path d="m201.25 297.5h157.5v17.5h-157.5z"/>
 </g>
</svg>
