<?xml version="1.0" encoding="UTF-8"?>
<svg width="700pt" height="700pt" version="1.1" viewBox="0 0 700 700" xmlns="http://www.w3.org/2000/svg" xmlns:xlink="http://www.w3.org/1999/xlink">
 <defs>
  <symbol id="u" overflow="visible">
   <path d="m9.1562-0.54688c-0.48047 0.24219-0.97656 0.42188-1.4844 0.54688-0.51172 0.125-1.043 0.1875-1.5938 0.1875-1.6562 0-2.9688-0.46094-3.9375-1.3906-0.96875-0.92578-1.4531-2.1797-1.4531-3.7656 0-1.5938 0.48438-2.8516 1.4531-3.7812 0.96875-0.92578 2.2812-1.3906 3.9375-1.3906 0.55078 0 1.082 0.0625 1.5938 0.1875 0.50781 0.125 1.0039 0.3125 1.4844 0.5625v2.0625c-0.48047-0.33203-0.95312-0.57031-1.4219-0.71875-0.46094-0.15625-0.94531-0.23438-1.4531-0.23438-0.91797 0-1.6406 0.29688-2.1719 0.89062-0.52344 0.58594-0.78125 1.3906-0.78125 2.4219s0.25781 1.8398 0.78125 2.4219c0.53125 0.58594 1.2539 0.875 2.1719 0.875 0.50781 0 0.99219-0.070313 1.4531-0.21875 0.46875-0.15625 0.94141-0.39453 1.4219-0.71875z"/>
  </symbol>
  <symbol id="a" overflow="visible">
   <path d="m6.6875-5.4375c-0.21094-0.09375-0.41797-0.16016-0.625-0.20312-0.19922-0.050781-0.40234-0.078125-0.60938-0.078125-0.61719 0-1.0898 0.19922-1.4219 0.59375-0.33594 0.38672-0.5 0.94922-0.5 1.6875v3.4375h-2.3906v-7.4688h2.3906v1.2344c0.3125-0.48828 0.66406-0.84375 1.0625-1.0625 0.39453-0.22656 0.86719-0.34375 1.4219-0.34375 0.082031 0 0.17188 0.007813 0.26562 0.015625 0.09375 0 0.22656 0.011719 0.40625 0.03125z"/>
  </symbol>
  <symbol id="d" overflow="visible">
   <path d="m8.6094-3.75v0.67188h-5.5938c0.0625 0.5625 0.26562 0.98438 0.60938 1.2656s0.82812 0.42188 1.4531 0.42188c0.5 0 1.0156-0.070313 1.5469-0.21875 0.53125-0.15625 1.0703-0.38281 1.625-0.6875v1.8438c-0.5625 0.21094-1.1328 0.36719-1.7031 0.46875-0.5625 0.11328-1.125 0.17188-1.6875 0.17188-1.3555 0-2.4062-0.33594-3.1562-1.0156-0.74219-0.6875-1.1094-1.6562-1.1094-2.9062 0-1.207 0.36328-2.1602 1.0938-2.8594 0.73828-0.69531 1.7539-1.0469 3.0469-1.0469 1.1641 0 2.1016 0.35547 2.8125 1.0625 0.70703 0.69922 1.0625 1.6406 1.0625 2.8281zm-2.4688-0.79688c0-0.45703-0.13281-0.82031-0.39062-1.0938-0.26172-0.28125-0.60547-0.42188-1.0312-0.42188-0.46875 0-0.85156 0.13281-1.1406 0.39062-0.28125 0.26172-0.46094 0.63672-0.53125 1.125z"/>
  </symbol>
  <symbol id="c" overflow="visible">
   <path d="m4.5-3.3594c-0.5 0-0.875 0.085937-1.125 0.25-0.25 0.16797-0.375 0.41797-0.375 0.75 0 0.30469 0.097656 0.54297 0.29688 0.71875 0.19531 0.16797 0.47656 0.25 0.84375 0.25 0.44531 0 0.82031-0.16016 1.125-0.48438 0.3125-0.32031 0.46875-0.72656 0.46875-1.2188v-0.26562zm3.6406-0.90625v4.2656h-2.4062v-1.1094c-0.32422 0.46094-0.6875 0.79297-1.0938 1-0.39844 0.19531-0.88281 0.29688-1.4531 0.29688-0.77344 0-1.3984-0.22266-1.875-0.67188-0.48047-0.44531-0.71875-1.0312-0.71875-1.75 0-0.875 0.29688-1.5156 0.89062-1.9219 0.60156-0.41406 1.5508-0.625 2.8438-0.625h1.4062v-0.1875c0-0.375-0.15234-0.64844-0.45312-0.82812-0.29297-0.17578-0.75781-0.26562-1.3906-0.26562-0.51172 0-0.98438 0.054688-1.4219 0.15625-0.4375 0.10547-0.85156 0.25781-1.2344 0.45312v-1.8125c0.50781-0.125 1.0195-0.21875 1.5312-0.28125 0.51953-0.0625 1.0391-0.09375 1.5625-0.09375 1.3438 0 2.3125 0.26562 2.9062 0.79688 0.60156 0.53125 0.90625 1.3906 0.90625 2.5781z"/>
  </symbol>
  <symbol id="b" overflow="visible">
   <path d="m3.75-9.5938v2.125h2.4688v1.7031h-2.4688v3.1719c0 0.34375 0.066406 0.57812 0.20312 0.70312 0.14453 0.125 0.42188 0.1875 0.82812 0.1875h1.2344v1.7031h-2.0625c-0.9375 0-1.6055-0.19531-2-0.59375-0.39844-0.39453-0.59375-1.0625-0.59375-2v-3.1719h-1.1719v-1.7031h1.1719v-2.125z"/>
  </symbol>
  <symbol id="i" overflow="visible">
   <path d="m6.2344-6.375v-4h2.3906v10.375h-2.3906v-1.0781c-0.33594 0.4375-0.69922 0.76172-1.0938 0.96875-0.39844 0.19531-0.85547 0.29688-1.375 0.29688-0.91797 0-1.6719-0.36328-2.2656-1.0938-0.59375-0.72656-0.89062-1.6719-0.89062-2.8281 0-1.1445 0.29688-2.082 0.89062-2.8125 0.59375-0.72656 1.3477-1.0938 2.2656-1.0938 0.51953 0 0.97656 0.10547 1.375 0.3125 0.39453 0.19922 0.75781 0.51562 1.0938 0.95312zm-1.5781 4.8281c0.50781 0 0.89844-0.17969 1.1719-0.54688 0.26953-0.375 0.40625-0.92188 0.40625-1.6406 0-0.70703-0.13672-1.25-0.40625-1.625-0.27344-0.375-0.66406-0.5625-1.1719-0.5625-0.51172 0-0.90234 0.1875-1.1719 0.5625-0.26172 0.375-0.39062 0.91797-0.39062 1.625 0 0.71875 0.12891 1.2656 0.39062 1.6406 0.26953 0.36719 0.66016 0.54688 1.1719 0.54688z"/>
  </symbol>
  <symbol id="h" overflow="visible">
   <path d="m5.125-1.5469c0.50781 0 0.89453-0.17969 1.1562-0.54688 0.26953-0.375 0.40625-0.92188 0.40625-1.6406 0-0.70703-0.13672-1.25-0.40625-1.625-0.26172-0.375-0.64844-0.5625-1.1562-0.5625-0.51172 0-0.90625 0.19531-1.1875 0.57812-0.27344 0.375-0.40625 0.91406-0.40625 1.6094 0 0.71094 0.13281 1.25 0.40625 1.625 0.28125 0.375 0.67578 0.5625 1.1875 0.5625zm-1.5938-4.8281c0.33203-0.4375 0.69531-0.75391 1.0938-0.95312 0.40625-0.20703 0.86719-0.3125 1.3906-0.3125 0.91406 0 1.6641 0.36719 2.25 1.0938 0.59375 0.73047 0.89062 1.668 0.89062 2.8125 0 1.1562-0.29688 2.1016-0.89062 2.8281-0.58594 0.73047-1.3359 1.0938-2.25 1.0938-0.52344 0-0.98438-0.10156-1.3906-0.29688-0.39844-0.20703-0.76172-0.53125-1.0938-0.96875v1.0781h-2.3906v-10.375h2.3906z"/>
  </symbol>
  <symbol id="g" overflow="visible">
   <path d="m0.17188-7.4688h2.375l2.0156 5.0625 1.7031-5.0625h2.3906l-3.1406 8.1719c-0.3125 0.83203-0.68359 1.4141-1.1094 1.75-0.41797 0.33203-0.96875 0.5-1.6562 0.5h-1.3906v-1.5781h0.75c0.40625 0 0.70312-0.0625 0.89062-0.1875s0.32812-0.35547 0.42188-0.6875l0.078125-0.21875z"/>
  </symbol>
  <symbol id="f" overflow="visible">
   <path d="m0.0625-9.9531h9.1719v1.9375h-3.2969v8.0156h-2.5625v-8.0156h-3.3125z"/>
  </symbol>
  <symbol id="t" overflow="visible">
   <path d="m8.1875-9.6406v2.1094c-0.55469-0.25-1.0898-0.4375-1.6094-0.5625-0.52344-0.125-1.0117-0.1875-1.4688-0.1875-0.61719 0-1.0703 0.089844-1.3594 0.26562-0.29297 0.16797-0.4375 0.42969-0.4375 0.78125 0 0.27344 0.097656 0.48047 0.29688 0.625 0.19531 0.14844 0.55469 0.27344 1.0781 0.375l1.0938 0.21875c1.1016 0.23047 1.8828 0.57422 2.3438 1.0312 0.46875 0.44922 0.70312 1.0898 0.70312 1.9219 0 1.1055-0.32812 1.9219-0.98438 2.4531-0.64844 0.53125-1.6367 0.79688-2.9688 0.79688-0.63672 0-1.2734-0.0625-1.9062-0.1875-0.63672-0.11328-1.2734-0.28516-1.9062-0.51562v-2.1719c0.63281 0.33594 1.25 0.58984 1.8438 0.76562 0.59375 0.16797 1.1641 0.25 1.7188 0.25 0.5625 0 0.98828-0.09375 1.2812-0.28125 0.30078-0.1875 0.45312-0.45312 0.45312-0.79688 0-0.3125-0.10547-0.55078-0.3125-0.71875-0.19922-0.16406-0.60156-0.31641-1.2031-0.45312l-0.98438-0.21875c-1-0.21875-1.7305-0.55469-2.1875-1.0156-0.46094-0.46875-0.6875-1.0977-0.6875-1.8906 0-0.98828 0.31641-1.75 0.95312-2.2812 0.64453-0.53906 1.5664-0.8125 2.7656-0.8125 0.53906 0 1.0977 0.042969 1.6719 0.125 0.58203 0.085937 1.1875 0.21094 1.8125 0.375z"/>
  </symbol>
  <symbol id="s" overflow="visible">
   <path d="m0.48438-7.4688h2.3125l1.25 5.1406 1.2656-5.1406h2l1.25 5.0938 1.2656-5.0938h2.3125l-1.9688 7.4688h-2.6094l-1.25-5.1406-1.2656 5.1406h-2.5938z"/>
  </symbol>
  <symbol id="r" overflow="visible">
   <path d="m6.0625-10.375v1.5625h-1.3281c-0.33594 0-0.57031 0.0625-0.70312 0.1875-0.13672 0.125-0.20312 0.33984-0.20312 0.64062v0.51562h2.0469v1.7031h-2.0469v5.7656h-2.375v-5.7656h-1.1875v-1.7031h1.1875v-0.51562c0-0.8125 0.22266-1.4102 0.67188-1.7969 0.45703-0.39453 1.1602-0.59375 2.1094-0.59375z"/>
  </symbol>
  <symbol id="e" overflow="visible">
   <path d="m4.7031-5.9375c-0.53125 0-0.9375 0.19531-1.2188 0.57812-0.27344 0.375-0.40625 0.91797-0.40625 1.625 0 0.71875 0.13281 1.2734 0.40625 1.6562 0.28125 0.375 0.6875 0.5625 1.2188 0.5625 0.51953 0 0.91406-0.1875 1.1875-0.5625 0.28125-0.38281 0.42188-0.9375 0.42188-1.6562 0-0.70703-0.14062-1.25-0.42188-1.625-0.27344-0.38281-0.66797-0.57812-1.1875-0.57812zm0-1.7031c1.2812 0 2.2812 0.35156 3 1.0469 0.72656 0.6875 1.0938 1.6406 1.0938 2.8594 0 1.2305-0.36719 2.1953-1.0938 2.8906-0.71875 0.6875-1.7188 1.0312-3 1.0312-1.293 0-2.3047-0.34375-3.0312-1.0312-0.71875-0.69531-1.0781-1.6602-1.0781-2.8906 0-1.2188 0.35938-2.1719 1.0781-2.8594 0.72656-0.69531 1.7383-1.0469 3.0312-1.0469z"/>
  </symbol>
  <symbol id="q" overflow="visible">
   <path d="m8.0625-6.2344c0.30078-0.45703 0.66016-0.80469 1.0781-1.0469 0.41406-0.23828 0.875-0.35938 1.375-0.35938 0.85156 0 1.5039 0.26562 1.9531 0.79688 0.45703 0.52344 0.6875 1.2891 0.6875 2.2969v4.5469h-2.4062v-3.8906-0.1875c0.007812-0.0625 0.015625-0.14844 0.015625-0.26562 0-0.53125-0.078125-0.91016-0.23438-1.1406-0.15625-0.23828-0.40625-0.35938-0.75-0.35938-0.46094 0-0.8125 0.1875-1.0625 0.5625-0.24219 0.36719-0.36719 0.90234-0.375 1.6094v3.6719h-2.4062v-3.8906c0-0.83203-0.074219-1.3633-0.21875-1.5938-0.13672-0.23828-0.38672-0.35938-0.75-0.35938-0.46094 0-0.8125 0.1875-1.0625 0.5625s-0.375 0.91406-0.375 1.6094v3.6719h-2.3906v-7.4688h2.3906v1.0938c0.28906-0.42578 0.625-0.74219 1-0.95312 0.38281-0.20703 0.80469-0.3125 1.2656-0.3125 0.51953 0 0.97656 0.125 1.375 0.375 0.39453 0.24219 0.69141 0.58594 0.89062 1.0312z"/>
  </symbol>
  <symbol id="p" overflow="visible">
   <path d="m8.6562-4.5469v4.5469h-2.4062v-3.4688c0-0.65625-0.015625-1.1016-0.046875-1.3438-0.023437-0.25-0.070313-0.42969-0.14062-0.54688-0.09375-0.15625-0.22656-0.27344-0.39062-0.35938-0.15625-0.082031-0.33594-0.125-0.53125-0.125-0.5 0-0.89844 0.19531-1.1875 0.57812-0.28125 0.38672-0.42188 0.91797-0.42188 1.5938v3.6719h-2.3906v-10.375h2.3906v4c0.36328-0.4375 0.74219-0.75391 1.1406-0.95312 0.40625-0.20703 0.85156-0.3125 1.3438-0.3125 0.86328 0 1.5195 0.26562 1.9688 0.79688 0.44531 0.52344 0.67188 1.2891 0.67188 2.2969z"/>
  </symbol>
  <symbol id="o" overflow="visible">
   <path d="m1.25-9.9531h2.875l3.6094 6.8281v-6.8281h2.4375v9.9531h-2.8594l-3.625-6.8281v6.8281h-2.4375z"/>
  </symbol>
  <symbol id="n" overflow="visible">
   <path d="m1.0625-2.9062v-4.5625h2.4062v0.75c0 0.40625-0.007812 0.91797-0.015625 1.5312v1.2188c0 0.59375 0.015625 1.0273 0.046875 1.2969 0.03125 0.26172 0.082031 0.45312 0.15625 0.57812 0.10156 0.15625 0.23438 0.27734 0.39062 0.35938 0.15625 0.085937 0.33594 0.125 0.54688 0.125 0.48828 0 0.875-0.19141 1.1562-0.57812 0.28906-0.38281 0.4375-0.91406 0.4375-1.5938v-3.6875h2.3906v7.4688h-2.3906v-1.0781c-0.36719 0.4375-0.75 0.76172-1.1562 0.96875-0.39844 0.19531-0.83594 0.29688-1.3125 0.29688-0.86719 0-1.5273-0.25781-1.9844-0.78125-0.44922-0.53125-0.67188-1.3008-0.67188-2.3125z"/>
  </symbol>
  <symbol id="m" overflow="visible">
   <path d="m8.6562-4.5469v4.5469h-2.4062v-3.4844c0-0.64453-0.015625-1.0859-0.046875-1.3281-0.023437-0.25-0.070313-0.42969-0.14062-0.54688-0.09375-0.15625-0.22656-0.27344-0.39062-0.35938-0.15625-0.082031-0.33594-0.125-0.53125-0.125-0.5 0-0.89844 0.19531-1.1875 0.57812-0.28125 0.38672-0.42188 0.91797-0.42188 1.5938v3.6719h-2.3906v-7.4688h2.3906v1.0938c0.36328-0.4375 0.74219-0.75391 1.1406-0.95312 0.40625-0.20703 0.85156-0.3125 1.3438-0.3125 0.86328 0 1.5195 0.26562 1.9688 0.79688 0.44531 0.52344 0.67188 1.2891 0.67188 2.2969z"/>
  </symbol>
  <symbol id="l" overflow="visible">
   <path d="m1.25-9.9531h4.2656c1.2695 0 2.2422 0.28125 2.9219 0.84375 0.67578 0.5625 1.0156 1.3672 1.0156 2.4062 0 1.043-0.33984 1.8438-1.0156 2.4062-0.67969 0.5625-1.6523 0.84375-2.9219 0.84375h-1.6875v3.4531h-2.5781zm2.5781 1.8594v2.7812h1.4062c0.5 0 0.88281-0.11719 1.1562-0.35938 0.26953-0.25 0.40625-0.59375 0.40625-1.0312 0-0.44531-0.13672-0.78906-0.40625-1.0312-0.27344-0.23828-0.65625-0.35938-1.1562-0.35938z"/>
  </symbol>
  <symbol id="k" overflow="visible">
   <path d="m1.1406-7.4688h2.3906v7.3281c0 1-0.24219 1.7656-0.71875 2.2969-0.48047 0.53125-1.1719 0.79688-2.0781 0.79688h-1.1875v-1.5781h0.40625c0.45703 0 0.76953-0.10547 0.9375-0.3125 0.16406-0.19922 0.25-0.60156 0.25-1.2031zm0-2.9062h2.3906v1.9531h-2.3906z"/>
  </symbol>
  <symbol id="j" overflow="visible">
   <path d="m7.1875-7.2344v1.9531c-0.33594-0.22656-0.66406-0.39453-0.98438-0.5-0.32422-0.10156-0.66406-0.15625-1.0156-0.15625-0.66797 0-1.1875 0.19531-1.5625 0.57812-0.36719 0.38672-0.54688 0.92969-0.54688 1.625 0 0.69922 0.17969 1.2461 0.54688 1.6406 0.375 0.38672 0.89453 0.57812 1.5625 0.57812 0.375 0 0.72656-0.050781 1.0625-0.15625 0.33203-0.11328 0.64453-0.28125 0.9375-0.5v1.9531c-0.375 0.13672-0.75781 0.23438-1.1406 0.29688-0.38672 0.070313-0.77344 0.10938-1.1562 0.10938-1.3438 0-2.3984-0.34375-3.1562-1.0312-0.76172-0.6875-1.1406-1.6484-1.1406-2.8906 0-1.2266 0.37891-2.1875 1.1406-2.875 0.75781-0.6875 1.8125-1.0312 3.1562-1.0312 0.38281 0 0.76562 0.039063 1.1406 0.10938 0.38281 0.0625 0.76953 0.16406 1.1562 0.29688z"/>
  </symbol>
 </defs>
 <g>
  <path d="m342.08 435.98h-116.37v-130.03c0-7.375-6.0078-13.66-13.66-13.66-7.375 0-13.66 6.0078-13.66 13.66v143.41c0 7.375 6.0078 13.66 13.66 13.66h130.03c7.375 0 13.66-6.0078 13.66-13.66 0.003906-7.375-6.2812-13.387-13.656-13.387z"/>
  <path d="m418.02 190.12v41.25h-38.789c-7.375 0-13.66 6.0078-13.66 13.66v0.54688 0.54688 203.51c0 7.375 6.0078 13.66 13.66 13.66h157.07c7.375 0 13.66-6.0078 13.66-13.66l-0.003906-341.46c0-7.375-6.0078-13.66-13.66-13.66h-157.07c-7.375 0-13.66 6.0078-13.66 13.66 0 7.375 6.0078 13.66 13.66 13.66h38.789v41.25l-55.723-0.003907-45.348-45.344c-2.7305-2.7305-6.0078-3.8242-9.5625-3.8242-3.5508 0-7.1016 1.3672-9.5625 3.8242l-163.9 163.9c-5.1914 5.1914-5.1914 13.934 0 19.121 5.1914 5.1914 13.934 5.1914 19.121 0l154.34-154.34 43.707 43.707m93.977-68.293h25.133v41.25h-25.133zm0 68.289h25.133v41.25h-25.133zm0 68.02h25.133v41.25h-25.133zm0 68.293h25.133v41.25h-25.133zm-52.449-68.293h25.133v41.25h-25.133zm0 68.293h25.133v41.25h-25.133zm130.03 109.54h-130.03v-41.25h130.03zm0-68.293h-25.133v-41.25h25.133zm0-68.293h-25.133v-41.25h25.133zm0-68.293h-25.133v-40.977h25.133zm0-68.293h-25.133v-40.973h25.133z"/>
 
 </g>
</svg>
