<?xml version="1.0" encoding="UTF-8"?>
<svg width="700pt" height="700pt" version="1.1" viewBox="0 0 700 700" xmlns="http://www.w3.org/2000/svg" xmlns:xlink="http://www.w3.org/1999/xlink">
 <defs>
  <symbol id="y" overflow="visible">
   <path d="m4.1719-0.25c-0.21875 0.11719-0.44922 0.19922-0.6875 0.25-0.23047 0.0625-0.46875 0.09375-0.71875 0.09375-0.75 0-1.3516-0.20703-1.7969-0.625-0.4375-0.42578-0.65625-1.0039-0.65625-1.7344 0-0.71875 0.21875-1.2852 0.65625-1.7031 0.44531-0.42578 1.0469-0.64062 1.7969-0.64062 0.25 0 0.48828 0.027344 0.71875 0.078125 0.23828 0.054688 0.46875 0.13672 0.6875 0.25v0.9375c-0.21875-0.14453-0.4375-0.25-0.65625-0.3125-0.21094-0.070312-0.42969-0.10938-0.65625-0.10938-0.41797 0-0.74609 0.13672-0.98438 0.40625-0.24219 0.26172-0.35938 0.625-0.35938 1.0938s0.11719 0.83984 0.35938 1.1094c0.23828 0.26172 0.56641 0.39062 0.98438 0.39062 0.22656 0 0.44531-0.03125 0.65625-0.09375 0.21875-0.070313 0.4375-0.17969 0.65625-0.32812z"/>
  </symbol>
  <symbol id="c" overflow="visible">
   <path d="m3.0469-2.4688c-0.09375-0.050781-0.1875-0.085938-0.28125-0.10938-0.09375-0.019531-0.1875-0.03125-0.28125-0.03125-0.28125 0-0.5 0.09375-0.65625 0.28125-0.14844 0.17969-0.21875 0.43359-0.21875 0.76562v1.5625h-1.0938v-3.4062h1.0938v0.5625c0.13281-0.21875 0.28906-0.37891 0.46875-0.48438 0.1875-0.10156 0.40625-0.15625 0.65625-0.15625 0.039063 0 0.082031 0.007813 0.125 0.015625 0.039063 0 0.10156 0.007812 0.1875 0.015625z"/>
  </symbol>
  <symbol id="a" overflow="visible">
   <path d="m3.9219-1.7031v0.29688h-2.5469c0.03125 0.26172 0.125 0.45312 0.28125 0.57812s0.375 0.1875 0.65625 0.1875c0.22656 0 0.46094-0.03125 0.70312-0.09375 0.23828-0.070313 0.48438-0.17578 0.73438-0.3125v0.84375c-0.25 0.09375-0.50781 0.16797-0.76562 0.21875-0.26172 0.050781-0.51562 0.078125-0.76562 0.078125-0.61719 0-1.0938-0.15625-1.4375-0.46875s-0.51562-0.75391-0.51562-1.3281c0-0.55078 0.16406-0.98438 0.5-1.2969 0.33203-0.32031 0.79688-0.48438 1.3906-0.48438 0.53125 0 0.95703 0.16406 1.2812 0.48438 0.32031 0.32422 0.48438 0.75781 0.48438 1.2969zm-1.125-0.375c0-0.19531-0.0625-0.35938-0.1875-0.48438-0.11719-0.13281-0.27344-0.20312-0.46875-0.20312-0.21094 0-0.38281 0.0625-0.51562 0.1875-0.125 0.11719-0.20312 0.28125-0.23438 0.5z"/>
  </symbol>
  <symbol id="k" overflow="visible">
   <path d="m2.0469-1.5312c-0.23047 0-0.40234 0.042969-0.51562 0.125-0.11719 0.074219-0.17188 0.18359-0.17188 0.32812 0 0.13672 0.046875 0.24609 0.14062 0.32812 0.09375 0.074219 0.22266 0.10938 0.39062 0.10938 0.19531 0 0.36328-0.070313 0.5-0.21875 0.14453-0.14453 0.21875-0.32812 0.21875-0.54688v-0.125zm1.6562-0.40625v1.9375h-1.0938v-0.5c-0.14844 0.21094-0.3125 0.35938-0.5 0.45312-0.17969 0.09375-0.39844 0.14062-0.65625 0.14062-0.35547 0-0.64062-0.10156-0.85938-0.3125-0.21875-0.20703-0.32812-0.47266-0.32812-0.79688 0-0.40625 0.13281-0.69531 0.40625-0.875 0.28125-0.1875 0.71094-0.28125 1.2969-0.28125h0.64062v-0.09375c0-0.16406-0.070313-0.28906-0.20312-0.375-0.13672-0.082031-0.35156-0.125-0.64062-0.125-0.23047 0-0.44531 0.027344-0.64062 0.078125-0.19922 0.042969-0.38672 0.10938-0.5625 0.20312v-0.82812c0.22656-0.050781 0.46094-0.09375 0.70312-0.125 0.23828-0.03125 0.47266-0.046875 0.70312-0.046875 0.61328 0 1.0547 0.125 1.3281 0.375 0.26953 0.24219 0.40625 0.63281 0.40625 1.1719z"/>
  </symbol>
  <symbol id="b" overflow="visible">
   <path d="m1.7031-4.3594v0.95312h1.125v0.78125h-1.125v1.4375c0 0.16797 0.03125 0.27734 0.09375 0.32812 0.0625 0.054687 0.1875 0.078125 0.375 0.078125h0.5625v0.78125h-0.9375c-0.42969 0-0.73047-0.085938-0.90625-0.26562-0.17969-0.17578-0.26562-0.48438-0.26562-0.92188v-1.4375h-0.54688v-0.78125h0.54688v-0.95312z"/>
  </symbol>
  <symbol id="j" overflow="visible">
   <path d="m2.8438-2.9062v-1.8125h1.0781v4.7188h-1.0781v-0.48438c-0.15625 0.19922-0.32422 0.34375-0.5 0.4375-0.17969 0.09375-0.38672 0.14062-0.625 0.14062-0.41797 0-0.76172-0.16406-1.0312-0.5-0.27344-0.33203-0.40625-0.76562-0.40625-1.2969 0-0.51953 0.13281-0.94531 0.40625-1.2812 0.26953-0.33203 0.61328-0.5 1.0312-0.5 0.22656 0 0.42969 0.046875 0.60938 0.14062 0.1875 0.09375 0.35938 0.24219 0.51562 0.4375zm-0.71875 2.2031c0.22656 0 0.40625-0.082031 0.53125-0.25 0.125-0.17578 0.1875-0.42578 0.1875-0.75 0-0.32031-0.0625-0.56641-0.1875-0.73438-0.125-0.16406-0.30469-0.25-0.53125-0.25-0.24219 0-0.42188 0.085938-0.54688 0.25-0.11719 0.16797-0.17188 0.41406-0.17188 0.73438 0 0.32422 0.054688 0.57422 0.17188 0.75 0.125 0.16797 0.30469 0.25 0.54688 0.25z"/>
  </symbol>
  <symbol id="i" overflow="visible">
   <path d="m2.3281-0.70312c0.23828 0 0.41406-0.082031 0.53125-0.25 0.125-0.17578 0.1875-0.42578 0.1875-0.75 0-0.32031-0.0625-0.56641-0.1875-0.73438-0.11719-0.16406-0.29297-0.25-0.53125-0.25-0.23047 0-0.40625 0.085938-0.53125 0.25-0.125 0.16797-0.1875 0.41406-0.1875 0.73438 0 0.32422 0.0625 0.57422 0.1875 0.75 0.125 0.16797 0.30078 0.25 0.53125 0.25zm-0.71875-2.2031c0.14453-0.19531 0.30469-0.34375 0.48438-0.4375 0.1875-0.09375 0.39844-0.14062 0.64062-0.14062 0.41406 0 0.75781 0.16797 1.0312 0.5 0.26953 0.33594 0.40625 0.76172 0.40625 1.2812 0 0.53125-0.13672 0.96484-0.40625 1.2969-0.27344 0.33594-0.61719 0.5-1.0312 0.5-0.24219 0-0.45312-0.046875-0.64062-0.14062-0.17969-0.09375-0.33984-0.23828-0.48438-0.4375v0.48438h-1.0938v-4.7188h1.0938z"/>
  </symbol>
  <symbol id="h" overflow="visible">
   <path d="m0.078125-3.4062h1.0781l0.92188 2.3125 0.78125-2.3125h1.0781l-1.4219 3.7344c-0.14844 0.375-0.32031 0.63281-0.51562 0.78125-0.1875 0.15625-0.4375 0.23438-0.75 0.23438h-0.625v-0.71875h0.34375c0.17578 0 0.30469-0.03125 0.39062-0.09375 0.082031-0.054688 0.14844-0.15625 0.20312-0.3125l0.03125-0.09375z"/>
  </symbol>
  <symbol id="g" overflow="visible">
   <path d="m3.7188-4.3906v0.95312c-0.24219-0.10156-0.48047-0.17969-0.71875-0.23438-0.24219-0.0625-0.46484-0.09375-0.67188-0.09375-0.28125 0-0.49219 0.042969-0.625 0.125-0.13672 0.074219-0.20312 0.1875-0.20312 0.34375 0 0.125 0.046875 0.22656 0.14062 0.29688 0.09375 0.0625 0.25391 0.11719 0.48438 0.15625l0.5 0.10938c0.50781 0.10547 0.86719 0.26172 1.0781 0.46875 0.20703 0.19922 0.3125 0.49219 0.3125 0.875 0 0.5-0.14844 0.875-0.4375 1.125-0.29297 0.24219-0.74609 0.35938-1.3594 0.35938-0.29297 0-0.58594-0.03125-0.875-0.09375-0.28125-0.050781-0.57031-0.12891-0.85938-0.23438v-0.98438c0.28906 0.14844 0.57031 0.26172 0.84375 0.34375 0.26953 0.074219 0.53125 0.10938 0.78125 0.10938s0.44141-0.039063 0.57812-0.125c0.13281-0.082031 0.20312-0.20312 0.20312-0.35938 0-0.14453-0.046875-0.25391-0.14062-0.32812-0.085938-0.070313-0.26562-0.14062-0.54688-0.20312l-0.45312-0.10938c-0.44922-0.09375-0.77734-0.24219-0.98438-0.45312-0.21094-0.21875-0.3125-0.50391-0.3125-0.85938 0-0.45703 0.14453-0.80469 0.4375-1.0469 0.28906-0.23828 0.70703-0.35938 1.25-0.35938 0.25 0 0.50391 0.023437 0.76562 0.0625 0.25781 0.03125 0.53125 0.085937 0.8125 0.15625z"/>
  </symbol>
  <symbol id="x" overflow="visible">
   <path d="m3.3281-0.82812h-1.8281l-0.29688 0.82812h-1.1719l1.6719-4.5312h1.4062l1.6719 4.5312h-1.1719zm-1.5469-0.84375h1.25l-0.625-1.7969z"/>
  </symbol>
  <symbol id="w" overflow="visible">
   <path d="m0.57812-4.5312h1.4844l1.0312 2.4219 1.0312-2.4219h1.4844v4.5312h-1.0938v-3.3125l-1.0469 2.4375h-0.75l-1.0469-2.4375v3.3125h-1.0938z"/>
  </symbol>
  <symbol id="v" overflow="visible">
   <path d="m1.7344-3.6562v2.7656h0.42188c0.47656 0 0.84375-0.11328 1.0938-0.34375 0.25-0.23828 0.375-0.58203 0.375-1.0312 0-0.45703-0.125-0.80078-0.375-1.0312-0.25-0.23828-0.61719-0.35938-1.0938-0.35938zm-1.1562-0.875h1.2188c0.69531 0 1.2109 0.054688 1.5469 0.15625 0.33203 0.09375 0.61719 0.25781 0.85938 0.48438 0.21875 0.21094 0.37891 0.44922 0.48438 0.71875 0.10156 0.26172 0.15625 0.5625 0.15625 0.90625 0 0.33594-0.054688 0.63672-0.15625 0.90625-0.10547 0.27344-0.26562 0.51172-0.48438 0.71875-0.24219 0.23047-0.53125 0.39844-0.875 0.5-0.33594 0.09375-0.84375 0.14062-1.5312 0.14062h-1.2188z"/>
  </symbol>
  <symbol id="f" overflow="visible">
   <path d="m3.1719-3.2969v0.82812c-0.23047-0.09375-0.45312-0.16406-0.67188-0.21875-0.21094-0.050781-0.41406-0.078125-0.60938-0.078125-0.21094 0-0.36719 0.027344-0.46875 0.078125-0.09375 0.054688-0.14062 0.13672-0.14062 0.25 0 0.085938 0.035156 0.15234 0.10938 0.20312 0.082031 0.042969 0.21875 0.074219 0.40625 0.09375l0.20312 0.03125c0.55078 0.074219 0.92188 0.19531 1.1094 0.35938 0.19531 0.15625 0.29688 0.40625 0.29688 0.75 0 0.36719-0.13672 0.64062-0.40625 0.82812-0.26172 0.17578-0.65625 0.26562-1.1875 0.26562-0.23047 0-0.46484-0.023438-0.70312-0.0625-0.24219-0.03125-0.48438-0.082031-0.73438-0.15625v-0.82812c0.21875 0.10547 0.4375 0.18359 0.65625 0.23438 0.22656 0.054688 0.46094 0.078125 0.70312 0.078125 0.20703 0 0.36328-0.023437 0.46875-0.078125 0.11328-0.0625 0.17188-0.14844 0.17188-0.26562 0-0.09375-0.039062-0.16016-0.10938-0.20312-0.074219-0.050781-0.21875-0.09375-0.4375-0.125l-0.20312-0.03125c-0.48047-0.050781-0.82031-0.16016-1.0156-0.32812-0.1875-0.16406-0.28125-0.41406-0.28125-0.75 0-0.35156 0.11719-0.61719 0.35938-0.79688 0.25-0.17578 0.62891-0.26562 1.1406-0.26562 0.19531 0 0.40625 0.015625 0.625 0.046875 0.22656 0.03125 0.46875 0.078125 0.71875 0.14062z"/>
  </symbol>
  <symbol id="u" overflow="visible">
   <path d="m0.51562-3.4062h1.0938v3.4062h-1.0938zm0-1.3125h1.0938v0.875h-1.0938z"/>
  </symbol>
  <symbol id="t" overflow="visible">
   <path d="m2.8438-0.57812c-0.15625 0.19922-0.32422 0.34375-0.5 0.4375-0.17969 0.09375-0.38672 0.14062-0.625 0.14062-0.41797 0-0.76172-0.16016-1.0312-0.48438-0.27344-0.33203-0.40625-0.75-0.40625-1.25 0-0.50781 0.13281-0.92578 0.40625-1.25 0.26953-0.33203 0.61328-0.5 1.0312-0.5 0.23828 0 0.44531 0.046875 0.625 0.14062 0.17578 0.09375 0.34375 0.24609 0.5 0.45312v-0.51562h1.0781v3.0625c0 0.55078-0.17188 0.96875-0.51562 1.25-0.34375 0.28906-0.84375 0.4375-1.5 0.4375-0.21094 0-0.41406-0.015625-0.60938-0.046875-0.19922-0.03125-0.39844-0.085937-0.59375-0.15625v-0.84375c0.1875 0.11328 0.36719 0.19531 0.54688 0.25 0.1875 0.050781 0.36719 0.078125 0.54688 0.078125 0.36328 0 0.62891-0.078125 0.79688-0.23438 0.16406-0.15625 0.25-0.39844 0.25-0.73438zm-0.71875-2.1094c-0.23047 0-0.40625 0.085938-0.53125 0.25-0.125 0.15625-0.1875 0.39062-0.1875 0.70312s0.054688 0.54688 0.17188 0.70312c0.125 0.15625 0.30469 0.23438 0.54688 0.23438 0.21875 0 0.39062-0.078125 0.51562-0.23438 0.13281-0.16406 0.20312-0.39844 0.20312-0.70312 0-0.3125-0.070312-0.54688-0.20312-0.70312-0.125-0.16406-0.29688-0.25-0.51562-0.25z"/>
  </symbol>
  <symbol id="e" overflow="visible">
   <path d="m3.9375-2.0781v2.0781h-1.0938v-1.5781c0-0.30078-0.007812-0.50391-0.015625-0.60938-0.011719-0.11328-0.03125-0.19531-0.0625-0.25-0.042969-0.070312-0.10156-0.125-0.17188-0.15625-0.074219-0.039062-0.15625-0.0625-0.25-0.0625-0.23047 0-0.41406 0.089844-0.54688 0.26562-0.125 0.16797-0.1875 0.40625-0.1875 0.71875v1.6719h-1.0938v-3.4062h1.0938v0.5c0.16406-0.19531 0.33594-0.34375 0.51562-0.4375 0.1875-0.09375 0.39062-0.14062 0.60938-0.14062 0.39453 0 0.69141 0.12109 0.89062 0.35938 0.20703 0.24219 0.3125 0.58984 0.3125 1.0469z"/>
  </symbol>
  <symbol id="s" overflow="visible">
   <path d="m2.7656-4.7188v0.70312h-0.60938c-0.15625 0-0.26562 0.03125-0.32812 0.09375-0.054687 0.054687-0.078125 0.14844-0.078125 0.28125v0.23438h0.92188v0.78125h-0.92188v2.625h-1.0938v-2.625h-0.53125v-0.78125h0.53125v-0.23438c0-0.36328 0.10156-0.63281 0.3125-0.8125 0.20703-0.17578 0.52344-0.26562 0.95312-0.26562z"/>
  </symbol>
  <symbol id="d" overflow="visible">
   <path d="m2.1406-2.7031c-0.24219 0-0.42188 0.089844-0.54688 0.26562-0.125 0.16797-0.1875 0.41406-0.1875 0.73438 0 0.33594 0.0625 0.58984 0.1875 0.76562 0.125 0.16797 0.30469 0.25 0.54688 0.25 0.23828 0 0.42188-0.082031 0.54688-0.25 0.125-0.17578 0.1875-0.42969 0.1875-0.76562 0-0.32031-0.0625-0.56641-0.1875-0.73438-0.125-0.17578-0.30859-0.26562-0.54688-0.26562zm0-0.78125c0.58203 0 1.0352 0.16406 1.3594 0.48438 0.33203 0.3125 0.5 0.74609 0.5 1.2969 0 0.5625-0.16797 1.0078-0.5 1.3281-0.32422 0.3125-0.77734 0.46875-1.3594 0.46875-0.58594 0-1.043-0.15625-1.375-0.46875-0.33594-0.32031-0.5-0.76562-0.5-1.3281 0-0.55078 0.16406-0.98438 0.5-1.2969 0.33203-0.32031 0.78906-0.48438 1.375-0.48438z"/>
  </symbol>
  <symbol id="r" overflow="visible">
   <path d="m3.6719-2.8438c0.13281-0.20703 0.29688-0.36328 0.48438-0.46875 0.19531-0.11328 0.40625-0.17188 0.625-0.17188 0.39453 0 0.69141 0.12109 0.89062 0.35938 0.20703 0.24219 0.3125 0.58984 0.3125 1.0469v2.0781h-1.0938v-1.7656-0.078125c0.007813-0.03125 0.015625-0.078125 0.015625-0.14062 0-0.23828-0.039062-0.41016-0.10938-0.51562-0.074219-0.10156-0.1875-0.15625-0.34375-0.15625-0.21094 0-0.37109 0.085938-0.48438 0.25-0.10547 0.16797-0.16406 0.41406-0.17188 0.73438v1.6719h-1.0938v-1.7656c0-0.38281-0.03125-0.62891-0.09375-0.73438-0.0625-0.10156-0.17969-0.15625-0.34375-0.15625-0.21094 0-0.37109 0.085938-0.48438 0.25-0.11719 0.16797-0.17188 0.41406-0.17188 0.73438v1.6719h-1.0938v-3.4062h1.0938v0.5c0.13281-0.1875 0.28516-0.32812 0.45312-0.42188 0.17578-0.10156 0.36719-0.15625 0.57812-0.15625 0.23828 0 0.44531 0.058594 0.625 0.17188 0.17578 0.11719 0.3125 0.27344 0.40625 0.46875z"/>
  </symbol>
  <symbol id="q" overflow="visible">
   <path d="m3.9375-2.0781v2.0781h-1.0938v-1.5781c0-0.30078-0.007812-0.50391-0.015625-0.60938-0.011719-0.11328-0.03125-0.19531-0.0625-0.25-0.042969-0.070312-0.10156-0.125-0.17188-0.15625-0.074219-0.039062-0.15625-0.0625-0.25-0.0625-0.23047 0-0.41406 0.089844-0.54688 0.26562-0.125 0.16797-0.1875 0.40625-0.1875 0.71875v1.6719h-1.0938v-4.7188h1.0938v1.8125c0.16406-0.19531 0.33594-0.34375 0.51562-0.4375 0.1875-0.09375 0.39062-0.14062 0.60938-0.14062 0.39453 0 0.69141 0.12109 0.89062 0.35938 0.20703 0.24219 0.3125 0.58984 0.3125 1.0469z"/>
  </symbol>
  <symbol id="p" overflow="visible">
   <path d="m0.57812-4.5312h1.2969l1.6562 3.1094v-3.1094h1.1094v4.5312h-1.3125l-1.6562-3.1094v3.1094h-1.0938z"/>
  </symbol>
  <symbol id="o" overflow="visible">
   <path d="m0.48438-1.3281v-2.0781h1.0938v0.34375 0.70312 0.54688c0 0.27344 0.003906 0.46875 0.015625 0.59375 0.007812 0.125 0.035156 0.21484 0.078125 0.26562 0.039063 0.074219 0.097656 0.13281 0.17188 0.17188 0.070312 0.03125 0.15625 0.046875 0.25 0.046875 0.21875 0 0.39062-0.082031 0.51562-0.25 0.13281-0.17578 0.20312-0.42188 0.20312-0.73438v-1.6875h1.0938v3.4062h-1.0938v-0.48438c-0.15625 0.19922-0.32812 0.34375-0.51562 0.4375s-0.39062 0.14062-0.60938 0.14062c-0.38672 0-0.68359-0.11719-0.89062-0.35938-0.21094-0.25-0.3125-0.60156-0.3125-1.0625z"/>
  </symbol>
  <symbol id="n" overflow="visible">
   <path d="m0.57812-4.5312h1.9375c0.57031 0 1.0078 0.13281 1.3125 0.39062 0.3125 0.25 0.46875 0.60938 0.46875 1.0781 0 0.48047-0.15625 0.85156-0.46875 1.1094-0.30469 0.25-0.74219 0.375-1.3125 0.375h-0.78125v1.5781h-1.1562zm1.1562 0.84375v1.2656h0.65625c0.22656 0 0.39844-0.050781 0.51562-0.15625 0.125-0.11328 0.1875-0.27344 0.1875-0.48438 0-0.19531-0.0625-0.34766-0.1875-0.45312-0.11719-0.11328-0.28906-0.17188-0.51562-0.17188z"/>
  </symbol>
  <symbol id="m" overflow="visible">
   <path d="m0.51562-3.4062h1.0938v3.3438c0 0.45703-0.10938 0.80469-0.32812 1.0469-0.21875 0.23828-0.53906 0.35938-0.95312 0.35938h-0.53125v-0.71875h0.1875c0.20703 0 0.34766-0.046875 0.42188-0.14062 0.070312-0.09375 0.10938-0.27734 0.10938-0.54688zm0-1.3125h1.0938v0.875h-1.0938z"/>
  </symbol>
  <symbol id="l" overflow="visible">
   <path d="m3.2656-3.2969v0.89062c-0.14844-0.10156-0.29297-0.17578-0.4375-0.21875-0.14844-0.050781-0.30469-0.078125-0.46875-0.078125-0.30469 0-0.53906 0.089844-0.70312 0.26562-0.16797 0.17969-0.25 0.42188-0.25 0.73438 0 0.32422 0.082031 0.57422 0.25 0.75 0.16406 0.17969 0.39844 0.26562 0.70312 0.26562 0.17578 0 0.33594-0.023438 0.48438-0.078125 0.15625-0.050781 0.29688-0.125 0.42188-0.21875v0.89062c-0.16797 0.0625-0.33984 0.10938-0.51562 0.14062-0.17969 0.03125-0.35547 0.046875-0.53125 0.046875-0.60547 0-1.0859-0.15625-1.4375-0.46875-0.34375-0.32031-0.51562-0.76562-0.51562-1.3281 0-0.55078 0.17188-0.98438 0.51562-1.2969 0.35156-0.32031 0.83203-0.48438 1.4375-0.48438 0.1875 0 0.36328 0.015625 0.53125 0.046875 0.17578 0.03125 0.34766 0.078125 0.51562 0.14062z"/>
  </symbol>
 </defs>
 <g>
  <path d="m465.97 554.09h-231.94c-3.4336 0-6.2227-2.7891-6.2227-6.2227v-348.46c0-3.4336 2.7891-6.2227 6.2227-6.2227s6.2227 2.7891 6.2227 6.2227v342.23h219.5l-0.003906-342.23c0-3.4336 2.7891-6.2227 6.2227-6.2227s6.2227 2.7891 6.2227 6.2227v348.46c0 3.4336-2.7852 6.2227-6.2227 6.2227z"/>
  <path d="m192.83 222.94c-5.9609 0-11.609-2.2148-16.004-6.2969-4.6055-4.2812-7.2539-10.105-7.4805-16.375-0.22266-6.2734 2.0156-12.27 6.2969-16.863l160.73-171.59c3.5078-3.7461 8.4766-5.8984 13.625-5.8984 5.1406 0 10.105 2.1523 13.613 5.8984l160.73 171.55c4.293 4.6172 6.5352 10.602 6.3086 16.887-0.22266 6.2852-2.875 12.098-7.4805 16.375-4.6055 4.2812-10.566 6.5195-16.875 6.2852-6.2852-0.22266-12.098-2.8867-16.375-7.4922l-139.93-150.1-139.94 150.12c-4.2695 4.6055-10.094 7.2539-16.363 7.4805-0.30078 0.011719-0.58594 0.023437-0.87109 0.023437zm157.17-204.59c-1.7422 0-3.3477 0.69531-4.543 1.9648l-160.73 171.56c-2.0039 2.1523-3.0625 4.9766-2.9492 7.9414 0.097656 2.9609 1.3555 5.6992 3.5234 7.7148 2.1641 2.0156 4.9766 3.0625 7.9531 2.9609 2.9492-0.11328 5.6875-1.3555 7.7031-3.5234l144.49-155.02c1.1836-1.2578 2.8242-1.9805 4.5547-1.9805s3.3711 0.72266 4.5547 1.9805l144.49 154.99c2.0156 2.1797 4.7539 3.4336 7.7148 3.5352 2.9609 0.097656 5.7852-0.94531 7.9531-2.9609 2.1641-2.0156 3.4102-4.7539 3.5234-7.7031 0.097657-2.9609-0.94531-5.7852-2.9609-7.9531l-160.73-171.53c-1.1953-1.2695-2.8008-1.9805-4.543-1.9805z"/>
  <path d="m483.5 205.63h-267.01c-3.4336 0-6.2227-2.7891-6.2227-6.2227s2.7891-6.2227 6.2227-6.2227h267c3.4336 0 6.2227 2.7891 6.2227 6.2227s-2.7773 6.2227-6.2109 6.2227z"/>
  <path d="m234.03 554.09h-142.99c-3.4336 0-6.2227-2.7891-6.2227-6.2227v-288.32c0-3.4336 2.7891-6.2227 6.2227-6.2227h142.99c3.4336 0 6.2227 2.7891 6.2227 6.2227 0 3.4336-2.7891 6.2227-6.2227 6.2227l-136.77-0.003906v275.88h136.77c3.4336 0 6.2227 2.7891 6.2227 6.2227 0 3.4336-2.7891 6.2227-6.2227 6.2227z"/>
  <path d="m608.96 554.09h-142.99c-3.4336 0-6.2227-2.7891-6.2227-6.2227 0-3.4336 2.7891-6.2227 6.2227-6.2227h136.77v-275.88h-136.77c-3.4336 0-6.2227-2.7891-6.2227-6.2227 0-3.4336 2.7891-6.2227 6.2227-6.2227h142.99c3.4336 0 6.2227 2.7891 6.2227 6.2227v288.32c0 3.4375-2.7891 6.2266-6.2227 6.2266z"/>
  <path d="m398.5 554.09c-3.4336 0-6.2227-2.7891-6.2227-6.2227v-74.332c0-22.09-17.969-40.07-40.07-40.07s-40.07 17.969-40.07 40.07v74.332c0 3.4336-2.7891 6.2227-6.2227 6.2227s-6.2227-2.7891-6.2227-6.2227v-74.332c0-28.957 23.559-52.516 52.516-52.516s52.516 23.559 52.516 52.516v74.332c0 3.4336-2.7773 6.2227-6.2227 6.2227z"/>
  <path d="m196.26 392.09h-67.449c-3.4336 0-6.2227-2.7891-6.2227-6.2227v-66.641c0-1.7539 0.74609-3.4336 2.0391-4.6172l33.727-30.535c2.3633-2.1523 5.9844-2.1523 8.3516 0l33.723 30.539c1.3086 1.1836 2.0391 2.8516 2.0391 4.6172v66.641c0.015625 3.4336-2.7734 6.2188-6.207 6.2188zm-61.227-12.441h54.992v-57.668l-27.504-24.902-27.504 24.902z"/>
  <path d="m196.26 524.95h-67.449c-3.4336 0-6.2227-2.7891-6.2227-6.2227v-66.641c0-1.7539 0.74609-3.4336 2.0391-4.6172l33.727-30.539c2.3633-2.1406 5.9844-2.1406 8.3516 0l33.723 30.539c1.3086 1.1836 2.0391 2.8516 2.0391 4.6172v66.641c0.015625 3.4336-2.7734 6.2227-6.207 6.2227zm-61.227-12.445h54.992v-57.668l-27.504-24.902-27.504 24.902z"/>
  <path d="m571.19 392.09h-67.449c-3.4336 0-6.2227-2.7891-6.2227-6.2227v-66.641c0-1.7539 0.74609-3.4336 2.0391-4.6172l33.723-30.539c2.375-2.1523 5.9844-2.1523 8.3516 0l33.723 30.539c1.3086 1.1836 2.0391 2.8516 2.0391 4.6172v66.641c0.019531 3.4375-2.7695 6.2227-6.2031 6.2227zm-61.227-12.441h55.004v-57.668l-27.504-24.902-27.504 24.902z"/>
  <path d="m571.19 524.95h-67.449c-3.4336 0-6.2227-2.7891-6.2227-6.2227v-66.641c0-1.7539 0.74609-3.4336 2.0391-4.6172l33.723-30.539c2.375-2.1406 5.9844-2.1406 8.3516 0l33.723 30.539c1.3086 1.1836 2.0391 2.8516 2.0391 4.6172v66.641c0.019531 3.4336-2.7695 6.2227-6.2031 6.2227zm-61.227-12.445h55.004v-57.668l-27.504-24.902-27.504 24.902z"/>
  <path d="m162.54 392.09c-3.4336 0-6.2227-2.7891-6.2227-6.2227v-97.18c0-3.4336 2.7891-6.2227 6.2227-6.2227s6.2227 2.7891 6.2227 6.2227v97.18c0 3.4375-2.7852 6.2227-6.2227 6.2227z"/>
  <path d="m196.26 343.49h-67.449c-3.4336 0-6.2227-2.7891-6.2227-6.2227 0-3.4336 2.7891-6.2227 6.2227-6.2227h67.438c3.4336 0 6.2227 2.7891 6.2227 6.2227 0.011719 3.4336-2.7773 6.2227-6.2109 6.2227z"/>
  <path d="m162.54 524.95c-3.4336 0-6.2227-2.7891-6.2227-6.2227v-97.18c0-3.4336 2.7891-6.2227 6.2227-6.2227s6.2227 2.7891 6.2227 6.2227v97.18c0 3.4336-2.7852 6.2227-6.2227 6.2227z"/>
  <path d="m196.26 476.35h-67.449c-3.4336 0-6.2227-2.7891-6.2227-6.2227s2.7891-6.2227 6.2227-6.2227h67.438c3.4336 0 6.2227 2.7891 6.2227 6.2227 0.011719 3.4375-2.7773 6.2227-6.2109 6.2227z"/>
  <path d="m537.46 524.95c-3.4336 0-6.2227-2.7891-6.2227-6.2227v-97.18c0-3.4336 2.7891-6.2227 6.2227-6.2227s6.2227 2.7891 6.2227 6.2227v97.18c-0.003906 3.4336-2.7891 6.2227-6.2227 6.2227z"/>
  <path d="m571.19 476.35h-67.449c-3.4336 0-6.2227-2.7891-6.2227-6.2227s2.7891-6.2227 6.2227-6.2227h67.449c3.4336 0 6.2227 2.7891 6.2227 6.2227 0 3.4375-2.7891 6.2227-6.2227 6.2227z"/>
  <path d="m537.46 392.09c-3.4336 0-6.2227-2.7891-6.2227-6.2227v-97.18c0-3.4336 2.7891-6.2227 6.2227-6.2227s6.2227 2.7891 6.2227 6.2227v97.18c-0.003906 3.4375-2.7891 6.2227-6.2227 6.2227z"/>
  <path d="m571.19 343.49h-67.449c-3.4336 0-6.2227-2.7891-6.2227-6.2227 0-3.4336 2.7891-6.2227 6.2227-6.2227h67.449c3.4336 0 6.2227 2.7891 6.2227 6.2227 0 3.4336-2.7891 6.2227-6.2227 6.2227z"/>
  <path d="m358.81 149.51h-8.8125c-3.4336 0-6.2227-2.7891-6.2227-6.2227v-12.297c0-3.4336 2.7891-6.2227 6.2227-6.2227s6.2227 2.7891 6.2227 6.2227v6.0742h2.5898c3.4336 0 6.2227 2.7891 6.2227 6.2227-0.003906 3.4336-2.7891 6.2227-6.2227 6.2227z"/>
  <path d="m327.49 400.44h-55.414c-3.4336 0-6.2227-2.7891-6.2227-6.2227v-36.199c0-18.703 15.219-33.922 33.922-33.922 18.703 0 33.922 15.219 33.922 33.922v36.199c0.015626 3.4336-2.7734 6.2227-6.207 6.2227zm-49.18-12.445h42.969v-29.98c0-11.848-9.6328-21.48-21.48-21.48s-21.48 9.6328-21.48 21.48z"/>
  <path d="m427.93 400.44h-55.414c-3.4336 0-6.2227-2.7891-6.2227-6.2227v-36.199c0-18.703 15.219-33.922 33.922-33.922 18.703 0 33.922 15.219 33.922 33.922v36.199c0.015626 3.4336-2.7695 6.2227-6.207 6.2227zm-49.191-12.445h42.969v-29.98c0-11.848-9.6328-21.48-21.48-21.48s-21.48 9.6328-21.48 21.48z"/>
  <path d="m327.49 302.57h-55.414c-3.4336 0-6.2227-2.7891-6.2227-6.2227v-36.199c0-18.703 15.219-33.922 33.922-33.922 18.703 0 33.922 15.219 33.922 33.922v36.199c0.015626 3.4336-2.7734 6.2227-6.207 6.2227zm-49.18-12.445h42.969v-29.98c0-11.848-9.6328-21.48-21.48-21.48s-21.48 9.6328-21.48 21.48z"/>
  <path d="m427.93 302.57h-55.414c-3.4336 0-6.2227-2.7891-6.2227-6.2227v-36.199c0-18.703 15.219-33.922 33.922-33.922 18.703 0 33.922 15.219 33.922 33.922v36.199c0.015626 3.4336-2.7695 6.2227-6.207 6.2227zm-49.191-12.445h42.969v-29.98c0-11.848-9.6328-21.48-21.48-21.48s-21.48 9.6328-21.48 21.48z"/>
  <path d="m350 181.25c-20.93 0-37.969-17.035-37.969-37.969 0-20.93 17.039-37.969 37.969-37.969s37.969 17.035 37.969 37.969-17.039 37.969-37.969 37.969zm0-63.492c-14.074 0-25.523 11.449-25.523 25.523 0 14.074 11.449 25.523 25.523 25.523s25.523-11.449 25.523-25.523c0-14.074-11.449-25.523-25.523-25.523z"/>

 </g>
</svg>
