<?xml version="1.0" encoding="UTF-8"?>
<svg width="700pt" height="700pt" version="1.1" viewBox="0 0 700 700" xmlns="http://www.w3.org/2000/svg" xmlns:xlink="http://www.w3.org/1999/xlink">
 <defs>
  <symbol id="l" overflow="visible">
   <path d="m29.312-1.75c-1.5117 0.78125-3.0898 1.3711-4.7344 1.7656-1.6367 0.40625-3.3398 0.60938-5.1094 0.60938-5.3125 0-9.5273-1.4844-12.641-4.4531-3.1055-2.9688-4.6562-7-4.6562-12.094s1.5508-9.125 4.6562-12.094c3.1133-2.9688 7.3281-4.4531 12.641-4.4531 1.7695 0 3.4727 0.19922 5.1094 0.59375 1.6445 0.39844 3.2227 0.99219 4.7344 1.7812v6.5938c-1.5312-1.0391-3.0391-1.8008-4.5156-2.2812-1.4805-0.48828-3.0391-0.73438-4.6719-0.73438-2.9375 0-5.2461 0.94531-6.9219 2.8281-1.6797 1.875-2.5156 4.4648-2.5156 7.7656 0 3.293 0.83594 5.8828 2.5156 7.7656 1.6758 1.875 3.9844 2.8125 6.9219 2.8125 1.6328 0 3.1914-0.23828 4.6719-0.71875 1.4766-0.48828 2.9844-1.2539 4.5156-2.2969z"/>
  </symbol>
  <symbol id="b" overflow="visible">
   <path d="m21.453-17.406c-0.67969-0.3125-1.3516-0.53906-2.0156-0.6875-0.65625-0.15625-1.3203-0.23438-1.9844-0.23438-1.9688 0-3.4844 0.63281-4.5469 1.8906-1.0547 1.2617-1.5781 3.0703-1.5781 5.4219v11.016h-7.6562v-23.922h7.6562v3.9219c0.97656-1.5625 2.1016-2.7031 3.375-3.4219 1.2812-0.71875 2.8125-1.0781 4.5938-1.0781 0.25 0 0.52344 0.011719 0.82812 0.03125 0.30078 0.023438 0.73438 0.070312 1.2969 0.14062z"/>
  </symbol>
  <symbol id="a" overflow="visible">
   <path d="m27.562-12.031v2.1875h-17.891c0.1875 1.793 0.83203 3.1367 1.9375 4.0312 1.1133 0.89844 2.6719 1.3438 4.6719 1.3438 1.6016 0 3.25-0.23438 4.9375-0.70312 1.6875-0.47656 3.4219-1.2031 5.2031-2.1719v5.8906c-1.8047 0.6875-3.6094 1.2031-5.4219 1.5469-1.8125 0.35156-3.6211 0.53125-5.4219 0.53125-4.3359 0-7.7031-1.0977-10.109-3.2969-2.3984-2.207-3.5938-5.2969-3.5938-9.2656 0-3.9062 1.1758-6.9727 3.5312-9.2031 2.3633-2.2383 5.6094-3.3594 9.7344-3.3594 3.7578 0 6.7695 1.1367 9.0312 3.4062 2.2578 2.2617 3.3906 5.2812 3.3906 9.0625zm-7.8594-2.5312c0-1.457-0.42969-2.6289-1.2812-3.5156-0.84375-0.89453-1.9492-1.3438-3.3125-1.3438-1.4922 0-2.6992 0.41797-3.625 1.25-0.91797 0.83594-1.4922 2.0391-1.7188 3.6094z"/>
  </symbol>
  <symbol id="h" overflow="visible">
   <path d="m14.391-10.766c-1.5938 0-2.793 0.27344-3.5938 0.8125-0.80469 0.54297-1.2031 1.3398-1.2031 2.3906 0 0.96875 0.32031 1.7305 0.96875 2.2812 0.64453 0.54297 1.5469 0.8125 2.7031 0.8125 1.4375 0 2.6445-0.51562 3.625-1.5469 0.98828-1.0312 1.4844-2.3203 1.4844-3.875v-0.875zm11.688-2.8906v13.656h-7.7031v-3.5469c-1.0312 1.4492-2.1875 2.5078-3.4688 3.1719s-2.8398 1-4.6719 1c-2.4805 0-4.4961-0.72266-6.0469-2.1719-1.543-1.4453-2.3125-3.3203-2.3125-5.625 0-2.8125 0.96094-4.8672 2.8906-6.1719 1.9375-1.3125 4.9688-1.9688 9.0938-1.9688h4.5156v-0.60938c0-1.207-0.48047-2.0938-1.4375-2.6562-0.94922-0.5625-2.4375-0.84375-4.4688-0.84375-1.6367 0-3.1562 0.16797-4.5625 0.5-1.4062 0.32422-2.7188 0.8125-3.9375 1.4688v-5.8281c1.6445-0.40625 3.2891-0.70703 4.9375-0.90625 1.6562-0.20703 3.3047-0.3125 4.9531-0.3125 4.3203 0 7.4375 0.85547 9.3438 2.5625 1.9141 1.6992 2.875 4.4609 2.875 8.2812z"/>
  </symbol>
  <symbol id="g" overflow="visible">
   <path d="m12.031-30.719v6.7969h7.875v5.4688h-7.875v10.141c0 1.1172 0.21875 1.8711 0.65625 2.2656 0.4375 0.38672 1.3125 0.57812 2.625 0.57812h3.9375v5.4688h-6.5625c-3.0234 0-5.1641-0.62891-6.4219-1.8906-1.2617-1.2578-1.8906-3.3984-1.8906-6.4219v-10.141h-3.7969v-5.4688h3.7969v-6.7969z"/>
  </symbol>
  <symbol id="f" overflow="visible">
   <path d="m19.953-20.422v-12.812h7.6875v33.234h-7.6875v-3.4531c-1.0547 1.4062-2.2148 2.4375-3.4844 3.0938-1.2734 0.65625-2.7422 0.98438-4.4062 0.98438-2.9492 0-5.3711-1.1719-7.2656-3.5156-1.8867-2.3438-2.8281-5.3594-2.8281-9.0469s0.94141-6.7031 2.8281-9.0469c1.8945-2.3438 4.3164-3.5156 7.2656-3.5156 1.6562 0 3.1172 0.33594 4.3906 1 1.2812 0.65625 2.4453 1.6836 3.5 3.0781zm-5.0469 15.484c1.6445 0 2.8945-0.59766 3.75-1.7969 0.86328-1.1953 1.2969-2.9297 1.2969-5.2031 0-2.2812-0.43359-4.0195-1.2969-5.2188-0.85547-1.1953-2.1055-1.7969-3.75-1.7969-1.625 0-2.8711 0.60156-3.7344 1.7969-0.85547 1.1992-1.2812 2.9375-1.2812 5.2188 0 2.2734 0.42578 4.0078 1.2812 5.2031 0.86328 1.1992 2.1094 1.7969 3.7344 1.7969z"/>
  </symbol>
  <symbol id="e" overflow="visible">
   <path d="m16.406-4.9375c1.6328 0 2.8828-0.59766 3.75-1.7969 0.86328-1.1953 1.2969-2.9297 1.2969-5.2031 0-2.2812-0.43359-4.0195-1.2969-5.2188-0.86719-1.1953-2.1172-1.7969-3.75-1.7969-1.6367 0-2.8906 0.60547-3.7656 1.8125-0.875 1.1992-1.3125 2.9336-1.3125 5.2031 0 2.2617 0.4375 3.9961 1.3125 5.2031 0.875 1.1992 2.1289 1.7969 3.7656 1.7969zm-5.0781-15.484c1.0508-1.3945 2.2188-2.4219 3.5-3.0781 1.2812-0.66406 2.7539-1 4.4219-1 2.9453 0 5.3672 1.1719 7.2656 3.5156 1.8945 2.3438 2.8438 5.3594 2.8438 9.0469s-0.94922 6.7031-2.8438 9.0469c-1.8984 2.3438-4.3203 3.5156-7.2656 3.5156-1.668 0-3.1406-0.33594-4.4219-1s-2.4492-1.6914-3.5-3.0781v3.4531h-7.6562v-33.234h7.6562z"/>
  </symbol>
  <symbol id="d" overflow="visible">
   <path d="m0.53125-23.922h7.6562l6.4219 16.234 5.4688-16.234h7.6562l-10.062 26.188c-1.0117 2.6641-2.1953 4.5234-3.5469 5.5781-1.3438 1.0625-3.1211 1.5938-5.3281 1.5938h-4.4219v-5.0156h2.3906c1.3008 0 2.2422-0.21094 2.8281-0.625 0.59375-0.40625 1.0547-1.1484 1.3906-2.2188l0.20312-0.65625z"/>
  </symbol>
  <symbol id="c" overflow="visible">
   <path d="m16.797-19.547c1.2891 0 2.2695-0.28125 2.9375-0.84375 0.67578-0.57031 1.0156-1.4141 1.0156-2.5312 0-1.0938-0.33984-1.9258-1.0156-2.5-0.66797-0.58203-1.6484-0.875-2.9375-0.875h-4.5625v6.75zm0.26562 13.953c1.6562 0 2.8984-0.34766 3.7344-1.0469 0.83203-0.69531 1.25-1.7539 1.25-3.1719 0-1.375-0.41797-2.4062-1.25-3.0938-0.82422-0.69531-2.0703-1.0469-3.7344-1.0469h-4.8281v8.3594zm7.6562-11.469c1.7578 0.51172 3.125 1.4609 4.0938 2.8438 0.96875 1.375 1.4531 3.0703 1.4531 5.0781 0 3.0742-1.043 5.3672-3.125 6.875-2.0742 1.5117-5.2305 2.2656-9.4688 2.2656h-13.656v-31.891h12.344c4.4258 0 7.6328 0.67188 9.625 2.0156 1.9883 1.3359 2.9844 3.4766 2.9844 6.4219 0 1.5547-0.36719 2.875-1.0938 3.9688-0.73047 1.0859-1.7812 1.8906-3.1562 2.4219z"/>
  </symbol>
  <symbol id="k" overflow="visible">
   <path d="m23-23.172v6.2344c-1.0312-0.71875-2.0742-1.2422-3.125-1.5781-1.043-0.34375-2.125-0.51562-3.25-0.51562-2.1367 0-3.8047 0.625-5 1.875-1.1875 1.2422-1.7812 2.9805-1.7812 5.2188 0 2.2305 0.59375 3.9688 1.7812 5.2188 1.1953 1.25 2.8633 1.875 5 1.875 1.1953 0 2.332-0.17578 3.4062-0.53125 1.0703-0.36328 2.0625-0.89453 2.9688-1.5938v6.2656c-1.1875 0.4375-2.4023 0.76562-3.6406 0.98438-1.2305 0.22656-2.4648 0.34375-3.7031 0.34375-4.3125 0-7.6875-1.1094-10.125-3.3281s-3.6562-5.2969-3.6562-9.2344c0-3.9453 1.2188-7.0234 3.6562-9.2344 2.4375-2.2188 5.8125-3.3281 10.125-3.3281 1.25 0 2.4844 0.10938 3.7031 0.32812s2.4297 0.55469 3.6406 1z"/>
  </symbol>
  <symbol id="j" overflow="visible">
   <path d="m3.6719-23.922h7.6562v23.922h-7.6562zm0-9.3125h7.6562v6.2344h-7.6562z"/>
  </symbol>
  <symbol id="i" overflow="visible">
   <path d="m22.359-23.172v5.7969c-1.6367-0.67578-3.2148-1.1875-4.7344-1.5312-1.5234-0.34375-2.9609-0.51562-4.3125-0.51562-1.4609 0-2.543 0.18359-3.25 0.54688-0.69922 0.36719-1.0469 0.92188-1.0469 1.6719 0 0.61719 0.26562 1.0898 0.79688 1.4219 0.53125 0.32422 1.4883 0.5625 2.875 0.71875l1.3438 0.1875c3.9141 0.5 6.5508 1.3242 7.9062 2.4688 1.3516 1.1367 2.0312 2.9219 2.0312 5.3594 0 2.5547-0.94531 4.4688-2.8281 5.75-1.875 1.2812-4.6797 1.9219-8.4062 1.9219-1.5859 0-3.2188-0.125-4.9062-0.375s-3.4219-0.625-5.2031-1.125v-5.8125c1.5195 0.74219 3.082 1.2969 4.6875 1.6719 1.6016 0.36719 3.2344 0.54688 4.8906 0.54688 1.4883 0 2.6094-0.20312 3.3594-0.60938 0.75781-0.41406 1.1406-1.0312 1.1406-1.8438 0-0.6875-0.26172-1.1953-0.78125-1.5312-0.52344-0.33203-1.5586-0.59375-3.1094-0.78125l-1.3438-0.17188c-3.4062-0.42578-5.793-1.2109-7.1562-2.3594-1.3672-1.1562-2.0469-2.9102-2.0469-5.2656 0-2.5312 0.86719-4.4062 2.6094-5.625 1.7383-1.2266 4.3984-1.8438 7.9844-1.8438 1.4062 0 2.8828 0.10938 4.4375 0.32812 1.5508 0.21094 3.2383 0.54297 5.0625 1z"/>
  </symbol>
 </defs>
 <g>
  <path d="m376.25 210h131.25c28.953 0 52.5-23.547 52.5-52.5 0-27.23-20.844-49.691-47.406-52.254-5.9766-13.965-18.797-23.852-33.801-26.039-7.457-26-31.152-44.207-58.793-44.207-31.668 0-57.793 24.148-60.934 55.004-25.918 7.4961-44.066 31.168-44.066 58.746 0 33.773 27.477 61.25 61.25 61.25zm-7.2695-104.34c4.2148-0.70703 7.2695-5.1367 7.2695-9.4141 0-24.125 19.625-43.75 43.75-43.75 21.445 0 39.566 15.355 43.094 36.516 0.70703 4.2266 4.3594 7.3164 8.6289 7.3164 0.29688 0.007813 0.72656-0.027343 1.1562-0.070312 11.785 0.16797 22.008 8.25 24.945 19.773 0.98828 3.8867 4.4883 6.5898 8.4805 6.5898 0.30469 0.015625 0.97266-0.050781 1.5391-0.12109 19.141 0.17969 34.656 15.816 34.656 34.996 0 19.301-15.699 35-35 35h-131.25c-24.125 0-43.75-19.625-43.75-43.75 0-21.43 15.34-39.551 36.48-43.086z"/>
  <path d="m175 236.25h8.75c0-14.473 11.777-26.25 26.25-26.25v-17.5c-18.113 0-33.68 11.07-40.32 26.793-16.766 2.582-29.68 16.984-29.68 34.457h17.5c0-9.6523 7.8477-17.5 17.5-17.5z"/>
  <path d="m428.75 148.75h17.5c0-24.125-19.625-43.75-43.75-43.75v17.5c14.473 0 26.25 11.777 26.25 26.25z"/>
  <path d="m245 52.5h17.5v17.5h-17.5z"/>
  <path d="m280 52.5h17.5v17.5h-17.5z"/>
  <path d="m175 0h17.5v17.5h-17.5z"/>
  <path d="m210 0h17.5v17.5h-17.5z"/>
  <path d="m245 0h17.5v17.5h-17.5z"/>
  <path d="m87.5 87.5h17.5v17.5h-17.5z"/>
  <path d="m533.75 70c2.2383 0 4.4805-0.85938 6.1875-2.5625l26.25-26.25-12.371-12.371-20.066 20.062-20.062-20.062-12.371 12.371 26.25 26.25c1.7031 1.7031 3.9453 2.5625 6.1836 2.5625z"/>
  <path d="m588.81 128.69c1.707 1.7031 3.9492 2.5625 6.1875 2.5625s4.4805-0.85938 6.1875-2.5625l26.25-26.25-12.371-12.371-20.066 20.062-20.062-20.062-12.371 12.371z"/>
  <path d="m70 35h17.5v17.5h-17.5z"/>
  <path d="m105 35h17.5v17.5h-17.5z"/>
  <path d="m140 35h17.5v17.5h-17.5z"/>
  <path d="m630 315v-17.5c-19.715 0-36.191-2.5898-51.871-8.1562-13.562-4.8125-27.578-7.1914-40.863-8.9961-5.7734-14.461-16.105-26.598-29.766-26.598-13.477 0-23.703 11.805-29.531 26.004-19.801-1.6875-40.934-0.54297-66.211 3.8398-21.324 3.6836-42.543 11.359-63.051 22.793-9.0195 5.0312-17.711 10.668-26.117 16.125-10.988 7.1406-21.367 13.859-32.543 19.434-15.051 7.5078-29.32 11.332-42.41 11.473-12.574 0.26172-24.867-4.6367-37.625-9.625v-28.902c3.2891-2.4844 6.2734-5.3633 8.75-8.6641 7.9766 10.629 20.691 17.523 34.988 17.523 24.125 0 43.75-19.625 43.75-43.75 0-12.355-5.1094-23.781-14.016-31.953 3.4375-6.3359 5.2656-13.398 5.2656-20.547 0-21.133-17.5-38.805-35-42.875v-0.875c0-17.668-10.633-33.328-26.547-40.109-2.5391-21.727-21.055-38.641-43.453-38.641s-40.914 16.914-43.453 38.641c-15.914 6.7812-26.547 22.441-26.547 40.109v0.875c-17.5 4.0586-35.008 21.742-35.008 42.875 0 7.1484 1.8359 14.211 5.2656 20.547-8.8906 8.1719-14.008 19.598-14.008 31.953 0 24.125 19.625 43.75 43.75 43.75 14.297 0 27.012-6.8945 35-17.527 2.4766 3.2969 5.4531 6.1875 8.75 8.6641v13.949c-13.867-2.625-27.5-0.23438-37.469 2.7461-7.3164 2.1875-14.211 5.5664-20.887 8.8281-10.078 4.9336-19.598 9.5898-29.145 9.5898v17.5c13.598 0 25.41-5.7852 36.836-11.367 6.3164-3.0898 12.285-6.0117 18.207-7.7891 8.75-2.6172 20.957-4.7344 32.453-1.5742v50.109c-0.65625 0.085938-1.2969 0.11328-1.9609 0.20312-11.359 1.5391-22.75 4.0508-33.766 6.4844-17.871 3.957-34.758 7.6836-51.77 7.6836v17.5c18.918 0 37.547-4.1133 55.555-8.0938 11.156-2.4688 21.691-4.7969 32.332-6.2305 35.945-4.8828 67.191-0.31641 95.531 13.938 17.297 8.6992 34.02 20.59 50.18 32.086 20.309 14.445 41.152 29.25 64.504 39.043-40.094 14.586-83.492 20.949-125.71 27.047l-5.6953 0.82422c-50.102 7.2617-99.906 13.887-157.95 15.137h-8.75v17.5h8.9336c59.219-1.2773 109.61-7.9805 160.28-15.32l5.6875-0.82422c16.895-2.4414 33.969-4.9609 51.004-7.9727 17.422 14.332 41.613 22.434 66.867 22.434 5.2578 0 10.57-0.35156 15.855-1.0586 22.207-2.9922 43.129-12.484 63.367-21.664 29.043-13.168 56.473-25.609 86.18-19.406 15.312 3.2031 29.488 11.988 43.199 20.484l3.125 1.9336c4.6016 2.8438 8.25 4.8633 11.84 6.5547 12.773 6.0039 25.523 6.3789 34.914 6.0977h8.75v-17.5h-9.0391c-11.609 0-19.738-0.95312-27.188-4.4453-2.957-1.3906-6.0625-3.1133-10.078-5.5898l-3.0977-1.918c-14.996-9.293-30.504-18.918-48.844-22.75-35.352-7.3867-66.676 6.8516-96.992 20.605-19.957 9.0547-38.816 17.613-58.469 20.258-19.504 2.6406-39.551-0.8125-55.633-8.8281 25.863-5.5898 51.355-13.012 75.637-24.141 9.9062-4.543 19.301-9.9141 28.395-15.109 9.5977-5.4844 18.664-10.668 28.359-15.016 22.891-10.254 43.855-16.773 64.094-19.914 19.547-3.0469 38.184-2.6953 55.414 1.0508 6.5703 1.4258 11.797 3.9102 17.316 6.5547 8.9023 4.2383 18.09 8.6406 31.371 7.9844h8.75v-17.5h-9.1602c-9.2734 0-15.523-2.5195-23.398-6.2812-5.9062-2.8164-12.59-6.0039-21.148-7.8594-19.328-4.1914-40.129-4.6094-61.82-1.2422-21.797 3.3945-44.223 10.344-68.547 21.234-10.484 4.6992-20.352 10.332-29.898 15.793-7.9883 4.5664-15.637 8.8203-23.547 12.652-22.461-5.957-42.34-17.852-62.266-31.57 0.16797 0 0.32422 0.015626 0.48828 0.015626 47.625 0 100.14-14.875 139.29-40.66l1.3203-0.875c49.406-32.547 100.5-66.207 158.68-66.207v-17.5c-41.047 0-78.848 15.398-113.75 35.027v-27.125c16.574-3.1133 26.25-15.348 26.25-34.152 0-2.4219-0.19141-4.9688-0.50781-7.5508 10.141 1.5664 20.5 3.668 30.293 7.1406 17.605 6.2461 35.945 9.1602 57.715 9.1602zm-481.25-43.75c-4.8281 0-8.75 3.9219-8.75 8.75 0 14.473-11.777 26.25-26.25 26.25s-26.25-11.777-26.25-26.25c0-9.2383 4.8203-17.641 12.906-22.453 2.2031-1.3125 3.7266-3.543 4.1484-6.082 0.42187-2.5391-0.29688-5.1367-1.9609-7.0977-2.8945-3.4023-6.3438-9.1055-6.3438-16.867 0-14.473 11.777-26.25 25.707-26.266 0.29688 0.042969 1.1719 0.13281 1.4688 0.14062 2.7656 0.11328 5.4336-1.1016 7.168-3.2656 1.7422-2.1602 2.3438-5.0234 1.6367-7.707-0.66406-2.5586-0.98047-4.6758-0.98047-6.6523 0-11.934 8.1367-22.348 19.785-25.324 3.9805-1.0156 6.7109-4.6562 6.5781-8.7578-0.015625-0.51562-0.035156-0.98047-0.11328-0.91797 0-14.473 11.777-26.25 26.25-26.25s26.25 11.777 26.277 25.645c-0.042969 0.32422-0.14062 1.207-0.14844 1.5234-0.13281 4.1055 2.6094 7.7422 6.5781 8.7578 11.656 2.9766 19.793 13.391 19.793 25.324 0 1.9766-0.31641 4.0938-0.98828 6.6406-0.70703 2.6875-0.10547 5.5469 1.6367 7.707 1.7344 2.1602 4.375 3.3789 7.168 3.2656 0.50391-0.007812 0.98438-0.070312 0.93359-0.11328 14.473 0 26.25 11.777 26.25 26.25 0 7.7617-3.4492 13.465-6.3438 16.871-1.6641 1.9688-2.3789 4.5586-1.9609 7.0977 0.42188 2.5391 1.9414 4.7617 4.1484 6.082 8.0859 4.8086 12.906 13.211 12.906 22.449 0 14.473-11.777 26.25-26.25 26.25s-26.25-11.777-26.25-26.25c0-4.8281-3.9219-8.75-8.75-8.75s-8.75 3.9219-8.75 8.75c0 14.473-11.777 26.25-26.25 26.25s-26.25-11.777-26.25-26.25c0-4.8281-3.9219-8.75-8.75-8.75zm26.25 124.17v-72.617c2.8359 0.57812 5.75 0.94531 8.75 0.94531s5.9141-0.36719 8.75-0.94531v72.59c-5.7383-0.24609-11.578-0.24609-17.5 0.027344zm253.75-10.422c-12.102 0-17.5-5.3984-17.5-17.5 0-16.895 10.273-35 17.5-35s17.5 18.105 17.5 35c0 12.102-5.3984 17.5-17.5 17.5zm32.934 16.598-1.3203 0.875c-7.168 4.7266-14.859 9.0039-22.855 12.906v-13.738c16.574-3.1133 26.25-15.348 26.25-34.152 0-21.918-13.316-52.5-35-52.5-21.684 0-35 30.582-35 52.5 0 18.805 9.6758 31.027 26.25 34.152v21.41c-37.965 14.84-81.094 20.703-117.67 15.051-13.152-9.2031-26.723-18.199-41.047-25.391-15.969-8.0234-33.117-13.273-51.285-15.82v-36.109c11.598 4.0078 23.656 6.7188 37.07 6.7188h0.73438c15.758 0 32.594-2.9062 50.031-11.602 12.059-6.0195 23.344-11.594 34.266-18.691 8.1641-5.3008 16.598-10.781 25.105-15.523 18.785-10.473 38.141-17.492 57.523-20.844 22.383-3.8672 41.125-5.0312 58.504-3.8672-0.47656 3.1875-0.73828 6.3125-0.73828 9.2773 0 18.805 9.6758 31.027 26.25 34.152v37.391c-12.758 7.793-25.105 15.922-37.066 23.805zm45.816-77.848c-12.102 0-17.5-5.3984-17.5-17.5 0-16.895 10.273-35 17.5-35s17.5 18.105 17.5 35c0 12.102-5.3984 17.5-17.5 17.5z"/>
  <path d="m87.5 498.75h17.5v17.5h-17.5z"/>
  <path d="m122.5 498.75h17.5v17.5h-17.5z"/>
  <path d="m157.5 498.75h17.5v17.5h-17.5z"/>
 </g>
</svg>
