<?xml version="1.0" encoding="UTF-8"?>
<svg width="1200pt" height="1200pt" version="1.1" viewBox="0 0 1200 1200" xmlns="http://www.w3.org/2000/svg">
 <g>
  <path d="m1118.3 474c-14.281-38.762-57.48-58.559-96.238-44.281l-108.24 39.961-50.281-95.52c0-1.8008-0.23828-3.4805-0.23828-5.5195 0.48047-0.48047 1.1992-0.96094 1.4414-1.8008 0.71875-3 20.039-72.238 9.9609-136.2-0.23828-1.4414-0.96094-2.5195-1.8008-3.4805 18-21.719 29.039-49.801 29.039-80.281 0-69-56.039-125.04-125.04-125.04-68.887 0.12109-124.93 56.16-124.93 125.16s56.039 125.04 125.04 125.04c14.52 0 28.199-2.5195 41.281-6.9609 13.801 27.238 25.801 57.238 30.719 84.238-19.559-27.961-49.559-46.199-83.039-50.762-3.9609-0.71875-8.0391-0.96094-12-1.1992-0.71875 0-1.1992-0.23828-2.0391-0.23828l-31.922 0.003906c-57.961 0-167.04 53.281-223.56 83.039-3.7188 2.0391-7.1992 3.9609-10.441 5.7617-3.7188 2.0391-6.9609 3.7188-9.9609 5.5195-1.1992 0.71875-2.7617 1.4414-3.9609 2.2812l-1.8008 0.96094c-11.762 6.7188-21.719 15.719-29.762 26.281-20.039 27-26.039 63.238-13.199 96.238l63.48 164.76c6 16.441 17.52 30 32.52 38.762l-68.281 213.24-134.76 138c-28.801 29.52-28.559 77.039 0.48047 106.2 14.762 14.762 34.199 21.961 53.52 21.961 19.199 0 38.281-7.1992 53.039-21.48l195.48-192 62.762-135.96 120.72 111.24 84.238 193.2c12.25 28.078 39.488 44.879 68.289 44.879 9.2383 0 18.719-1.8008 27.961-5.5195l1.1992-0.48047c39-15.48 58.199-59.52 42.961-98.039-26.883-70.199-80.641-207.96-80.641-207.96l-168.72-212.76c-6-7.4414-7.1992-17.52-3-26.039l27.238-59.281 30.961 29.039c14.281 12.961 32.52 19.801 51.238 19.801 9.2383 0 18.48-1.8008 27.48-5.2812l158.76-63c38.762-14.516 58.562-57.715 44.043-96.477zm-312.48-258c-6.2383-10.801-12-20.039-16.801-27.48 1.1992-3.2383 1.1992-7.1992-0.71875-10.801l-12.723-21.719c4.1992-7.1992 5.0391-16.441 0.23828-24.48-6.9609-12-22.199-15.961-34.199-9-11.762 6.9609-15.961 22.199-9 34.199 4.8008 7.8008 12.961 11.762 21.48 12l12.48 21.719c2.5195 3.7188 6.4805 6 11.039 6 0.48047 0 0.71875-0.23828 1.1992-0.23828 4.1992 6.4805 9.2383 14.52 15 23.762-5.5195 1.1992-11.039 2.0391-16.801 2.0391-41.52 0-75-33.719-75-75 0.003906-41.52 33.484-75 75.004-75 41.281 0 75 33.48 75 75 0 30.961-18.961 57.719-46.199 69zm24 44.281c12.238-5.5195 23.52-13.199 33.238-22.441 4.8008 35.762 0.23828 73.801-4.1992 98.281-6.1211-25.32-17.039-51.602-29.039-75.84zm-248.52 696.96-189 185.52c-9.9609 9.7188-26.281 9.7188-36-0.23828-9.9609-9.7188-9.9609-25.801-0.23828-35.762l143.04-146.52 29.52-92.039 44.281-138c9.2383 18.719 21.719 36 37.199 50.52l36.961 33.961zm151.68-329.04c-12 26.039-8.2812 56.039 9.4805 78.238l162.48 203.04c8.0391 21 54.961 141.48 79.441 204.72 5.0391 12.961-1.8008 27.961-15 33.238l-1.5586 0.48047c-12 5.0391-26.281-0.71875-31.801-12.961l-88.559-202.8-203.41-188.15c-11.762-10.801-21-23.762-27.48-37.801 12.238-13.801 19.801-31.559 19.801-50.52 0-7.4414-1.1992-15.48-3.7188-23.039 0-0.48047 0-0.71875-0.23828-1.1992 0-4.1992 0.96094-9.7188 2.2812-13.801 0.48047-2.0391 0.96094-3.7188 1.4414-4.8008 0.48047-1.1992 0.71875-2.0391 0.71875-2.0391 15.48-39.719 66-74.039 114.48-107.52 21-14.281 41.52-28.199 59.039-42.48zm87-192.48c-20.039 19.199-47.281 38.039-75.719 57.48-49.801 33.961-100.8 69-118.44 111.48l-5.5195-23.52 23.762-74.039 67.199-27c8.7617-3.4805 14.52-11.762 15.48-20.52 0.48047-3.9609 0-8.0391-1.4414-12-5.2812-12.961-19.801-18.961-32.52-14.039l-144.96 58.438 8.0391 33.961 27.961 118.2 0.71875 2.5195c1.1992 3 1.8008 6 1.8008 9 0 10.199-6.7188 19.801-16.559 23.281-6.2383 2.5195-12.961 2.2812-18.961-0.48047-6.2383-2.7617-10.801-7.8008-13.199-14.52l-44.039-114-19.801-51c-8.7617-23.281 0.71875-49.801 22.441-61.801 0 0 3.9609-2.2812 11.039-6 1.1992-0.71875 2.5195-1.1992 3.7188-2.0391 41.52-21.961 159.24-82.199 209.04-82.199h30.719c6.9609 0.23828 13.801 1.1992 20.039 3.4805 16.199 4.8008 30 15.238 39.48 30.238 10.562 16.559 14.043 36.359 9.7227 55.078zm236.28 88.082-159.24 63.238c-9 3.4805-19.199 1.8008-26.281-4.8008l-42.961-39.719 31.801-68.762 30.48 57.961 149.28-54.961c2.7617-0.96094 5.7617-1.4414 8.7617-1.4414 3.4805 0 6.9609 0.71875 10.559 2.2812 6 2.7617 10.801 7.8008 12.961 14.039 4.6797 12.602-1.8008 27.125-15.363 32.164z"/>
  <path d="m266.28 896.88-1.0781-0.12109-165.6-24.359 161.16 48.961c0.60156 0.12109 1.1992 0.35938 1.8008 0.35938 6.8398 0.96094 13.199-3.7188 14.281-10.559 1.0781-6.8398-3.7227-13.199-10.562-14.281z"/>
  <path d="m328.32 904.68c-8.0391-1.0781-15.84 4.4414-17.039 12.602s4.4414 15.84 12.602 17.039l15.719 2.2812c0.71875 0.12109 1.4414 0.12109 2.1602 0.12109 7.3203 0 13.801-5.3984 14.762-12.84 1.1992-8.1602-4.5586-15.84-12.719-16.922z"/>
  <path d="m358.2 771.48 96 13.68c0.23828 0 0.60156 0.12109 0.83984 0.12109 6.8398 0.48047 12.961-4.6797 13.441-11.52 0.48047-6.8398-4.6797-12.961-11.52-13.441h-0.35938l-96-7.3203c-31.922-3-63.84-6.7188-95.641-11.16-63.602-9-126.84-20.879-189.48-36.238 61.441 19.32 124.08 35.398 187.32 48.48 31.68 6.4766 63.48 12.359 95.398 17.398z"/>
  <path d="m335.28 614.88c6.9609 0.48047 12.84-4.6797 13.32-11.641 0.48047-6.9609-4.6797-12.84-11.641-13.32-64.68-4.5586-129.24-12-193.44-22.68 62.398 18.84 125.88 34.559 190.08 47.398 0.60156 0.125 1.2031 0.125 1.6836 0.24219z"/>
  <path d="m373.92 467.04c6.9609 0.35938 12.84-4.9219 13.32-11.879 0.35937-6.9609-4.9219-12.84-11.879-13.32h-0.83984l-141.48-8.2812 138.6 33.121c0.71484 0.12109 1.5547 0.24219 2.2773 0.35937z"/>
 </g>
</svg>
