<?xml version="1.0" encoding="utf-8"?>
<!-- Generator: Adobe Illustrator 25.0.1, SVG Export Plug-In . SVG Version: 6.00 Build 0)  -->
<svg version="1.1" id="Calque_1" xmlns="http://www.w3.org/2000/svg" xmlns:xlink="http://www.w3.org/1999/xlink" x="0px" y="0px"
	 viewBox="0 0 100 100" style="enable-background:new 0 0 100 100;" xml:space="preserve">
<style type="text/css">
	.st0{fill:none;stroke:#000000;stroke-width:5;stroke-miterlimit:10;}
</style>
<path class="st0" d="M-4.8,0.3c81.1,4.9,114.9,8,114.8,9.8c-0.1,3.3-115.7,1.3-115.8,5.1C-5.9,19,109.1,23.9,109,30.3
	c0,6.5-114.1,8.9-114.1,14.9c0,6.3,124.4,9.9,124.3,15.9c0,6.1-125.6,6.5-126.1,16.1c-0.3,6.9,63,15.4,110.4,21"/>
<path class="st0" d="M100.5-1.9C56.2-0.1-1.1,2.9-1.2,7.1c0,5.9,107.9,10.7,107.7,14.4c-0.1,3.8-113.2,1.9-113.4,5.6
	c-0.1,3.7,111.4,8.5,111.4,15.6c0,7.1-99.2,10.6-99.2,17.1c0,6.6,97.5,13,97.5,18.8c0,5.8-109.3,5.4-109.2,8.6
	c0,2,46.2,2.9,112.9,3.2"/>
<path class="st0" d="M-12.2,2.3C97.3,11.1,117.9,20,118.1,26.2c0.4,15.1-128,22.6-128.5,42.3c-0.3,12,46.7,24,116.8,35.4"/>
</svg>
