<?xml version="1.0" encoding="utf-8"?>
<!-- Generator: Adobe Illustrator 25.0.1, SVG Export Plug-In . SVG Version: 6.00 Build 0)  -->
<svg version="1.1" id="Calque_1" xmlns="http://www.w3.org/2000/svg" xmlns:xlink="http://www.w3.org/1999/xlink" x="0px" y="0px"
	 viewBox="0 0 100 100" style="enable-background:new 0 0 100 100;" xml:space="preserve">
<style type="text/css">
	.st0{fill:none;stroke:#000000;stroke-width:5;stroke-miterlimit:10;}
</style>
<path class="st0" d="M-4.1,1.6C64.8,23,101,36.6,100,41.1c-1.6,7.4-68.4-28.6-112.4-8.8c-7.3,3.3,131.5,39.1,130.2,45
	C116.6,83-9.8,57.2-11.7,64.8c-0.9,3.7,5.1,3.2,111.7,35.4"/>
<path class="st0" d="M106.1,2C48.2,1.6-8.9,10.3-5.8,11.8c2.4,1.2,105.7,7.2,105.8,13c0.1,6-112.9,8.8-112.9,16.5
	c0,8.1,128.7,11.5,128.7,20.3c0.1,8.8-129.3,13.8-129.2,21c0,3.1-2.2,5.3,113.4,9.3"/>
<path class="st0" d="M101.7,8.7C52.9,13.9-19.7,18.7-4.6,24.8c1.2,0.5,6.7,0.8,10.3,2.2c20.5,8.1,98.6,17.4,99.4,20.5
	c2.4,9.6-108.7,0.6-109,4.5c-0.3,4.2,127,11.1,126.8,20.2C122.7,80.8,21.7,84.3-8.4,82.4c-0.9-0.1-3.2,3.9-3.3,4.2
	c-0.2,1.2,43.5,11.7,103.1,13.7"/>
<path class="st0" d="M-2.4-2.6c86,8.5,111,16.3,110.7,20.3C108,20.6,68,21.2-12.2,22.3l0,0c51.1,23.2,112.2,25,122.9,32.7
	c1.9,1.3,5.1-0.2,5.1,0c0.1,1-70.6,13.2-124.8,3.2c-3.9-0.7-8-1.6-8.1-1.2c-0.5,1.9,96,31.1,127,33.5c0.8,0.1,2.9,0.2,2.9,0.5
	c0,1.5-59.4,4.1-116.3,6.4"/>
<path class="st0" d="M-6.3-2.8c72.1,18,105.9,22.4,121.9,21.7c1,0,5.1-0.2,5.1,0C120.8,19.8,34.6,31.7,0,32.3
	c-1.1,0-3.6,0.1-3.6,0.5c-0.3,2.5,51.7,17.3,110.7,17.8c3.3,0,6.5-0.5,6.6,0c0.5,2.3-56,20.1-123.1,23.9c-0.3,0-4.6,0-4.6,0.2
	c0,1.2,124.4,5.8,124.3,8.6c0,1.8-50.6-1.2-122.2,12.2c-2.5,0.5-4.6,0.9-6.4,1.2"/>
<path class="st0" d="M38.9-10.4C96.4,0.7,111.2,5.2,111,6.9c-0.5,3.2-53.2,2-124.6,2.2c-2.7,0-7.5,0-7.6,0.7
	c-0.3,2.7,88.4,16.6,126.3,19.5c0.1,0,4.2,0.3,4.2,0.7c0,2-90.5,8.2-129,9c-0.5,0-3.9,0.1-3.9,0.5c-0.1,2,83.7,10.8,145.8,19.8
	c2,0.3,7.6,1.1,7.6,1.5c-0.2,1.8-136-11.6-136.3-8.6C-6.8,54,80,69.5,128.1,73.6c2.2,0.2,6.8,0.6,6.8,1.2c0.1,2.7-80,6.6-152.4,9.5"
	/>
</svg>
