<svg data-name="Calque 1" xmlns="http://www.w3.org/2000/svg" viewBox="0 0 92 97.1">
  <path d="M77.5 16.2C73.1 6.3 64 .1 54.7.5S38.4 6.1 35.9 13a10.7 10.7 0 00-.2 7.3 10.1 10.1 0 007.1 6.1c2.6.7 8.4-.7 18.3.5A33.3 33.3 0 0176.2 33c17.3 12 16 37.4 14.4 44.2a26 26 0 01-2.2 6.1c-1 2.1-3 6-6.8 8.3-8.6 5.4-19.9-1.1-20.5-1.4a25.6 25.6 0 01-4.4-3.4c-20.8-21-49.1-53.9-55-50.6-1.9 1.1-1.2 5.9-.7 8.5 5.3 31.7 48.2 59 60.8 50.1 2.9-2 3.6-5.6 4.2-8.5 4.4-23-23.1-48.7-48.2-58.4a42.6 42.6 0 00-4.8-1.7" fill="none" stroke="#f30" stroke-miterlimit="10"/>
</svg>
