<svg xmlns="http://www.w3.org/2000/svg" viewBox="0 0 100 100">
  <path d="M54.5 17.6c1 .4 7.7 3.2 13.5-.2.7-.4 5.9-3.5 5.7-8-.1-1.7-.9-2.9-1.1-3.3-1-1.5-3.3-3.5-6-3-3 .6-4.6 3.9-4.4 6.4 0 .5.2 1.7 2.6 4.7 2.2 2.7 4.1 4.3 4.9 5 3.9 3.6 6.6 9.4 6.7 15 0 1.9 0 6.7-3.4 10.3-4.6 4.8-11.6 3.7-12.7 3.6-2.4-.4-4.3-1.2-6.5-2.4-9-5.1-16.1-13.4-24.4-21.8-.7-.7-4.9-4.9-10.3-4.6-6 .5-9.7 10.9-10.1 12C3.9 46 12.4 61 15.7 66.8c3.8 6.7 7.3 10 9.8 11.9 3.2 2.5 8.1 6.3 14.7 5.9 1.1-.1 5.6-.4 9-3.4 7.1-6.4 3.9-21 .8-34.2-3.8-16.3-8.7-24.7-6-26.7 2.8-2.1 11.1 4.7 12.9 6.2C64.8 33 81 50.1 89.3 94.2" fill="none" stroke="#f30" stroke-miterlimit="10"/>
</svg>
